<?xml version="1.0" encoding="UTF-8" standalone="no"?>
<!DOCTYPE svg PUBLIC "-//W3C//DTD SVG 1.1//EN" "http://www.w3.org/Graphics/SVG/1.1/DTD/svg11.dtd">
<svg width="100%" height="100%" viewBox="0 0 610 610" version="1.1" xmlns="http://www.w3.org/2000/svg" xmlns:xlink="http://www.w3.org/1999/xlink" xml:space="preserve" xmlns:serif="http://www.serif.com/" style="fill-rule:evenodd;clip-rule:evenodd;stroke-linejoin:round;stroke-miterlimit:2;">
    <g>
        <g transform="matrix(1.1263,0,0,1.10426,-8554.45,-1687.04)">
            <rect x="7548.65" y="1473.93" width="633.861" height="659.219" style="fill:rgb(0,24,56);"/>
        </g>
        <g transform="matrix(1.13367,0,0,1.13367,-8631.96,-1784.04)">
            <g transform="matrix(224.77,0,0,224.77,7815.34,1850.54)">
                <path d="M0.527,-0.527C0.527,-0.505 0.524,-0.486 0.519,-0.469C0.514,-0.452 0.506,-0.437 0.497,-0.423C0.487,-0.409 0.475,-0.396 0.462,-0.384C0.448,-0.371 0.432,-0.358 0.415,-0.345C0.404,-0.336 0.396,-0.329 0.389,-0.322C0.382,-0.315 0.376,-0.309 0.372,-0.302C0.368,-0.295 0.365,-0.287 0.364,-0.28C0.362,-0.272 0.361,-0.263 0.361,-0.252L0.361,-0.226L0.205,-0.226L0.205,-0.264C0.205,-0.281 0.207,-0.297 0.21,-0.311C0.213,-0.324 0.218,-0.337 0.225,-0.348C0.232,-0.359 0.24,-0.37 0.25,-0.381C0.259,-0.392 0.271,-0.403 0.284,-0.414L0.317,-0.445C0.328,-0.455 0.338,-0.466 0.346,-0.477C0.354,-0.488 0.358,-0.501 0.358,-0.516C0.358,-0.537 0.352,-0.554 0.339,-0.567C0.326,-0.58 0.308,-0.586 0.285,-0.586C0.257,-0.586 0.236,-0.576 0.222,-0.558C0.208,-0.539 0.2,-0.517 0.199,-0.493L0.04,-0.51C0.044,-0.546 0.053,-0.578 0.068,-0.605C0.082,-0.632 0.1,-0.655 0.123,-0.673C0.146,-0.691 0.171,-0.705 0.2,-0.714C0.229,-0.723 0.259,-0.727 0.291,-0.727C0.321,-0.727 0.35,-0.723 0.379,-0.716C0.407,-0.708 0.432,-0.696 0.454,-0.68C0.476,-0.663 0.494,-0.642 0.507,-0.617C0.52,-0.592 0.527,-0.562 0.527,-0.527ZM0.381,-0.085C0.381,-0.058 0.372,-0.036 0.353,-0.018C0.334,0.001 0.311,0.01 0.284,0.01C0.271,0.01 0.258,0.008 0.247,0.003C0.235,-0.002 0.225,-0.008 0.216,-0.017C0.207,-0.026 0.199,-0.036 0.194,-0.047C0.189,-0.058 0.186,-0.071 0.186,-0.084C0.186,-0.097 0.189,-0.109 0.194,-0.121C0.199,-0.132 0.206,-0.142 0.215,-0.151C0.224,-0.16 0.234,-0.167 0.246,-0.172C0.258,-0.177 0.271,-0.179 0.284,-0.179C0.297,-0.179 0.31,-0.177 0.322,-0.172C0.333,-0.167 0.343,-0.16 0.353,-0.152C0.362,-0.143 0.369,-0.133 0.374,-0.122C0.379,-0.11 0.381,-0.098 0.381,-0.085Z" style="fill:white;fill-rule:nonzero;"/>
            </g>
        </g>
    </g>
    <g transform="matrix(1.308,0,0,1.39932,-10082.7,-2305.36)">
        <rect x="7698.45" y="1960.56" width="485.67" height="128.351" style="fill:rgb(0,41,97);"/>
    </g>
    <g transform="matrix(1.11154,0,0,1.11154,-3295.74,-198.507)">
        <g transform="matrix(60.1507,0,0,60.1507,3115.49,668.748)">
            <path d="M0.452,-0L0.299,-0.281L0.241,-0.281L0.241,-0L0.073,-0L0.073,-0.708L0.343,-0.708C0.377,-0.708 0.41,-0.705 0.443,-0.698C0.475,-0.691 0.504,-0.679 0.53,-0.662C0.555,-0.645 0.576,-0.623 0.591,-0.596C0.606,-0.569 0.614,-0.535 0.614,-0.494C0.614,-0.446 0.601,-0.406 0.575,-0.373C0.549,-0.34 0.513,-0.317 0.467,-0.303L0.652,-0L0.452,-0ZM0.445,-0.491C0.445,-0.508 0.442,-0.521 0.435,-0.532C0.428,-0.542 0.419,-0.55 0.408,-0.556C0.397,-0.561 0.384,-0.565 0.371,-0.567C0.357,-0.569 0.344,-0.57 0.331,-0.57L0.24,-0.57L0.24,-0.405L0.321,-0.405C0.335,-0.405 0.349,-0.406 0.364,-0.409C0.379,-0.411 0.392,-0.415 0.404,-0.421C0.416,-0.427 0.426,-0.436 0.434,-0.447C0.441,-0.458 0.445,-0.473 0.445,-0.491Z" style="fill:white;fill-rule:nonzero;"/>
        </g>
        <g transform="matrix(60.1507,0,0,60.1507,3154.65,668.748)">
            <path d="M0.358,-0.217L0.337,-0.217C0.319,-0.217 0.301,-0.216 0.283,-0.215C0.264,-0.213 0.248,-0.21 0.234,-0.205C0.219,-0.2 0.207,-0.194 0.198,-0.185C0.189,-0.175 0.184,-0.164 0.184,-0.149C0.184,-0.14 0.186,-0.132 0.191,-0.125C0.195,-0.118 0.2,-0.113 0.207,-0.109C0.214,-0.105 0.221,-0.102 0.23,-0.101C0.239,-0.099 0.247,-0.098 0.255,-0.098C0.288,-0.098 0.314,-0.107 0.332,-0.126C0.349,-0.144 0.358,-0.169 0.358,-0.2L0.358,-0.217ZM0.057,-0.43C0.086,-0.458 0.121,-0.479 0.16,-0.493C0.199,-0.507 0.238,-0.514 0.279,-0.514C0.321,-0.514 0.357,-0.509 0.386,-0.499C0.415,-0.488 0.438,-0.472 0.456,-0.451C0.474,-0.429 0.487,-0.401 0.496,-0.369C0.504,-0.335 0.508,-0.296 0.508,-0.251L0.508,-0L0.358,-0L0.358,-0.053L0.355,-0.053C0.342,-0.032 0.323,-0.016 0.298,-0.005C0.272,0.006 0.244,0.012 0.214,0.012C0.194,0.012 0.173,0.009 0.152,0.004C0.131,-0.001 0.111,-0.01 0.094,-0.022C0.076,-0.034 0.061,-0.05 0.05,-0.07C0.039,-0.09 0.033,-0.115 0.033,-0.144C0.033,-0.18 0.043,-0.209 0.063,-0.231C0.082,-0.253 0.108,-0.27 0.139,-0.282C0.169,-0.294 0.204,-0.302 0.242,-0.306C0.28,-0.31 0.317,-0.312 0.353,-0.312L0.353,-0.32C0.353,-0.345 0.344,-0.363 0.327,-0.375C0.31,-0.386 0.288,-0.392 0.263,-0.392C0.24,-0.392 0.217,-0.387 0.196,-0.377C0.174,-0.367 0.155,-0.355 0.14,-0.341L0.057,-0.43Z" style="fill:white;fill-rule:nonzero;"/>
        </g>
        <g transform="matrix(60.1507,0,0,60.1507,3188.69,668.748)">
            <path d="M0.391,-0L0.391,-0.272C0.391,-0.286 0.39,-0.299 0.388,-0.312C0.385,-0.325 0.381,-0.336 0.376,-0.346C0.371,-0.355 0.363,-0.363 0.354,-0.369C0.344,-0.374 0.332,-0.377 0.317,-0.377C0.302,-0.377 0.29,-0.374 0.279,-0.369C0.268,-0.363 0.258,-0.355 0.251,-0.345C0.244,-0.335 0.238,-0.324 0.235,-0.311C0.231,-0.298 0.229,-0.284 0.229,-0.27L0.229,-0L0.064,-0L0.064,-0.498L0.223,-0.498L0.223,-0.429L0.225,-0.429C0.231,-0.44 0.239,-0.45 0.249,-0.461C0.258,-0.471 0.27,-0.48 0.283,-0.487C0.296,-0.494 0.31,-0.5 0.325,-0.505C0.34,-0.51 0.357,-0.512 0.374,-0.512C0.407,-0.512 0.436,-0.506 0.459,-0.494C0.482,-0.482 0.501,-0.467 0.516,-0.448C0.53,-0.428 0.54,-0.407 0.547,-0.382C0.553,-0.357 0.556,-0.333 0.556,-0.308L0.556,-0L0.391,-0Z" style="fill:white;fill-rule:nonzero;"/>
        </g>
        <g transform="matrix(60.1507,0,0,60.1507,3225.74,668.748)">
            <path d="M0.441,-0L0.441,-0.065L0.439,-0.065C0.423,-0.04 0.4,-0.02 0.371,-0.007C0.341,0.007 0.309,0.014 0.276,0.014C0.239,0.014 0.205,0.007 0.176,-0.008C0.147,-0.023 0.122,-0.042 0.102,-0.067C0.081,-0.091 0.066,-0.119 0.055,-0.151C0.044,-0.183 0.039,-0.216 0.039,-0.251C0.039,-0.286 0.045,-0.319 0.056,-0.351C0.067,-0.382 0.082,-0.41 0.103,-0.434C0.123,-0.458 0.148,-0.477 0.177,-0.491C0.206,-0.505 0.238,-0.512 0.274,-0.512C0.311,-0.512 0.342,-0.505 0.367,-0.491C0.392,-0.477 0.412,-0.462 0.426,-0.445L0.428,-0.445L0.428,-0.756L0.592,-0.756L0.592,-0L0.441,-0ZM0.435,-0.25C0.435,-0.266 0.432,-0.282 0.427,-0.297C0.421,-0.312 0.413,-0.326 0.403,-0.338C0.392,-0.35 0.38,-0.36 0.365,-0.367C0.35,-0.374 0.334,-0.378 0.315,-0.378C0.296,-0.378 0.279,-0.374 0.264,-0.367C0.249,-0.36 0.237,-0.35 0.227,-0.339C0.217,-0.327 0.21,-0.313 0.205,-0.298C0.2,-0.283 0.197,-0.267 0.197,-0.251C0.197,-0.235 0.2,-0.219 0.205,-0.204C0.21,-0.188 0.217,-0.174 0.227,-0.162C0.237,-0.15 0.249,-0.14 0.264,-0.133C0.279,-0.126 0.296,-0.122 0.315,-0.122C0.334,-0.122 0.35,-0.126 0.365,-0.133C0.38,-0.14 0.392,-0.15 0.403,-0.162C0.413,-0.174 0.421,-0.188 0.427,-0.203C0.432,-0.218 0.435,-0.234 0.435,-0.25Z" style="fill:white;fill-rule:nonzero;"/>
        </g>
        <g transform="matrix(60.1507,0,0,60.1507,3265.32,668.748)">
            <path d="M0.592,-0.251C0.592,-0.21 0.585,-0.173 0.57,-0.141C0.555,-0.108 0.535,-0.08 0.51,-0.057C0.485,-0.034 0.455,-0.016 0.422,-0.003C0.389,0.01 0.353,0.016 0.315,0.016C0.278,0.016 0.242,0.01 0.209,-0.003C0.175,-0.016 0.146,-0.034 0.121,-0.057C0.095,-0.08 0.076,-0.108 0.061,-0.141C0.046,-0.173 0.039,-0.21 0.039,-0.251C0.039,-0.292 0.046,-0.328 0.061,-0.361C0.076,-0.394 0.095,-0.421 0.121,-0.444C0.146,-0.467 0.175,-0.484 0.209,-0.496C0.242,-0.508 0.278,-0.514 0.315,-0.514C0.353,-0.514 0.389,-0.508 0.422,-0.496C0.455,-0.484 0.485,-0.467 0.51,-0.444C0.535,-0.421 0.555,-0.394 0.57,-0.361C0.585,-0.328 0.592,-0.292 0.592,-0.251ZM0.434,-0.251C0.434,-0.267 0.431,-0.283 0.426,-0.298C0.421,-0.313 0.413,-0.327 0.403,-0.339C0.393,-0.35 0.381,-0.36 0.366,-0.367C0.351,-0.374 0.334,-0.378 0.315,-0.378C0.296,-0.378 0.279,-0.374 0.264,-0.367C0.249,-0.36 0.237,-0.35 0.228,-0.339C0.218,-0.327 0.211,-0.313 0.206,-0.298C0.201,-0.283 0.198,-0.267 0.198,-0.251C0.198,-0.235 0.201,-0.219 0.206,-0.204C0.211,-0.189 0.218,-0.175 0.228,-0.163C0.238,-0.15 0.25,-0.14 0.265,-0.133C0.28,-0.126 0.297,-0.122 0.316,-0.122C0.335,-0.122 0.352,-0.126 0.367,-0.133C0.382,-0.14 0.394,-0.15 0.404,-0.163C0.414,-0.175 0.422,-0.189 0.427,-0.204C0.432,-0.219 0.434,-0.235 0.434,-0.251Z" style="fill:white;fill-rule:nonzero;"/>
        </g>
        <g transform="matrix(60.1507,0,0,60.1507,3303.34,668.748)">
            <path d="M0.7,-0L0.7,-0.272C0.7,-0.286 0.699,-0.3 0.697,-0.313C0.695,-0.326 0.691,-0.337 0.686,-0.346C0.681,-0.355 0.674,-0.363 0.665,-0.369C0.656,-0.374 0.644,-0.377 0.629,-0.377C0.615,-0.377 0.603,-0.374 0.593,-0.368C0.582,-0.362 0.574,-0.354 0.567,-0.344C0.56,-0.334 0.554,-0.323 0.551,-0.31C0.548,-0.297 0.546,-0.283 0.546,-0.269L0.546,-0L0.382,-0L0.382,-0.284C0.382,-0.313 0.376,-0.335 0.365,-0.352C0.354,-0.369 0.336,-0.377 0.311,-0.377C0.285,-0.377 0.265,-0.367 0.251,-0.346C0.236,-0.325 0.229,-0.3 0.229,-0.27L0.229,-0L0.064,-0L0.064,-0.498L0.223,-0.498L0.223,-0.429L0.225,-0.429C0.231,-0.44 0.239,-0.45 0.248,-0.46C0.257,-0.47 0.267,-0.479 0.28,-0.487C0.293,-0.494 0.307,-0.5 0.323,-0.505C0.338,-0.51 0.355,-0.512 0.374,-0.512C0.41,-0.512 0.44,-0.505 0.466,-0.49C0.491,-0.475 0.51,-0.454 0.524,-0.427C0.541,-0.453 0.562,-0.474 0.588,-0.489C0.614,-0.504 0.646,-0.512 0.683,-0.512C0.717,-0.512 0.745,-0.506 0.769,-0.494C0.792,-0.481 0.81,-0.465 0.824,-0.446C0.838,-0.426 0.848,-0.404 0.855,-0.38C0.861,-0.355 0.864,-0.331 0.864,-0.308L0.864,-0L0.7,-0Z" style="fill:white;fill-rule:nonzero;"/>
        </g>
    </g>
</svg>
