<?xml version="1.0" encoding="UTF-8" standalone="no"?>
<!DOCTYPE svg PUBLIC "-//W3C//DTD SVG 1.1//EN" "http://www.w3.org/Graphics/SVG/1.1/DTD/svg11.dtd">
<svg width="100%" height="100%" viewBox="0 0 610 610" version="1.1" xmlns="http://www.w3.org/2000/svg" xmlns:xlink="http://www.w3.org/1999/xlink" xml:space="preserve" xmlns:serif="http://www.serif.com/" style="fill-rule:evenodd;clip-rule:evenodd;stroke-linejoin:round;stroke-miterlimit:2;">
    <g transform="matrix(1,0,0,1,-5558.45,-1566.49)">
        <rect x="5558.45" y="1566.49" width="609.092" height="609.092" style="fill:rgb(139,222,255);"/>
        <clipPath id="_clip1">
            <rect x="5558.45" y="1566.49" width="609.092" height="609.092"/>
        </clipPath>
        <g clip-path="url(#_clip1)">
            <g transform="matrix(3.35687,-1.93809,0.859335,1.48841,-4645.85,6515.27)">
                <rect x="2822.93" y="531.987" width="240.304" height="152.922" style="fill:rgb(110,208,255);"/>
            </g>
            <g transform="matrix(3.50105,-2.02133,0.5,0.866025,-4745.59,7425.39)">
                <rect x="2822.93" y="531.987" width="240.304" height="152.922" style="fill:rgb(110,208,255);"/>
            </g>
            <g transform="matrix(2.40698,-1.38967,0.190629,0.330179,-1461.62,5498.25)">
                <rect x="2822.93" y="531.987" width="240.304" height="152.922" style="fill:rgb(191,238,255);fill-opacity:0.7;"/>
            </g>
            <g transform="matrix(2.1335,-1.23178,0.2695,0.466788,-386.627,5464.91)">
                <rect x="2822.93" y="531.987" width="240.304" height="152.922" style="fill:rgb(191,238,255);fill-opacity:0.7;"/>
            </g>
            <g transform="matrix(3.17624,-1.8338,0.261213,0.452434,-3677.19,6845.79)">
                <rect x="2822.93" y="531.987" width="240.304" height="152.922" style="fill:rgb(139,222,255);fill-opacity:0.51;"/>
            </g>
            <g transform="matrix(3.17624,-1.8338,0.261213,0.452434,-3613.34,7050.28)">
                <rect x="2822.93" y="531.987" width="240.304" height="152.922" style="fill:rgb(139,222,255);fill-opacity:0.51;"/>
            </g>
            <g transform="matrix(1,0,0,1,0,35.6102)">
                <g transform="matrix(1.11154,0,0,1.11154,2191.07,1152.43)">
                    <g transform="matrix(60.1507,0,0,60.1507,3141.14,668.748)">
                        <path d="M0.523,-0L0.238,-0.463L0.235,-0.463L0.239,-0L0.073,-0L0.073,-0.708L0.268,-0.708L0.552,-0.246L0.555,-0.246L0.551,-0.708L0.717,-0.708L0.717,-0L0.523,-0Z" style="fill:rgb(0,10,33);fill-rule:nonzero;"/>
                    </g>
                    <g transform="matrix(60.1507,0,0,60.1507,3188.66,668.748)">
                        <path d="M0.407,-0.306C0.407,-0.332 0.399,-0.354 0.383,-0.373C0.366,-0.392 0.342,-0.401 0.309,-0.401C0.293,-0.401 0.278,-0.399 0.265,-0.394C0.252,-0.389 0.24,-0.382 0.23,-0.373C0.22,-0.364 0.212,-0.354 0.206,-0.343C0.2,-0.331 0.197,-0.319 0.196,-0.306L0.407,-0.306ZM0.558,-0.243L0.558,-0.223C0.558,-0.216 0.558,-0.21 0.557,-0.204L0.196,-0.204C0.197,-0.19 0.202,-0.177 0.209,-0.166C0.216,-0.155 0.225,-0.145 0.236,-0.137C0.247,-0.128 0.259,-0.122 0.273,-0.117C0.286,-0.112 0.3,-0.11 0.315,-0.11C0.341,-0.11 0.363,-0.115 0.381,-0.125C0.399,-0.134 0.414,-0.147 0.425,-0.162L0.539,-0.09C0.516,-0.056 0.485,-0.03 0.447,-0.012C0.408,0.007 0.364,0.016 0.313,0.016C0.276,0.016 0.24,0.01 0.207,-0.002C0.174,-0.013 0.145,-0.03 0.12,-0.053C0.095,-0.075 0.075,-0.102 0.061,-0.135C0.046,-0.168 0.039,-0.205 0.039,-0.247C0.039,-0.288 0.046,-0.325 0.06,-0.358C0.074,-0.391 0.093,-0.419 0.117,-0.442C0.141,-0.464 0.169,-0.482 0.202,-0.495C0.235,-0.508 0.27,-0.514 0.308,-0.514C0.345,-0.514 0.378,-0.508 0.409,-0.496C0.44,-0.483 0.466,-0.465 0.488,-0.442C0.51,-0.419 0.527,-0.39 0.54,-0.357C0.552,-0.324 0.558,-0.286 0.558,-0.243Z" style="fill:rgb(0,10,33);fill-rule:nonzero;"/>
                    </g>
                    <g transform="matrix(60.1507,0,0,60.1507,3224.51,668.748)">
                        <path d="M0.698,-0L0.533,-0L0.435,-0.31L0.433,-0.31L0.337,-0L0.172,-0L0,-0.498L0.177,-0.498L0.263,-0.183L0.266,-0.183L0.355,-0.498L0.52,-0.498L0.612,-0.183L0.614,-0.183L0.701,-0.498L0.871,-0.498L0.698,-0Z" style="fill:rgb(0,10,33);fill-rule:nonzero;"/>
                    </g>
                    <g transform="matrix(60.1507,0,0,60.1507,3291.94,668.748)">
                        <path d="M0.702,-0.043C0.667,-0.025 0.627,-0.01 0.581,0.001C0.534,0.012 0.484,0.018 0.429,0.018C0.372,0.018 0.32,0.009 0.273,-0.009C0.225,-0.027 0.184,-0.052 0.15,-0.085C0.115,-0.118 0.088,-0.157 0.069,-0.203C0.05,-0.248 0.04,-0.299 0.04,-0.355C0.04,-0.412 0.05,-0.463 0.07,-0.509C0.089,-0.555 0.116,-0.594 0.151,-0.627C0.186,-0.659 0.226,-0.684 0.273,-0.701C0.32,-0.718 0.37,-0.727 0.424,-0.727C0.48,-0.727 0.532,-0.719 0.58,-0.702C0.628,-0.685 0.667,-0.662 0.697,-0.633L0.589,-0.51C0.572,-0.529 0.55,-0.545 0.523,-0.558C0.496,-0.57 0.465,-0.576 0.43,-0.576C0.4,-0.576 0.372,-0.571 0.347,-0.56C0.322,-0.549 0.3,-0.533 0.281,-0.514C0.262,-0.494 0.248,-0.47 0.238,-0.444C0.227,-0.417 0.222,-0.387 0.222,-0.355C0.222,-0.322 0.227,-0.292 0.236,-0.265C0.245,-0.238 0.259,-0.214 0.278,-0.195C0.296,-0.175 0.319,-0.16 0.346,-0.149C0.373,-0.137 0.403,-0.132 0.438,-0.132C0.458,-0.132 0.477,-0.134 0.495,-0.137C0.513,-0.14 0.53,-0.144 0.545,-0.151L0.545,-0.28L0.41,-0.28L0.41,-0.418L0.702,-0.418L0.702,-0.043Z" style="fill:rgb(0,10,33);fill-rule:nonzero;"/>
                    </g>
                    <g transform="matrix(60.1507,0,0,60.1507,3338.2,668.748)">
                        <path d="M0.358,-0.217L0.337,-0.217C0.319,-0.217 0.301,-0.216 0.283,-0.215C0.264,-0.213 0.248,-0.21 0.234,-0.205C0.219,-0.2 0.207,-0.194 0.198,-0.185C0.189,-0.175 0.184,-0.164 0.184,-0.149C0.184,-0.14 0.186,-0.132 0.191,-0.125C0.195,-0.118 0.2,-0.113 0.207,-0.109C0.214,-0.105 0.221,-0.102 0.23,-0.101C0.239,-0.099 0.247,-0.098 0.255,-0.098C0.288,-0.098 0.314,-0.107 0.332,-0.126C0.349,-0.144 0.358,-0.169 0.358,-0.2L0.358,-0.217ZM0.057,-0.43C0.086,-0.458 0.121,-0.479 0.16,-0.493C0.199,-0.507 0.238,-0.514 0.279,-0.514C0.321,-0.514 0.357,-0.509 0.386,-0.499C0.415,-0.488 0.438,-0.472 0.456,-0.451C0.474,-0.429 0.487,-0.401 0.496,-0.369C0.504,-0.335 0.508,-0.296 0.508,-0.251L0.508,-0L0.358,-0L0.358,-0.053L0.355,-0.053C0.342,-0.032 0.323,-0.016 0.298,-0.005C0.272,0.006 0.244,0.012 0.214,0.012C0.194,0.012 0.173,0.009 0.152,0.004C0.131,-0.001 0.111,-0.01 0.094,-0.022C0.076,-0.034 0.061,-0.05 0.05,-0.07C0.039,-0.09 0.033,-0.115 0.033,-0.144C0.033,-0.18 0.043,-0.209 0.063,-0.231C0.082,-0.253 0.108,-0.27 0.139,-0.282C0.169,-0.294 0.204,-0.302 0.242,-0.306C0.28,-0.31 0.317,-0.312 0.353,-0.312L0.353,-0.32C0.353,-0.345 0.344,-0.363 0.327,-0.375C0.31,-0.386 0.288,-0.392 0.263,-0.392C0.24,-0.392 0.217,-0.387 0.196,-0.377C0.174,-0.367 0.155,-0.355 0.14,-0.341L0.057,-0.43Z" style="fill:rgb(0,10,33);fill-rule:nonzero;"/>
                    </g>
                    <g transform="matrix(60.1507,0,0,60.1507,3372.24,668.748)">
                        <path d="M0.7,-0L0.7,-0.272C0.7,-0.286 0.699,-0.3 0.697,-0.313C0.695,-0.326 0.691,-0.337 0.686,-0.346C0.681,-0.355 0.674,-0.363 0.665,-0.369C0.656,-0.374 0.644,-0.377 0.629,-0.377C0.615,-0.377 0.603,-0.374 0.593,-0.368C0.582,-0.362 0.574,-0.354 0.567,-0.344C0.56,-0.334 0.554,-0.323 0.551,-0.31C0.548,-0.297 0.546,-0.283 0.546,-0.269L0.546,-0L0.382,-0L0.382,-0.284C0.382,-0.313 0.376,-0.335 0.365,-0.352C0.354,-0.369 0.336,-0.377 0.311,-0.377C0.285,-0.377 0.265,-0.367 0.251,-0.346C0.236,-0.325 0.229,-0.3 0.229,-0.27L0.229,-0L0.064,-0L0.064,-0.498L0.223,-0.498L0.223,-0.429L0.225,-0.429C0.231,-0.44 0.239,-0.45 0.248,-0.46C0.257,-0.47 0.267,-0.479 0.28,-0.487C0.293,-0.494 0.307,-0.5 0.323,-0.505C0.338,-0.51 0.355,-0.512 0.374,-0.512C0.41,-0.512 0.44,-0.505 0.466,-0.49C0.491,-0.475 0.51,-0.454 0.524,-0.427C0.541,-0.453 0.562,-0.474 0.588,-0.489C0.614,-0.504 0.646,-0.512 0.683,-0.512C0.717,-0.512 0.745,-0.506 0.769,-0.494C0.792,-0.481 0.81,-0.465 0.824,-0.446C0.838,-0.426 0.848,-0.404 0.855,-0.38C0.861,-0.355 0.864,-0.331 0.864,-0.308L0.864,-0L0.7,-0Z" style="fill:rgb(0,10,33);fill-rule:nonzero;"/>
                    </g>
                    <g transform="matrix(60.1507,0,0,60.1507,3427.82,668.748)">
                        <path d="M0.407,-0.306C0.407,-0.332 0.399,-0.354 0.383,-0.373C0.366,-0.392 0.342,-0.401 0.309,-0.401C0.293,-0.401 0.278,-0.399 0.265,-0.394C0.252,-0.389 0.24,-0.382 0.23,-0.373C0.22,-0.364 0.212,-0.354 0.206,-0.343C0.2,-0.331 0.197,-0.319 0.196,-0.306L0.407,-0.306ZM0.558,-0.243L0.558,-0.223C0.558,-0.216 0.558,-0.21 0.557,-0.204L0.196,-0.204C0.197,-0.19 0.202,-0.177 0.209,-0.166C0.216,-0.155 0.225,-0.145 0.236,-0.137C0.247,-0.128 0.259,-0.122 0.273,-0.117C0.286,-0.112 0.3,-0.11 0.315,-0.11C0.341,-0.11 0.363,-0.115 0.381,-0.125C0.399,-0.134 0.414,-0.147 0.425,-0.162L0.539,-0.09C0.516,-0.056 0.485,-0.03 0.447,-0.012C0.408,0.007 0.364,0.016 0.313,0.016C0.276,0.016 0.24,0.01 0.207,-0.002C0.174,-0.013 0.145,-0.03 0.12,-0.053C0.095,-0.075 0.075,-0.102 0.061,-0.135C0.046,-0.168 0.039,-0.205 0.039,-0.247C0.039,-0.288 0.046,-0.325 0.06,-0.358C0.074,-0.391 0.093,-0.419 0.117,-0.442C0.141,-0.464 0.169,-0.482 0.202,-0.495C0.235,-0.508 0.27,-0.514 0.308,-0.514C0.345,-0.514 0.378,-0.508 0.409,-0.496C0.44,-0.483 0.466,-0.465 0.488,-0.442C0.51,-0.419 0.527,-0.39 0.54,-0.357C0.552,-0.324 0.558,-0.286 0.558,-0.243Z" style="fill:rgb(0,10,33);fill-rule:nonzero;"/>
                    </g>
                </g>
                <g transform="matrix(1,0,0,1,0,0.354331)">
                    <g transform="matrix(6.12323e-17,1,-1,6.12323e-17,7625.43,-4436.77)">
                        <rect x="6198.73" y="1729.73" width="11.495" height="54.838" style="fill:rgb(0,9,33);"/>
                    </g>
                    <g transform="matrix(1,0,0,1,-336.195,10.5629)">
                        <rect x="6198.73" y="1729.73" width="11.495" height="54.838" style="fill:rgb(0,9,33);"/>
                    </g>
                </g>
            </g>
        </g>
    </g>
</svg>
