<?xml version="1.0" encoding="UTF-8" standalone="no"?>
<!DOCTYPE svg PUBLIC "-//W3C//DTD SVG 1.1//EN" "http://www.w3.org/Graphics/SVG/1.1/DTD/svg11.dtd">
<svg width="100%" height="100%" viewBox="0 0 456 132" version="1.1" xmlns="http://www.w3.org/2000/svg" xmlns:xlink="http://www.w3.org/1999/xlink" xml:space="preserve" xmlns:serif="http://www.serif.com/" style="fill-rule:evenodd;clip-rule:evenodd;stroke-linejoin:round;stroke-miterlimit:2;">
    <g transform="matrix(1,0,0,1,-2880.53,-426.493)">
        <g transform="matrix(1,0,0,1,-29.5918,-26.3146)">
            <rect x="2910.36" y="452.808" width="455.721" height="131.039" style="fill:rgb(139,222,255);"/>
            <clipPath id="_clip1">
                <rect x="2910.36" y="452.808" width="455.721" height="131.039"/>
            </clipPath>
            <g clip-path="url(#_clip1)">
                <g transform="matrix(1.31206,-0.757519,0.5,0.866025,-1180.38,2156.99)">
                    <rect x="2822.93" y="531.987" width="240.304" height="152.922" style="fill:rgb(110,208,255);"/>
                </g>
                <g transform="matrix(1.31206,-0.757519,0.5,0.866025,-889.492,2273.22)">
                    <rect x="2822.93" y="531.987" width="240.304" height="152.922" style="fill:rgb(110,208,255);"/>
                </g>
            </g>
        </g>
        <g transform="matrix(0.953701,0,0,0.953701,-65.7969,-124.073)">
            <g transform="matrix(60.1507,0,0,60.1507,3141.14,668.748)">
                <path d="M0.073,-0L0.073,-0.708L0.245,-0.708L0.245,-0.149L0.519,-0.149L0.519,-0L0.073,-0Z" style="fill:rgb(0,10,33);fill-rule:nonzero;"/>
            </g>
            <g transform="matrix(60.1507,0,0,60.1507,3171.7,668.748)">
                <path d="M0.407,-0.306C0.407,-0.332 0.399,-0.354 0.383,-0.373C0.366,-0.392 0.342,-0.401 0.309,-0.401C0.293,-0.401 0.278,-0.399 0.265,-0.394C0.252,-0.389 0.24,-0.382 0.23,-0.373C0.22,-0.364 0.212,-0.354 0.206,-0.343C0.2,-0.331 0.197,-0.319 0.196,-0.306L0.407,-0.306ZM0.558,-0.243L0.558,-0.223C0.558,-0.216 0.558,-0.21 0.557,-0.204L0.196,-0.204C0.197,-0.19 0.202,-0.177 0.209,-0.166C0.216,-0.155 0.225,-0.145 0.236,-0.137C0.247,-0.128 0.259,-0.122 0.273,-0.117C0.286,-0.112 0.3,-0.11 0.315,-0.11C0.341,-0.11 0.363,-0.115 0.381,-0.125C0.399,-0.134 0.414,-0.147 0.425,-0.162L0.539,-0.09C0.516,-0.056 0.485,-0.03 0.447,-0.012C0.408,0.007 0.364,0.016 0.313,0.016C0.276,0.016 0.24,0.01 0.207,-0.002C0.174,-0.013 0.145,-0.03 0.12,-0.053C0.095,-0.075 0.075,-0.102 0.061,-0.135C0.046,-0.168 0.039,-0.205 0.039,-0.247C0.039,-0.288 0.046,-0.325 0.06,-0.358C0.074,-0.391 0.093,-0.419 0.117,-0.442C0.141,-0.464 0.169,-0.482 0.202,-0.495C0.235,-0.508 0.27,-0.514 0.308,-0.514C0.345,-0.514 0.378,-0.508 0.409,-0.496C0.44,-0.483 0.466,-0.465 0.488,-0.442C0.51,-0.419 0.527,-0.39 0.54,-0.357C0.552,-0.324 0.558,-0.286 0.558,-0.243Z" style="fill:rgb(0,10,33);fill-rule:nonzero;"/>
            </g>
            <g transform="matrix(60.1507,0,0,60.1507,3207.19,668.748)">
                <path d="M0.358,-0.217L0.337,-0.217C0.319,-0.217 0.301,-0.216 0.283,-0.215C0.264,-0.213 0.248,-0.21 0.234,-0.205C0.219,-0.2 0.207,-0.194 0.198,-0.185C0.189,-0.175 0.184,-0.164 0.184,-0.149C0.184,-0.14 0.186,-0.132 0.191,-0.125C0.195,-0.118 0.2,-0.113 0.207,-0.109C0.214,-0.105 0.221,-0.102 0.23,-0.101C0.239,-0.099 0.247,-0.098 0.255,-0.098C0.288,-0.098 0.314,-0.107 0.332,-0.126C0.349,-0.144 0.358,-0.169 0.358,-0.2L0.358,-0.217ZM0.057,-0.43C0.086,-0.458 0.121,-0.479 0.16,-0.493C0.199,-0.507 0.238,-0.514 0.279,-0.514C0.321,-0.514 0.357,-0.509 0.386,-0.499C0.415,-0.488 0.438,-0.472 0.456,-0.451C0.474,-0.429 0.487,-0.401 0.496,-0.369C0.504,-0.335 0.508,-0.296 0.508,-0.251L0.508,-0L0.358,-0L0.358,-0.053L0.355,-0.053C0.342,-0.032 0.323,-0.016 0.298,-0.005C0.272,0.006 0.244,0.012 0.214,0.012C0.194,0.012 0.173,0.009 0.152,0.004C0.131,-0.001 0.111,-0.01 0.094,-0.022C0.076,-0.034 0.061,-0.05 0.05,-0.07C0.039,-0.09 0.033,-0.115 0.033,-0.144C0.033,-0.18 0.043,-0.209 0.063,-0.231C0.082,-0.253 0.108,-0.27 0.139,-0.282C0.169,-0.294 0.204,-0.302 0.242,-0.306C0.28,-0.31 0.317,-0.312 0.353,-0.312L0.353,-0.32C0.353,-0.345 0.344,-0.363 0.327,-0.375C0.31,-0.386 0.288,-0.392 0.263,-0.392C0.24,-0.392 0.217,-0.387 0.196,-0.377C0.174,-0.367 0.155,-0.355 0.14,-0.341L0.057,-0.43Z" style="fill:rgb(0,10,33);fill-rule:nonzero;"/>
            </g>
            <g transform="matrix(60.1507,0,0,60.1507,3241.23,668.748)">
                <path d="M0.441,-0L0.441,-0.065L0.439,-0.065C0.423,-0.04 0.4,-0.02 0.371,-0.007C0.341,0.007 0.309,0.014 0.276,0.014C0.239,0.014 0.205,0.007 0.176,-0.008C0.147,-0.023 0.122,-0.042 0.102,-0.067C0.081,-0.091 0.066,-0.119 0.055,-0.151C0.044,-0.183 0.039,-0.216 0.039,-0.251C0.039,-0.286 0.045,-0.319 0.056,-0.351C0.067,-0.382 0.082,-0.41 0.103,-0.434C0.123,-0.458 0.148,-0.477 0.177,-0.491C0.206,-0.505 0.238,-0.512 0.274,-0.512C0.311,-0.512 0.342,-0.505 0.367,-0.491C0.392,-0.477 0.412,-0.462 0.426,-0.445L0.428,-0.445L0.428,-0.756L0.592,-0.756L0.592,-0L0.441,-0ZM0.435,-0.25C0.435,-0.266 0.432,-0.282 0.427,-0.297C0.421,-0.312 0.413,-0.326 0.403,-0.338C0.392,-0.35 0.38,-0.36 0.365,-0.367C0.35,-0.374 0.334,-0.378 0.315,-0.378C0.296,-0.378 0.279,-0.374 0.264,-0.367C0.249,-0.36 0.237,-0.35 0.227,-0.339C0.217,-0.327 0.21,-0.313 0.205,-0.298C0.2,-0.283 0.197,-0.267 0.197,-0.251C0.197,-0.235 0.2,-0.219 0.205,-0.204C0.21,-0.188 0.217,-0.174 0.227,-0.162C0.237,-0.15 0.249,-0.14 0.264,-0.133C0.279,-0.126 0.296,-0.122 0.315,-0.122C0.334,-0.122 0.35,-0.126 0.365,-0.133C0.38,-0.14 0.392,-0.15 0.403,-0.162C0.413,-0.174 0.421,-0.188 0.427,-0.203C0.432,-0.218 0.435,-0.234 0.435,-0.25Z" style="fill:rgb(0,10,33);fill-rule:nonzero;"/>
            </g>
            <g transform="matrix(60.1507,0,0,60.1507,3280.81,668.748)">
                <path d="M0.407,-0.306C0.407,-0.332 0.399,-0.354 0.383,-0.373C0.366,-0.392 0.342,-0.401 0.309,-0.401C0.293,-0.401 0.278,-0.399 0.265,-0.394C0.252,-0.389 0.24,-0.382 0.23,-0.373C0.22,-0.364 0.212,-0.354 0.206,-0.343C0.2,-0.331 0.197,-0.319 0.196,-0.306L0.407,-0.306ZM0.558,-0.243L0.558,-0.223C0.558,-0.216 0.558,-0.21 0.557,-0.204L0.196,-0.204C0.197,-0.19 0.202,-0.177 0.209,-0.166C0.216,-0.155 0.225,-0.145 0.236,-0.137C0.247,-0.128 0.259,-0.122 0.273,-0.117C0.286,-0.112 0.3,-0.11 0.315,-0.11C0.341,-0.11 0.363,-0.115 0.381,-0.125C0.399,-0.134 0.414,-0.147 0.425,-0.162L0.539,-0.09C0.516,-0.056 0.485,-0.03 0.447,-0.012C0.408,0.007 0.364,0.016 0.313,0.016C0.276,0.016 0.24,0.01 0.207,-0.002C0.174,-0.013 0.145,-0.03 0.12,-0.053C0.095,-0.075 0.075,-0.102 0.061,-0.135C0.046,-0.168 0.039,-0.205 0.039,-0.247C0.039,-0.288 0.046,-0.325 0.06,-0.358C0.074,-0.391 0.093,-0.419 0.117,-0.442C0.141,-0.464 0.169,-0.482 0.202,-0.495C0.235,-0.508 0.27,-0.514 0.308,-0.514C0.345,-0.514 0.378,-0.508 0.409,-0.496C0.44,-0.483 0.466,-0.465 0.488,-0.442C0.51,-0.419 0.527,-0.39 0.54,-0.357C0.552,-0.324 0.558,-0.286 0.558,-0.243Z" style="fill:rgb(0,10,33);fill-rule:nonzero;"/>
            </g>
            <g transform="matrix(60.1507,0,0,60.1507,3316.66,668.748)">
                <path d="M0.387,-0.364C0.38,-0.366 0.373,-0.367 0.366,-0.368C0.359,-0.369 0.352,-0.369 0.345,-0.369C0.323,-0.369 0.305,-0.365 0.29,-0.357C0.275,-0.349 0.263,-0.339 0.254,-0.328C0.245,-0.317 0.238,-0.304 0.234,-0.291C0.23,-0.278 0.228,-0.266 0.228,-0.256L0.228,-0L0.064,-0L0.064,-0.498L0.222,-0.498L0.222,-0.426L0.224,-0.426C0.237,-0.451 0.255,-0.472 0.278,-0.488C0.301,-0.504 0.328,-0.512 0.359,-0.512C0.366,-0.512 0.372,-0.512 0.379,-0.511C0.385,-0.51 0.39,-0.509 0.394,-0.508L0.387,-0.364Z" style="fill:rgb(0,10,33);fill-rule:nonzero;"/>
            </g>
            <g transform="matrix(60.1507,0,0,60.1507,3340.48,668.748)">
                <path d="M0.619,-0.251C0.619,-0.216 0.614,-0.183 0.603,-0.151C0.592,-0.119 0.577,-0.091 0.557,-0.067C0.536,-0.042 0.511,-0.023 0.482,-0.008C0.453,0.007 0.419,0.014 0.382,0.014C0.349,0.014 0.317,0.007 0.288,-0.007C0.258,-0.02 0.235,-0.04 0.219,-0.065L0.217,-0.065L0.217,-0L0.066,-0L0.066,-0.756L0.23,-0.756L0.23,-0.445L0.232,-0.445C0.246,-0.462 0.266,-0.477 0.291,-0.491C0.316,-0.505 0.347,-0.512 0.384,-0.512C0.42,-0.512 0.452,-0.505 0.482,-0.491C0.511,-0.477 0.535,-0.458 0.556,-0.434C0.576,-0.41 0.592,-0.382 0.603,-0.351C0.614,-0.319 0.619,-0.286 0.619,-0.251ZM0.461,-0.251C0.461,-0.267 0.459,-0.283 0.454,-0.298C0.448,-0.313 0.441,-0.327 0.431,-0.339C0.421,-0.35 0.409,-0.36 0.394,-0.367C0.379,-0.374 0.362,-0.378 0.343,-0.378C0.324,-0.378 0.308,-0.374 0.293,-0.367C0.278,-0.36 0.266,-0.35 0.256,-0.338C0.245,-0.326 0.237,-0.312 0.232,-0.297C0.226,-0.282 0.223,-0.266 0.223,-0.25C0.223,-0.234 0.226,-0.218 0.232,-0.203C0.237,-0.188 0.245,-0.174 0.256,-0.162C0.266,-0.15 0.278,-0.14 0.293,-0.133C0.308,-0.126 0.324,-0.122 0.343,-0.122C0.362,-0.122 0.379,-0.126 0.394,-0.133C0.409,-0.14 0.421,-0.15 0.431,-0.162C0.441,-0.174 0.448,-0.188 0.454,-0.204C0.459,-0.219 0.461,-0.235 0.461,-0.251Z" style="fill:rgb(0,10,33);fill-rule:nonzero;"/>
            </g>
            <g transform="matrix(60.1507,0,0,60.1507,3380.12,668.748)">
                <path d="M0.592,-0.251C0.592,-0.21 0.585,-0.173 0.57,-0.141C0.555,-0.108 0.535,-0.08 0.51,-0.057C0.485,-0.034 0.455,-0.016 0.422,-0.003C0.389,0.01 0.353,0.016 0.315,0.016C0.278,0.016 0.242,0.01 0.209,-0.003C0.175,-0.016 0.146,-0.034 0.121,-0.057C0.095,-0.08 0.076,-0.108 0.061,-0.141C0.046,-0.173 0.039,-0.21 0.039,-0.251C0.039,-0.292 0.046,-0.328 0.061,-0.361C0.076,-0.394 0.095,-0.421 0.121,-0.444C0.146,-0.467 0.175,-0.484 0.209,-0.496C0.242,-0.508 0.278,-0.514 0.315,-0.514C0.353,-0.514 0.389,-0.508 0.422,-0.496C0.455,-0.484 0.485,-0.467 0.51,-0.444C0.535,-0.421 0.555,-0.394 0.57,-0.361C0.585,-0.328 0.592,-0.292 0.592,-0.251ZM0.434,-0.251C0.434,-0.267 0.431,-0.283 0.426,-0.298C0.421,-0.313 0.413,-0.327 0.403,-0.339C0.393,-0.35 0.381,-0.36 0.366,-0.367C0.351,-0.374 0.334,-0.378 0.315,-0.378C0.296,-0.378 0.279,-0.374 0.264,-0.367C0.249,-0.36 0.237,-0.35 0.228,-0.339C0.218,-0.327 0.211,-0.313 0.206,-0.298C0.201,-0.283 0.198,-0.267 0.198,-0.251C0.198,-0.235 0.201,-0.219 0.206,-0.204C0.211,-0.189 0.218,-0.175 0.228,-0.163C0.238,-0.15 0.25,-0.14 0.265,-0.133C0.28,-0.126 0.297,-0.122 0.316,-0.122C0.335,-0.122 0.352,-0.126 0.367,-0.133C0.382,-0.14 0.394,-0.15 0.404,-0.163C0.414,-0.175 0.422,-0.189 0.427,-0.204C0.432,-0.219 0.434,-0.235 0.434,-0.251Z" style="fill:rgb(0,10,33);fill-rule:nonzero;"/>
            </g>
            <g transform="matrix(60.1507,0,0,60.1507,3418.14,668.748)">
                <path d="M0.358,-0.217L0.337,-0.217C0.319,-0.217 0.301,-0.216 0.283,-0.215C0.264,-0.213 0.248,-0.21 0.234,-0.205C0.219,-0.2 0.207,-0.194 0.198,-0.185C0.189,-0.175 0.184,-0.164 0.184,-0.149C0.184,-0.14 0.186,-0.132 0.191,-0.125C0.195,-0.118 0.2,-0.113 0.207,-0.109C0.214,-0.105 0.221,-0.102 0.23,-0.101C0.239,-0.099 0.247,-0.098 0.255,-0.098C0.288,-0.098 0.314,-0.107 0.332,-0.126C0.349,-0.144 0.358,-0.169 0.358,-0.2L0.358,-0.217ZM0.057,-0.43C0.086,-0.458 0.121,-0.479 0.16,-0.493C0.199,-0.507 0.238,-0.514 0.279,-0.514C0.321,-0.514 0.357,-0.509 0.386,-0.499C0.415,-0.488 0.438,-0.472 0.456,-0.451C0.474,-0.429 0.487,-0.401 0.496,-0.369C0.504,-0.335 0.508,-0.296 0.508,-0.251L0.508,-0L0.358,-0L0.358,-0.053L0.355,-0.053C0.342,-0.032 0.323,-0.016 0.298,-0.005C0.272,0.006 0.244,0.012 0.214,0.012C0.194,0.012 0.173,0.009 0.152,0.004C0.131,-0.001 0.111,-0.01 0.094,-0.022C0.076,-0.034 0.061,-0.05 0.05,-0.07C0.039,-0.09 0.033,-0.115 0.033,-0.144C0.033,-0.18 0.043,-0.209 0.063,-0.231C0.082,-0.253 0.108,-0.27 0.139,-0.282C0.169,-0.294 0.204,-0.302 0.242,-0.306C0.28,-0.31 0.317,-0.312 0.353,-0.312L0.353,-0.32C0.353,-0.345 0.344,-0.363 0.327,-0.375C0.31,-0.386 0.288,-0.392 0.263,-0.392C0.24,-0.392 0.217,-0.387 0.196,-0.377C0.174,-0.367 0.155,-0.355 0.14,-0.341L0.057,-0.43Z" style="fill:rgb(0,10,33);fill-rule:nonzero;"/>
            </g>
            <g transform="matrix(60.1507,0,0,60.1507,3452.18,668.748)">
                <path d="M0.387,-0.364C0.38,-0.366 0.373,-0.367 0.366,-0.368C0.359,-0.369 0.352,-0.369 0.345,-0.369C0.323,-0.369 0.305,-0.365 0.29,-0.357C0.275,-0.349 0.263,-0.339 0.254,-0.328C0.245,-0.317 0.238,-0.304 0.234,-0.291C0.23,-0.278 0.228,-0.266 0.228,-0.256L0.228,-0L0.064,-0L0.064,-0.498L0.222,-0.498L0.222,-0.426L0.224,-0.426C0.237,-0.451 0.255,-0.472 0.278,-0.488C0.301,-0.504 0.328,-0.512 0.359,-0.512C0.366,-0.512 0.372,-0.512 0.379,-0.511C0.385,-0.51 0.39,-0.509 0.394,-0.508L0.387,-0.364Z" style="fill:rgb(0,10,33);fill-rule:nonzero;"/>
            </g>
            <g transform="matrix(60.1507,0,0,60.1507,3474.92,668.748)">
                <path d="M0.441,-0L0.441,-0.065L0.439,-0.065C0.423,-0.04 0.4,-0.02 0.371,-0.007C0.341,0.007 0.309,0.014 0.276,0.014C0.239,0.014 0.205,0.007 0.176,-0.008C0.147,-0.023 0.122,-0.042 0.102,-0.067C0.081,-0.091 0.066,-0.119 0.055,-0.151C0.044,-0.183 0.039,-0.216 0.039,-0.251C0.039,-0.286 0.045,-0.319 0.056,-0.351C0.067,-0.382 0.082,-0.41 0.103,-0.434C0.123,-0.458 0.148,-0.477 0.177,-0.491C0.206,-0.505 0.238,-0.512 0.274,-0.512C0.311,-0.512 0.342,-0.505 0.367,-0.491C0.392,-0.477 0.412,-0.462 0.426,-0.445L0.428,-0.445L0.428,-0.756L0.592,-0.756L0.592,-0L0.441,-0ZM0.435,-0.25C0.435,-0.266 0.432,-0.282 0.427,-0.297C0.421,-0.312 0.413,-0.326 0.403,-0.338C0.392,-0.35 0.38,-0.36 0.365,-0.367C0.35,-0.374 0.334,-0.378 0.315,-0.378C0.296,-0.378 0.279,-0.374 0.264,-0.367C0.249,-0.36 0.237,-0.35 0.227,-0.339C0.217,-0.327 0.21,-0.313 0.205,-0.298C0.2,-0.283 0.197,-0.267 0.197,-0.251C0.197,-0.235 0.2,-0.219 0.205,-0.204C0.21,-0.188 0.217,-0.174 0.227,-0.162C0.237,-0.15 0.249,-0.14 0.264,-0.133C0.279,-0.126 0.296,-0.122 0.315,-0.122C0.334,-0.122 0.35,-0.126 0.365,-0.133C0.38,-0.14 0.392,-0.15 0.403,-0.162C0.413,-0.174 0.421,-0.188 0.427,-0.203C0.432,-0.218 0.435,-0.234 0.435,-0.25Z" style="fill:rgb(0,10,33);fill-rule:nonzero;"/>
            </g>
        </g>
    </g>
</svg>
