<?xml version="1.0" encoding="UTF-8" standalone="no"?>
<!DOCTYPE svg PUBLIC "-//W3C//DTD SVG 1.1//EN" "http://www.w3.org/Graphics/SVG/1.1/DTD/svg11.dtd">
<svg width="100%" height="100%" viewBox="0 0 1920 1920" version="1.1" xmlns="http://www.w3.org/2000/svg" xmlns:xlink="http://www.w3.org/1999/xlink" xml:space="preserve" xmlns:serif="http://www.serif.com/" style="fill-rule:evenodd;clip-rule:evenodd;stroke-linejoin:round;stroke-miterlimit:2;">
    <g transform="matrix(1.19951,0,0,5.48586,-199.596,-3861.11)">
        <rect x="0" y="684.193" width="1920" height="395.807" style="fill:rgb(0,12,38);"/>
    </g>
    <g transform="matrix(-1.21444,0,0,-1,673.526,1026.83)">
        <path d="M387.315,842.517C387.249,842.349 386.498,840.41 386.498,840.41C391.288,833.225 381.601,850.56 389.899,851.746C402.93,853.608 411.557,840.776 410.304,838.52C407.606,833.665 398.263,837.658 387.254,840.41" style="fill:rgb(0,47,93);fill-opacity:0.38;"/>
    </g>
    <g transform="matrix(-1.21444,-2.59749e-16,2.33487e-16,-1,1949.91,1954.63)">
        <path d="M387.315,842.517C387.249,842.349 386.498,840.41 386.498,840.41C391.288,833.225 381.601,850.56 389.899,851.746C402.93,853.608 411.557,840.776 410.304,838.52C407.606,833.665 398.263,837.658 387.254,840.41" style="fill:rgb(0,47,93);fill-opacity:0.38;"/>
    </g>
    <g transform="matrix(1.21444,0,0,1,413.001,-748.145)">
        <path d="M387.315,842.517C387.249,842.349 386.498,840.41 386.498,840.41C391.288,833.225 381.601,850.56 389.899,851.746C402.93,853.608 411.557,840.776 410.304,838.52C407.606,833.665 398.263,837.658 387.254,840.41" style="fill:rgb(0,47,93);fill-opacity:0.38;"/>
    </g>
    <g transform="matrix(-1.21444,-1.11022e-16,1.11022e-16,-1,2130.27,1335.65)">
        <path d="M387.315,842.517C387.249,842.349 386.498,840.41 386.498,840.41C391.288,833.225 381.601,850.56 389.899,851.746C402.93,853.608 411.557,840.776 410.304,838.52C407.606,833.665 398.263,837.658 387.254,840.41" style="fill:rgb(0,47,93);fill-opacity:0.38;"/>
    </g>
    <g transform="matrix(-1.21444,-1.11022e-16,1.11022e-16,-1,1248.21,2676.64)">
        <path d="M387.315,842.517C387.249,842.349 386.498,840.41 386.498,840.41C391.288,833.225 381.601,850.56 389.899,851.746C402.93,853.608 411.557,840.776 410.304,838.52C407.606,833.665 398.263,837.658 387.254,840.41" style="fill:rgb(0,47,93);fill-opacity:0.38;"/>
    </g>
    <g transform="matrix(1.21444,2.45853e-16,-2.22045e-16,1,-411.304,-309.933)">
        <path d="M387.315,842.517C387.249,842.349 386.498,840.41 386.498,840.41C391.288,833.225 381.601,850.56 389.899,851.746C402.93,853.608 411.557,840.776 410.304,838.52C407.606,833.665 398.263,837.658 387.254,840.41" style="fill:rgb(0,47,93);fill-opacity:0.38;"/>
    </g>
    <g transform="matrix(1.21444,5.55112e-17,-5.55112e-17,1,128.759,626.889)">
        <path d="M387.315,842.517C387.249,842.349 386.498,840.41 386.498,840.41C391.288,833.225 381.601,850.56 389.899,851.746C402.93,853.608 411.557,840.776 410.304,838.52C407.606,833.665 398.263,837.658 387.254,840.41" style="fill:rgb(0,47,93);fill-opacity:0.38;"/>
    </g>
    <g transform="matrix(-1.21444,-3.80683e-16,3.33067e-16,-1,2270.66,1624.4)">
        <path d="M387.315,842.517C387.249,842.349 386.498,840.41 386.498,840.41C391.288,833.225 381.601,850.56 389.899,851.746C402.93,853.608 411.557,840.776 410.304,838.52C407.606,833.665 398.263,837.658 387.254,840.41" style="fill:rgb(0,47,93);fill-opacity:0.38;"/>
    </g>
    <g transform="matrix(-1.21444,-5.55112e-17,1.38778e-16,-1,1749.25,2426.78)">
        <path d="M387.315,842.517C387.249,842.349 386.498,840.41 386.498,840.41C391.288,833.225 381.601,850.56 389.899,851.746C402.93,853.608 411.557,840.776 410.304,838.52C407.606,833.665 398.263,837.658 387.254,840.41" style="fill:rgb(0,47,93);fill-opacity:0.38;"/>
    </g>
    <g transform="matrix(1.21444,5.15513e-16,-4.44089e-16,1,-158.031,22.6)">
        <path d="M387.315,842.517C387.249,842.349 386.498,840.41 386.498,840.41C391.288,833.225 381.601,850.56 389.899,851.746C402.93,853.608 411.557,840.776 410.304,838.52C407.606,833.665 398.263,837.658 387.254,840.41" style="fill:rgb(0,47,93);fill-opacity:0.38;"/>
    </g>
    <g transform="matrix(-1.21444,-1.52711e-16,1.45349e-16,-1,1444.51,2144.18)">
        <path d="M387.315,842.517C387.249,842.349 386.498,840.41 386.498,840.41C391.288,833.225 381.601,850.56 389.899,851.746C402.93,853.608 411.557,840.776 410.304,838.52C407.606,833.665 398.263,837.658 387.254,840.41" style="fill:rgb(0,47,93);fill-opacity:0.38;"/>
    </g>
    <g transform="matrix(-1.21444,0,0,-1,1871.07,922.291)">
        <path d="M387.315,842.517C387.249,842.349 386.498,840.41 386.498,840.41C391.288,833.225 381.601,850.56 389.899,851.746C402.93,853.608 411.557,840.776 410.304,838.52C407.606,833.665 398.263,837.658 387.254,840.41" style="fill:rgb(0,47,93);fill-opacity:0.38;"/>
    </g>
    <g transform="matrix(1.21444,1.11022e-16,-1.11022e-16,1,672.196,-334.789)">
        <path d="M387.315,842.517C387.249,842.349 386.498,840.41 386.498,840.41C391.288,833.225 381.601,850.56 389.899,851.746C402.93,853.608 411.557,840.776 410.304,838.52C407.606,833.665 398.263,837.658 387.254,840.41" style="fill:rgb(0,47,93);fill-opacity:0.38;"/>
    </g>
    <g transform="matrix(1.21444,1.11022e-16,-1.11022e-16,1,-209.864,1006.21)">
        <path d="M387.315,842.517C387.249,842.349 386.498,840.41 386.498,840.41C391.288,833.225 381.601,850.56 389.899,851.746C402.93,853.608 411.557,840.776 410.304,838.52C407.606,833.665 398.263,837.658 387.254,840.41" style="fill:rgb(0,47,93);fill-opacity:0.38;"/>
    </g>
    <g transform="matrix(-1.21444,-2.45853e-16,2.22045e-16,-1,1046.77,1360.5)">
        <path d="M387.315,842.517C387.249,842.349 386.498,840.41 386.498,840.41C391.288,833.225 381.601,850.56 389.899,851.746C402.93,853.608 411.557,840.776 410.304,838.52C407.606,833.665 398.263,837.658 387.254,840.41" style="fill:rgb(0,47,93);fill-opacity:0.38;"/>
    </g>
    <g transform="matrix(1.21444,9.71262e-17,-9.95799e-17,1,-124.89,772.407)">
        <path d="M387.315,842.517C387.249,842.349 386.498,840.41 386.498,840.41C391.288,833.225 381.601,850.56 389.899,851.746C402.93,853.608 411.557,840.776 410.304,838.52C407.606,833.665 398.263,837.658 387.254,840.41" style="fill:rgb(0,47,93);fill-opacity:0.38;"/>
    </g>
    <g transform="matrix(1.21444,3.80683e-16,-3.33067e-16,1,1019.43,14.7634)">
        <path d="M387.315,842.517C387.249,842.349 386.498,840.41 386.498,840.41C391.288,833.225 381.601,850.56 389.899,851.746C402.93,853.608 411.557,840.776 410.304,838.52C407.606,833.665 398.263,837.658 387.254,840.41" style="fill:rgb(0,47,93);fill-opacity:0.38;"/>
    </g>
    <g transform="matrix(1.21444,3.80683e-16,-3.33067e-16,1,1301,613.535)">
        <path d="M387.315,842.517C387.249,842.349 386.498,840.41 386.498,840.41C391.288,833.225 381.601,850.56 389.899,851.746C402.93,853.608 411.557,840.776 410.304,838.52C407.606,833.665 398.263,837.658 387.254,840.41" style="fill:rgb(0,47,93);fill-opacity:0.38;"/>
    </g>
    <g transform="matrix(-1.21444,-5.29409e-16,4.55532e-16,-1,2259.68,2055.43)">
        <path d="M387.315,842.517C387.249,842.349 386.498,840.41 386.498,840.41C391.288,833.225 381.601,850.56 389.899,851.746C402.93,853.608 411.557,840.776 410.304,838.52C407.606,833.665 398.263,837.658 387.254,840.41" style="fill:rgb(0,47,93);fill-opacity:0.38;"/>
    </g>
    <g transform="matrix(-1.21444,-5.15513e-16,4.44089e-16,-1,1300.04,1693.04)">
        <path d="M387.315,842.517C387.249,842.349 386.498,840.41 386.498,840.41C391.288,833.225 381.601,850.56 389.899,851.746C402.93,853.608 411.557,840.776 410.304,838.52C407.606,833.665 398.263,837.658 387.254,840.41" style="fill:rgb(0,47,93);fill-opacity:0.38;"/>
    </g>
    <g transform="matrix(1.21444,1.52711e-16,-1.45349e-16,1,-13.5608,473.746)">
        <path d="M387.315,842.517C387.249,842.349 386.498,840.41 386.498,840.41C391.288,833.225 381.601,850.56 389.899,851.746C402.93,853.608 411.557,840.776 410.304,838.52C407.606,833.665 398.263,837.658 387.254,840.41" style="fill:rgb(0,47,93);fill-opacity:0.38;"/>
    </g>
    <g transform="matrix(1.21444,0,0,1,1279.22,-638.667)">
        <path d="M387.315,842.517C387.249,842.349 386.498,840.41 386.498,840.41C391.288,833.225 381.601,850.56 389.899,851.746C402.93,853.608 411.557,840.776 410.304,838.52C407.606,833.665 398.263,837.658 387.254,840.41" style="fill:rgb(0,47,93);fill-opacity:0.38;"/>
    </g>
    <g transform="matrix(1.21444,0,0,1,1121.31,764.571)">
        <path d="M387.315,842.517C387.249,842.349 386.498,840.41 386.498,840.41C391.288,833.225 381.601,850.56 389.899,851.746C402.93,853.608 411.557,840.776 410.304,838.52C407.606,833.665 398.263,837.658 387.254,840.41" style="fill:rgb(0,47,93);fill-opacity:0.38;"/>
    </g>
    <g transform="matrix(-1.21444,-1.11022e-16,1.11022e-16,-1,1264.05,1226.17)">
        <path d="M387.315,842.517C387.249,842.349 386.498,840.41 386.498,840.41C391.288,833.225 381.601,850.56 389.899,851.746C402.93,853.608 411.557,840.776 410.304,838.52C407.606,833.665 398.263,837.658 387.254,840.41" style="fill:rgb(0,47,93);fill-opacity:0.38;"/>
    </g>
    <g transform="matrix(1.21444,2.45853e-16,-2.22045e-16,1,454.914,-200.455)">
        <path d="M387.315,842.517C387.249,842.349 386.498,840.41 386.498,840.41C391.288,833.225 381.601,850.56 389.899,851.746C402.93,853.608 411.557,840.776 410.304,838.52C407.606,833.665 398.263,837.658 387.254,840.41" style="fill:rgb(0,47,93);fill-opacity:0.38;"/>
    </g>
    <g transform="matrix(-1.21444,-3.80683e-16,3.33067e-16,-1,1699.84,1511.19)">
        <path d="M387.315,842.517C387.249,842.349 386.498,840.41 386.498,840.41C391.288,833.225 381.601,850.56 389.899,851.746C402.93,853.608 411.557,840.776 410.304,838.52C407.606,833.665 398.263,837.658 387.254,840.41" style="fill:rgb(0,47,93);fill-opacity:0.38;"/>
    </g>
    <g transform="matrix(1.21444,5.15513e-16,-4.44089e-16,1,708.186,132.078)">
        <path d="M387.315,842.517C387.249,842.349 386.498,840.41 386.498,840.41C391.288,833.225 381.601,850.56 389.899,851.746C402.93,853.608 411.557,840.776 410.304,838.52C407.606,833.665 398.263,837.658 387.254,840.41" style="fill:rgb(0,47,93);fill-opacity:0.38;"/>
    </g>
    <g transform="matrix(-1.21444,-1.52711e-16,1.45349e-16,-1,578.292,2034.7)">
        <path d="M387.315,842.517C387.249,842.349 386.498,840.41 386.498,840.41C391.288,833.225 381.601,850.56 389.899,851.746C402.93,853.608 411.557,840.776 410.304,838.52C407.606,833.665 398.263,837.658 387.254,840.41" style="fill:rgb(0,47,93);fill-opacity:0.38;"/>
    </g>
    <g transform="matrix(-1.21444,0,0,-1,1535.88,971.56)">
        <path d="M387.315,842.517C387.249,842.349 386.498,840.41 386.498,840.41C391.288,833.225 381.601,850.56 389.899,851.746C402.93,853.608 411.557,840.776 410.304,838.52C407.606,833.665 398.263,837.658 387.254,840.41" style="fill:rgb(0,47,93);fill-opacity:0.38;"/>
    </g>
    <g transform="matrix(1.21444,1.11022e-16,-1.11022e-16,1,1007.38,-384.058)">
        <path d="M387.315,842.517C387.249,842.349 386.498,840.41 386.498,840.41C391.288,833.225 381.601,850.56 389.899,851.746C402.93,853.608 411.557,840.776 410.304,838.52C407.606,833.665 398.263,837.658 387.254,840.41" style="fill:rgb(0,47,93);fill-opacity:0.38;"/>
    </g>
    <g transform="matrix(1.21444,1.11022e-16,-1.11022e-16,1,125.323,956.939)">
        <path d="M387.315,842.517C387.249,842.349 386.498,840.41 386.498,840.41C391.288,833.225 381.601,850.56 389.899,851.746C402.93,853.608 411.557,840.776 410.304,838.52C407.606,833.665 398.263,837.658 387.254,840.41" style="fill:rgb(0,47,93);fill-opacity:0.38;"/>
    </g>
    <g transform="matrix(-1.21444,-2.45853e-16,2.22045e-16,-1,711.579,1409.77)">
        <path d="M387.315,842.517C387.249,842.349 386.498,840.41 386.498,840.41C391.288,833.225 381.601,850.56 389.899,851.746C402.93,853.608 411.557,840.776 410.304,838.52C407.606,833.665 398.263,837.658 387.254,840.41" style="fill:rgb(0,47,93);fill-opacity:0.38;"/>
    </g>
    <g transform="matrix(-1.21444,-5.55112e-17,5.55112e-17,-1,1251.64,2346.59)">
        <path d="M387.315,842.517C387.249,842.349 386.498,840.41 386.498,840.41C391.288,833.225 381.601,850.56 389.899,851.746C402.93,853.608 411.557,840.776 410.304,838.52C407.606,833.665 398.263,837.658 387.254,840.41" style="fill:rgb(0,47,93);fill-opacity:0.38;"/>
    </g>
    <g transform="matrix(1.21444,3.80683e-16,-3.33067e-16,1,1147.78,-95.3005)">
        <path d="M387.315,842.517C387.249,842.349 386.498,840.41 386.498,840.41C391.288,833.225 381.601,850.56 389.899,851.746C402.93,853.608 411.557,840.776 410.304,838.52C407.606,833.665 398.263,837.658 387.254,840.41" style="fill:rgb(0,47,93);fill-opacity:0.38;"/>
    </g>
    <g transform="matrix(1.21444,5.55112e-17,-1.38778e-16,1,626.366,707.072)">
        <path d="M387.315,842.517C387.249,842.349 386.498,840.41 386.498,840.41C391.288,833.225 381.601,850.56 389.899,851.746C402.93,853.608 411.557,840.776 410.304,838.52C407.606,833.665 398.263,837.658 387.254,840.41" style="fill:rgb(0,47,93);fill-opacity:0.38;"/>
    </g>
    <g transform="matrix(-1.21444,-5.15513e-16,4.44089e-16,-1,964.851,1742.31)">
        <path d="M387.315,842.517C387.249,842.349 386.498,840.41 386.498,840.41C391.288,833.225 381.601,850.56 389.899,851.746C402.93,853.608 411.557,840.776 410.304,838.52C407.606,833.665 398.263,837.658 387.254,840.41" style="fill:rgb(0,47,93);fill-opacity:0.38;"/>
    </g>
    <g transform="matrix(1.21444,1.52711e-16,-1.45349e-16,1,321.626,424.477)">
        <path d="M387.315,842.517C387.249,842.349 386.498,840.41 386.498,840.41C391.288,833.225 381.601,850.56 389.899,851.746C402.93,853.608 411.557,840.776 410.304,838.52C407.606,833.665 398.263,837.658 387.254,840.41" style="fill:rgb(0,47,93);fill-opacity:0.38;"/>
    </g>
    <g transform="matrix(1.21444,0,0,1,-163.029,-702.995)">
        <path d="M387.315,842.517C387.249,842.349 386.498,840.41 386.498,840.41C391.288,833.225 381.601,850.56 389.899,851.746C402.93,853.608 411.557,840.776 410.304,838.52C407.606,833.665 398.263,837.658 387.254,840.41" style="fill:rgb(0,47,93);fill-opacity:0.38;"/>
    </g>
    <g transform="matrix(-1.21444,-1.11022e-16,1.11022e-16,-1,894.973,1193.42)">
        <path d="M387.315,842.517C387.249,842.349 386.498,840.41 386.498,840.41C391.288,833.225 381.601,850.56 389.899,851.746C402.93,853.608 411.557,840.776 410.304,838.52C407.606,833.665 398.263,837.658 387.254,840.41" style="fill:rgb(0,47,93);fill-opacity:0.38;"/>
    </g>
    <g transform="matrix(-1.21444,-1.11022e-16,1.11022e-16,-1,1824.24,2631.49)">
        <path d="M387.315,842.517C387.249,842.349 386.498,840.41 386.498,840.41C391.288,833.225 381.601,850.56 389.899,851.746C402.93,853.608 411.557,840.776 410.304,838.52C407.606,833.665 398.263,837.658 387.254,840.41" style="fill:rgb(0,47,93);fill-opacity:0.38;"/>
    </g>
    <g transform="matrix(1.21444,2.59749e-16,-2.33487e-16,1,1113.35,224.812)">
        <path d="M387.315,842.517C387.249,842.349 386.498,840.41 386.498,840.41C391.288,833.225 381.601,850.56 389.899,851.746C402.93,853.608 411.557,840.776 410.304,838.52C407.606,833.665 398.263,837.658 387.254,840.41" style="fill:rgb(0,47,93);fill-opacity:0.38;"/>
    </g>
    <g transform="matrix(1.21444,0,0,1,-356.347,-784.956)">
        <path d="M387.315,842.517C387.249,842.349 386.498,840.41 386.498,840.41C391.288,833.225 381.601,850.56 389.899,851.746C402.93,853.608 411.557,840.776 410.304,838.52C407.606,833.665 398.263,837.658 387.254,840.41" style="fill:rgb(0,47,93);fill-opacity:0.38;"/>
    </g>
    <g transform="matrix(1.21444,2.59749e-16,-2.33487e-16,1,920.032,142.851)">
        <path d="M387.315,842.517C387.249,842.349 386.498,840.41 386.498,840.41C391.288,833.225 381.601,850.56 389.899,851.746C402.93,853.608 411.557,840.776 410.304,838.52C407.606,833.665 398.263,837.658 387.254,840.41" style="fill:rgb(0,47,93);fill-opacity:0.38;"/>
    </g>
    <g transform="matrix(1.21444,0,0,1,154.867,-615.044)">
        <path d="M387.315,842.517C387.249,842.349 386.498,840.41 386.498,840.41C391.288,833.225 381.601,850.56 389.899,851.746C402.93,853.608 411.557,840.776 410.304,838.52C407.606,833.665 398.263,837.658 387.254,840.41" style="fill:rgb(0,47,93);fill-opacity:0.38;"/>
    </g>
    <g transform="matrix(-1.21444,-1.11022e-16,1.11022e-16,-1,2295.35,1181.58)">
        <path d="M387.315,842.517C387.249,842.349 386.498,840.41 386.498,840.41C391.288,833.225 381.601,850.56 389.899,851.746C402.93,853.608 411.557,840.776 410.304,838.52C407.606,833.665 398.263,837.658 387.254,840.41" style="fill:rgb(0,47,93);fill-opacity:0.38;"/>
    </g>
    <g transform="matrix(-1.21444,-1.11022e-16,1.11022e-16,-1,2218.79,2639.84)">
        <path d="M387.315,842.517C387.249,842.349 386.498,840.41 386.498,840.41C391.288,833.225 381.601,850.56 389.899,851.746C402.93,853.608 411.557,840.776 410.304,838.52C407.606,833.665 398.263,837.658 387.254,840.41" style="fill:rgb(0,47,93);fill-opacity:0.38;"/>
    </g>
    <g transform="matrix(-1.21444,-1.11022e-16,1.11022e-16,-1,1506.34,2543.54)">
        <path d="M387.315,842.517C387.249,842.349 386.498,840.41 386.498,840.41C391.288,833.225 381.601,850.56 389.899,851.746C402.93,853.608 411.557,840.776 410.304,838.52C407.606,833.665 398.263,837.658 387.254,840.41" style="fill:rgb(0,47,93);fill-opacity:0.38;"/>
    </g>
    <g transform="matrix(-1.21444,-9.71262e-17,9.95799e-17,-1,1893,2197.94)">
        <path d="M387.315,842.517C387.249,842.349 386.498,840.41 386.498,840.41C391.288,833.225 381.601,850.56 389.899,851.746C402.93,853.608 411.557,840.776 410.304,838.52C407.606,833.665 398.263,837.658 387.254,840.41" style="fill:rgb(0,47,93);fill-opacity:0.38;"/>
    </g>
    <g transform="matrix(1.21444,5.15513e-16,-4.44089e-16,1,-356.307,110.551)">
        <path d="M387.315,842.517C387.249,842.349 386.498,840.41 386.498,840.41C391.288,833.225 381.601,850.56 389.899,851.746C402.93,853.608 411.557,840.776 410.304,838.52C407.606,833.665 398.263,837.658 387.254,840.41" style="fill:rgb(0,47,93);fill-opacity:0.38;"/>
    </g>
    <g transform="matrix(-1.21444,-1.52711e-16,1.45349e-16,-1,1702.64,2011.08)">
        <path d="M387.315,842.517C387.249,842.349 386.498,840.41 386.498,840.41C391.288,833.225 381.601,850.56 389.899,851.746C402.93,853.608 411.557,840.776 410.304,838.52C407.606,833.665 398.263,837.658 387.254,840.41" style="fill:rgb(0,47,93);fill-opacity:0.38;"/>
    </g>
    <g transform="matrix(-1.21444,0,0,1,1981.8,-585.093)">
        <path d="M387.315,842.517C387.249,842.349 386.498,840.41 386.498,840.41C391.288,833.225 381.601,850.56 389.899,851.746C402.93,853.608 411.557,840.776 410.304,838.52C407.606,833.665 398.263,837.658 387.254,840.41" style="fill:rgb(0,47,93);fill-opacity:0.38;"/>
    </g>
    <g transform="matrix(1.21444,1.11022e-16,1.11022e-16,-1,561.472,1172.6)">
        <path d="M387.315,842.517C387.249,842.349 386.498,840.41 386.498,840.41C391.288,833.225 381.601,850.56 389.899,851.746C402.93,853.608 411.557,840.776 410.304,838.52C407.606,833.665 398.263,837.658 387.254,840.41" style="fill:rgb(0,47,93);fill-opacity:0.38;"/>
    </g>
    <g transform="matrix(-1.21444,-2.45853e-16,-2.22045e-16,1,1157.49,-146.881)">
        <path d="M387.315,842.517C387.249,842.349 386.498,840.41 386.498,840.41C391.288,833.225 381.601,850.56 389.899,851.746C402.93,853.608 411.557,840.776 410.304,838.52C407.606,833.665 398.263,837.658 387.254,840.41" style="fill:rgb(0,47,93);fill-opacity:0.38;"/>
    </g>
    <g transform="matrix(1.21444,9.71262e-17,9.95799e-17,-1,-235.614,2279.79)">
        <path d="M387.315,842.517C387.249,842.349 386.498,840.41 386.498,840.41C391.288,833.225 381.601,850.56 389.899,851.746C402.93,853.608 411.557,840.776 410.304,838.52C407.606,833.665 398.263,837.658 387.254,840.41" style="fill:rgb(0,47,93);fill-opacity:0.38;"/>
    </g>
    <g transform="matrix(1.21444,3.80683e-16,3.33067e-16,-1,908.706,1522.15)">
        <path d="M387.315,842.517C387.249,842.349 386.498,840.41 386.498,840.41C391.288,833.225 381.601,850.56 389.899,851.746C402.93,853.608 411.557,840.776 410.304,838.52C407.606,833.665 398.263,837.658 387.254,840.41" style="fill:rgb(0,47,93);fill-opacity:0.38;"/>
    </g>
    <g transform="matrix(-1.21444,-5.15513e-16,-4.44089e-16,1,1410.76,185.652)">
        <path d="M387.315,842.517C387.249,842.349 386.498,840.41 386.498,840.41C391.288,833.225 381.601,850.56 389.899,851.746C402.93,853.608 411.557,840.776 410.304,838.52C407.606,833.665 398.263,837.658 387.254,840.41" style="fill:rgb(0,47,93);fill-opacity:0.38;"/>
    </g>
    <g transform="matrix(1.21444,1.52711e-16,1.45349e-16,-1,-124.285,1981.13)">
        <path d="M387.315,842.517C387.249,842.349 386.498,840.41 386.498,840.41C391.288,833.225 381.601,850.56 389.899,851.746C402.93,853.608 411.557,840.776 410.304,838.52C407.606,833.665 398.263,837.658 387.254,840.41" style="fill:rgb(0,47,93);fill-opacity:0.38;"/>
    </g>
    <g transform="matrix(-1.6545,0,0,1,1323.97,-668.982)">
        <path d="M387.315,842.517C387.249,842.349 386.498,840.41 386.498,840.41C391.288,833.225 381.601,850.56 389.899,851.746C402.93,853.608 411.557,840.776 410.304,838.52C407.606,833.665 398.263,837.658 387.254,840.41" style="fill:rgb(0,47,93);fill-opacity:0.38;"/>
    </g>
    <g transform="matrix(1.6545,1.66533e-16,1.11022e-16,-1,1126.25,1235.52)">
        <path d="M387.315,842.517C387.249,842.349 386.498,840.41 386.498,840.41C391.288,833.225 381.601,850.56 389.899,851.746C402.93,853.608 411.557,840.776 410.304,838.52C407.606,833.665 398.263,837.658 387.254,840.41" style="fill:rgb(0,47,93);fill-opacity:0.38;"/>
    </g>
    <g transform="matrix(1.6545,1.66533e-16,1.11022e-16,-1,1049.69,2693.78)">
        <path d="M387.315,842.517C387.249,842.349 386.498,840.41 386.498,840.41C391.288,833.225 381.601,850.56 389.899,851.746C402.93,853.608 411.557,840.776 410.304,838.52C407.606,833.665 398.263,837.658 387.254,840.41" style="fill:rgb(0,47,93);fill-opacity:0.38;"/>
    </g>
    <g transform="matrix(1.6545,1.66533e-16,1.11022e-16,-1,337.241,2597.48)">
        <path d="M387.315,842.517C387.249,842.349 386.498,840.41 386.498,840.41C391.288,833.225 381.601,850.56 389.899,851.746C402.93,853.608 411.557,840.776 410.304,838.52C407.606,833.665 398.263,837.658 387.254,840.41" style="fill:rgb(0,47,93);fill-opacity:0.38;"/>
    </g>
    <g transform="matrix(1.6545,1.47602e-16,9.95799e-17,-1,723.9,2251.87)">
        <path d="M387.315,842.517C387.249,842.349 386.498,840.41 386.498,840.41C391.288,833.225 381.601,850.56 389.899,851.746C402.93,853.608 411.557,840.776 410.304,838.52C407.606,833.665 398.263,837.658 387.254,840.41" style="fill:rgb(0,47,93);fill-opacity:0.38;"/>
    </g>
    <g transform="matrix(-1.6545,-7.17592e-16,-4.44089e-16,1,812.793,56.613)">
        <path d="M387.315,842.517C387.249,842.349 386.498,840.41 386.498,840.41C391.288,833.225 381.601,850.56 389.899,851.746C402.93,853.608 411.557,840.776 410.304,838.52C407.606,833.665 398.263,837.658 387.254,840.41" style="fill:rgb(0,47,93);fill-opacity:0.38;"/>
    </g>
    <g transform="matrix(1.6545,2.23328e-16,1.45349e-16,-1,533.544,2065.02)">
        <path d="M387.315,842.517C387.249,842.349 386.498,840.41 386.498,840.41C391.288,833.225 381.601,850.56 389.899,851.746C402.93,853.608 411.557,840.776 410.304,838.52C407.606,833.665 398.263,837.658 387.254,840.41" style="fill:rgb(0,47,93);fill-opacity:0.38;"/>
    </g>
    <g transform="matrix(1.6545,0,0,1,812.696,-639.031)">
        <path d="M387.315,842.517C387.249,842.349 386.498,840.41 386.498,840.41C391.288,833.225 381.601,850.56 389.899,851.746C402.93,853.608 411.557,840.776 410.304,838.52C407.606,833.665 398.263,837.658 387.254,840.41" style="fill:rgb(0,47,93);fill-opacity:0.38;"/>
    </g>
    <g transform="matrix(-1.6545,-1.66533e-16,1.11022e-16,-1,1730.57,1226.53)">
        <path d="M387.315,842.517C387.249,842.349 386.498,840.41 386.498,840.41C391.288,833.225 381.601,850.56 389.899,851.746C402.93,853.608 411.557,840.776 410.304,838.52C407.606,833.665 398.263,837.658 387.254,840.41" style="fill:rgb(0,47,93);fill-opacity:0.38;"/>
    </g>
    <g transform="matrix(-1.6545,-1.66533e-16,1.11022e-16,-1,848.511,2567.53)">
        <path d="M387.315,842.517C387.249,842.349 386.498,840.41 386.498,840.41C391.288,833.225 381.601,850.56 389.899,851.746C402.93,853.608 411.557,840.776 410.304,838.52C407.606,833.665 398.263,837.658 387.254,840.41" style="fill:rgb(0,47,93);fill-opacity:0.38;"/>
    </g>
    <g transform="matrix(1.6545,3.5022e-16,-2.22045e-16,1,-11.6089,-200.819)">
        <path d="M387.315,842.517C387.249,842.349 386.498,840.41 386.498,840.41C391.288,833.225 381.601,850.56 389.899,851.746C402.93,853.608 411.557,840.776 410.304,838.52C407.606,833.665 398.263,837.658 387.254,840.41" style="fill:rgb(0,47,93);fill-opacity:0.38;"/>
    </g>
    <g transform="matrix(-1.6545,-1.47602e-16,9.95799e-17,-1,933.485,2333.73)">
        <path d="M387.315,842.517C387.249,842.349 386.498,840.41 386.498,840.41C391.288,833.225 381.601,850.56 389.899,851.746C402.93,853.608 411.557,840.776 410.304,838.52C407.606,833.665 398.263,837.658 387.254,840.41" style="fill:rgb(0,47,93);fill-opacity:0.38;"/>
    </g>
    <g transform="matrix(-1.6545,-5.33906e-16,3.33067e-16,-1,2077.81,1576.09)">
        <path d="M387.315,842.517C387.249,842.349 386.498,840.41 386.498,840.41C391.288,833.225 381.601,850.56 389.899,851.746C402.93,853.608 411.557,840.776 410.304,838.52C407.606,833.665 398.263,837.658 387.254,840.41" style="fill:rgb(0,47,93);fill-opacity:0.38;"/>
    </g>
    <g transform="matrix(1.6545,7.17592e-16,-4.44089e-16,1,241.663,131.714)">
        <path d="M387.315,842.517C387.249,842.349 386.498,840.41 386.498,840.41C391.288,833.225 381.601,850.56 389.899,851.746C402.93,853.608 411.557,840.776 410.304,838.52C407.606,833.665 398.263,837.658 387.254,840.41" style="fill:rgb(0,47,93);fill-opacity:0.38;"/>
    </g>
    <g transform="matrix(-1.6545,-2.23328e-16,1.45349e-16,-1,1044.81,2035.07)">
        <path d="M387.315,842.517C387.249,842.349 386.498,840.41 386.498,840.41C391.288,833.225 381.601,850.56 389.899,851.746C402.93,853.608 411.557,840.776 410.304,838.52C407.606,833.665 398.263,837.658 387.254,840.41" style="fill:rgb(0,47,93);fill-opacity:0.38;"/>
    </g>
    <g transform="matrix(1,0,0,1,37.2135,-702.232)">
        <path d="M590.781,908.249C590.751,908.359 590.692,908.693 590.692,908.579C590.692,900.78 540.647,912.212 540.358,915.104C539.956,919.123 540.275,930.233 590.692,919.205C601.825,916.769 596.131,910.612 594.979,906.528" style="fill:rgb(0,47,93);fill-opacity:0.38;"/>
    </g>
    <g transform="matrix(-1,-1.11022e-16,1.11022e-16,-1,2413,1268.77)">
        <path d="M590.781,908.249C590.751,908.359 590.692,908.693 590.692,908.579C590.692,900.78 540.647,912.212 540.358,915.104C539.956,919.123 540.275,930.233 590.692,919.205C601.825,916.769 596.131,910.612 594.979,906.528" style="fill:rgb(0,47,93);fill-opacity:0.38;"/>
    </g>
    <g transform="matrix(-1,-1.11022e-16,1.11022e-16,-1,2336.44,2727.03)">
        <path d="M590.781,908.249C590.751,908.359 590.692,908.693 590.692,908.579C590.692,900.78 540.647,912.212 540.358,915.104C539.956,919.123 540.275,930.233 590.692,919.205C601.825,916.769 596.131,910.612 594.979,906.528" style="fill:rgb(0,47,93);fill-opacity:0.38;"/>
    </g>
    <g transform="matrix(-1,-1.11022e-16,1.11022e-16,-1,1623.99,2630.73)">
        <path d="M590.781,908.249C590.751,908.359 590.692,908.693 590.692,908.579C590.692,900.78 540.647,912.212 540.358,915.104C539.956,919.123 540.275,930.233 590.692,919.205C601.825,916.769 596.131,910.612 594.979,906.528" style="fill:rgb(0,47,93);fill-opacity:0.38;"/>
    </g>
    <g transform="matrix(-1,-9.95799e-17,9.95799e-17,-1,2010.65,2285.12)">
        <path d="M590.781,908.249C590.751,908.359 590.692,908.693 590.692,908.579C590.692,900.78 540.647,912.212 540.358,915.104C539.956,919.123 540.275,930.233 590.692,919.205C601.825,916.769 596.131,910.612 594.979,906.528" style="fill:rgb(0,47,93);fill-opacity:0.38;"/>
    </g>
    <g transform="matrix(1,4.44089e-16,-4.44089e-16,1,-473.96,23.363)">
        <path d="M590.781,908.249C590.751,908.359 590.692,908.693 590.692,908.579C590.692,900.78 540.647,912.212 540.358,915.104C539.956,919.123 540.275,930.233 590.692,919.205C601.825,916.769 596.131,910.612 594.979,906.528" style="fill:rgb(0,47,93);fill-opacity:0.38;"/>
    </g>
    <g transform="matrix(-1,-1.45349e-16,1.45349e-16,-1,1820.3,2098.27)">
        <path d="M590.781,908.249C590.751,908.359 590.692,908.693 590.692,908.579C590.692,900.78 540.647,912.212 540.358,915.104C539.956,919.123 540.275,930.233 590.692,919.205C601.825,916.769 596.131,910.612 594.979,906.528" style="fill:rgb(0,47,93);fill-opacity:0.38;"/>
    </g>
    <g transform="matrix(-1,0,0,1,2099.45,-672.281)">
        <path d="M590.781,908.249C590.751,908.359 590.692,908.693 590.692,908.579C590.692,900.78 540.647,912.212 540.358,915.104C539.956,919.123 540.275,930.233 590.692,919.205C601.825,916.769 596.131,910.612 594.979,906.528" style="fill:rgb(0,47,93);fill-opacity:0.38;"/>
    </g>
    <g transform="matrix(1,1.11022e-16,1.11022e-16,-1,443.818,1259.78)">
        <path d="M590.781,908.249C590.751,908.359 590.692,908.693 590.692,908.579C590.692,900.78 540.647,912.212 540.358,915.104C539.956,919.123 540.275,930.233 590.692,919.205C601.825,916.769 596.131,910.612 594.979,906.528" style="fill:rgb(0,47,93);fill-opacity:0.38;"/>
    </g>
    <g transform="matrix(1,1.11022e-16,1.11022e-16,-1,-438.242,2600.78)">
        <path d="M590.781,908.249C590.751,908.359 590.692,908.693 590.692,908.579C590.692,900.78 540.647,912.212 540.358,915.104C539.956,919.123 540.275,930.233 590.692,919.205C601.825,916.769 596.131,910.612 594.979,906.528" style="fill:rgb(0,47,93);fill-opacity:0.38;"/>
    </g>
    <g transform="matrix(-1,-2.22045e-16,-2.22045e-16,1,1275.14,-234.069)">
        <path d="M590.781,908.249C590.751,908.359 590.692,908.693 590.692,908.579C590.692,900.78 540.647,912.212 540.358,915.104C539.956,919.123 540.275,930.233 590.692,919.205C601.825,916.769 596.131,910.612 594.979,906.528" style="fill:rgb(0,47,93);fill-opacity:0.38;"/>
    </g>
    <g transform="matrix(1,9.95799e-17,9.95799e-17,-1,-353.268,2366.98)">
        <path d="M590.781,908.249C590.751,908.359 590.692,908.693 590.692,908.579C590.692,900.78 540.647,912.212 540.358,915.104C539.956,919.123 540.275,930.233 590.692,919.205C601.825,916.769 596.131,910.612 594.979,906.528" style="fill:rgb(0,47,93);fill-opacity:0.38;"/>
    </g>
    <g transform="matrix(1,3.33067e-16,3.33067e-16,-1,791.053,1609.34)">
        <path d="M590.781,908.249C590.751,908.359 590.692,908.693 590.692,908.579C590.692,900.78 540.647,912.212 540.358,915.104C539.956,919.123 540.275,930.233 590.692,919.205C601.825,916.769 596.131,910.612 594.979,906.528" style="fill:rgb(0,47,93);fill-opacity:0.38;"/>
    </g>
    <g transform="matrix(-1,-4.44089e-16,-4.44089e-16,1,1528.42,98.4644)">
        <path d="M590.781,908.249C590.751,908.359 590.692,908.693 590.692,908.579C590.692,900.78 540.647,912.212 540.358,915.104C539.956,919.123 540.275,930.233 590.692,919.205C601.825,916.769 596.131,910.612 594.979,906.528" style="fill:rgb(0,47,93);fill-opacity:0.38;"/>
    </g>
    <g transform="matrix(1,1.45349e-16,1.45349e-16,-1,-241.938,2068.32)">
        <path d="M590.781,908.249C590.751,908.359 590.692,908.693 590.692,908.579C590.692,900.78 540.647,912.212 540.358,915.104C539.956,919.123 540.275,930.233 590.692,919.205C601.825,916.769 596.131,910.612 594.979,906.528" style="fill:rgb(0,47,93);fill-opacity:0.38;"/>
    </g>
    <g transform="matrix(-1.21444,0,0,-1,673.526,1026.83)">
        <path d="M408.415,850.234C407.474,864.347 411.38,868.062 424.285,862.326C436.946,856.699 433.266,851.547 432.598,850.612C430.741,848.012 430.083,849.507 410.682,851.746" style="fill:rgb(0,47,93);fill-opacity:0.38;"/>
    </g>
    <g transform="matrix(-1.21444,-2.59749e-16,2.33487e-16,-1,1949.91,1954.63)">
        <path d="M408.415,850.234C407.474,864.347 411.38,868.062 424.285,862.326C436.946,856.699 433.266,851.547 432.598,850.612C430.741,848.012 430.083,849.507 410.682,851.746" style="fill:rgb(0,47,93);fill-opacity:0.38;"/>
    </g>
    <g transform="matrix(1.21444,0,0,1,413.001,-748.145)">
        <path d="M408.415,850.234C407.474,864.347 411.38,868.062 424.285,862.326C436.946,856.699 433.266,851.547 432.598,850.612C430.741,848.012 430.083,849.507 410.682,851.746" style="fill:rgb(0,47,93);fill-opacity:0.38;"/>
    </g>
    <g transform="matrix(-1.21444,-1.11022e-16,1.11022e-16,-1,2130.27,1335.65)">
        <path d="M408.415,850.234C407.474,864.347 411.38,868.062 424.285,862.326C436.946,856.699 433.266,851.547 432.598,850.612C430.741,848.012 430.083,849.507 410.682,851.746" style="fill:rgb(0,47,93);fill-opacity:0.38;"/>
    </g>
    <g transform="matrix(-1.21444,-1.11022e-16,1.11022e-16,-1,1248.21,2676.64)">
        <path d="M408.415,850.234C407.474,864.347 411.38,868.062 424.285,862.326C436.946,856.699 433.266,851.547 432.598,850.612C430.741,848.012 430.083,849.507 410.682,851.746" style="fill:rgb(0,47,93);fill-opacity:0.38;"/>
    </g>
    <g transform="matrix(1.21444,2.45853e-16,-2.22045e-16,1,-411.304,-309.933)">
        <path d="M408.415,850.234C407.474,864.347 411.38,868.062 424.285,862.326C436.946,856.699 433.266,851.547 432.598,850.612C430.741,848.012 430.083,849.507 410.682,851.746" style="fill:rgb(0,47,93);fill-opacity:0.38;"/>
    </g>
    <g transform="matrix(1.21444,5.55112e-17,-5.55112e-17,1,128.759,626.889)">
        <path d="M408.415,850.234C407.474,864.347 411.38,868.062 424.285,862.326C436.946,856.699 433.266,851.547 432.598,850.612C430.741,848.012 430.083,849.507 410.682,851.746" style="fill:rgb(0,47,93);fill-opacity:0.38;"/>
    </g>
    <g transform="matrix(-1.21444,-3.80683e-16,3.33067e-16,-1,2270.66,1624.4)">
        <path d="M408.415,850.234C407.474,864.347 411.38,868.062 424.285,862.326C436.946,856.699 433.266,851.547 432.598,850.612C430.741,848.012 430.083,849.507 410.682,851.746" style="fill:rgb(0,47,93);fill-opacity:0.38;"/>
    </g>
    <g transform="matrix(-1.21444,-5.55112e-17,1.38778e-16,-1,1749.25,2426.78)">
        <path d="M408.415,850.234C407.474,864.347 411.38,868.062 424.285,862.326C436.946,856.699 433.266,851.547 432.598,850.612C430.741,848.012 430.083,849.507 410.682,851.746" style="fill:rgb(0,47,93);fill-opacity:0.38;"/>
    </g>
    <g transform="matrix(1.21444,5.15513e-16,-4.44089e-16,1,-158.031,22.6)">
        <path d="M408.415,850.234C407.474,864.347 411.38,868.062 424.285,862.326C436.946,856.699 433.266,851.547 432.598,850.612C430.741,848.012 430.083,849.507 410.682,851.746" style="fill:rgb(0,47,93);fill-opacity:0.38;"/>
    </g>
    <g transform="matrix(-1.21444,-1.52711e-16,1.45349e-16,-1,1444.51,2144.18)">
        <path d="M408.415,850.234C407.474,864.347 411.38,868.062 424.285,862.326C436.946,856.699 433.266,851.547 432.598,850.612C430.741,848.012 430.083,849.507 410.682,851.746" style="fill:rgb(0,47,93);fill-opacity:0.38;"/>
    </g>
    <g transform="matrix(-1.21444,0,0,-1,1871.07,922.291)">
        <path d="M408.415,850.234C407.474,864.347 411.38,868.062 424.285,862.326C436.946,856.699 433.266,851.547 432.598,850.612C430.741,848.012 430.083,849.507 410.682,851.746" style="fill:rgb(0,47,93);fill-opacity:0.38;"/>
    </g>
    <g transform="matrix(1.21444,1.11022e-16,-1.11022e-16,1,672.196,-334.789)">
        <path d="M408.415,850.234C407.474,864.347 411.38,868.062 424.285,862.326C436.946,856.699 433.266,851.547 432.598,850.612C430.741,848.012 430.083,849.507 410.682,851.746" style="fill:rgb(0,47,93);fill-opacity:0.38;"/>
    </g>
    <g transform="matrix(1.21444,1.11022e-16,-1.11022e-16,1,-209.864,1006.21)">
        <path d="M408.415,850.234C407.474,864.347 411.38,868.062 424.285,862.326C436.946,856.699 433.266,851.547 432.598,850.612C430.741,848.012 430.083,849.507 410.682,851.746" style="fill:rgb(0,47,93);fill-opacity:0.38;"/>
    </g>
    <g transform="matrix(-1.21444,-2.45853e-16,2.22045e-16,-1,1046.77,1360.5)">
        <path d="M408.415,850.234C407.474,864.347 411.38,868.062 424.285,862.326C436.946,856.699 433.266,851.547 432.598,850.612C430.741,848.012 430.083,849.507 410.682,851.746" style="fill:rgb(0,47,93);fill-opacity:0.38;"/>
    </g>
    <g transform="matrix(1.21444,9.71262e-17,-9.95799e-17,1,-124.89,772.407)">
        <path d="M408.415,850.234C407.474,864.347 411.38,868.062 424.285,862.326C436.946,856.699 433.266,851.547 432.598,850.612C430.741,848.012 430.083,849.507 410.682,851.746" style="fill:rgb(0,47,93);fill-opacity:0.38;"/>
    </g>
    <g transform="matrix(1.21444,3.80683e-16,-3.33067e-16,1,1019.43,14.7634)">
        <path d="M408.415,850.234C407.474,864.347 411.38,868.062 424.285,862.326C436.946,856.699 433.266,851.547 432.598,850.612C430.741,848.012 430.083,849.507 410.682,851.746" style="fill:rgb(0,47,93);fill-opacity:0.38;"/>
    </g>
    <g transform="matrix(1.21444,3.80683e-16,-3.33067e-16,1,1301,613.535)">
        <path d="M408.415,850.234C407.474,864.347 411.38,868.062 424.285,862.326C436.946,856.699 433.266,851.547 432.598,850.612C430.741,848.012 430.083,849.507 410.682,851.746" style="fill:rgb(0,47,93);fill-opacity:0.38;"/>
    </g>
    <g transform="matrix(-1.21444,-5.29409e-16,4.55532e-16,-1,2259.68,2055.43)">
        <path d="M408.415,850.234C407.474,864.347 411.38,868.062 424.285,862.326C436.946,856.699 433.266,851.547 432.598,850.612C430.741,848.012 430.083,849.507 410.682,851.746" style="fill:rgb(0,47,93);fill-opacity:0.38;"/>
    </g>
    <g transform="matrix(-1.21444,-5.15513e-16,4.44089e-16,-1,1300.04,1693.04)">
        <path d="M408.415,850.234C407.474,864.347 411.38,868.062 424.285,862.326C436.946,856.699 433.266,851.547 432.598,850.612C430.741,848.012 430.083,849.507 410.682,851.746" style="fill:rgb(0,47,93);fill-opacity:0.38;"/>
    </g>
    <g transform="matrix(1.21444,1.52711e-16,-1.45349e-16,1,-13.5608,473.746)">
        <path d="M408.415,850.234C407.474,864.347 411.38,868.062 424.285,862.326C436.946,856.699 433.266,851.547 432.598,850.612C430.741,848.012 430.083,849.507 410.682,851.746" style="fill:rgb(0,47,93);fill-opacity:0.38;"/>
    </g>
    <g transform="matrix(1.21444,0,0,1,1279.22,-638.667)">
        <path d="M408.415,850.234C407.474,864.347 411.38,868.062 424.285,862.326C436.946,856.699 433.266,851.547 432.598,850.612C430.741,848.012 430.083,849.507 410.682,851.746" style="fill:rgb(0,47,93);fill-opacity:0.38;"/>
    </g>
    <g transform="matrix(1.21444,0,0,1,1121.31,764.571)">
        <path d="M408.415,850.234C407.474,864.347 411.38,868.062 424.285,862.326C436.946,856.699 433.266,851.547 432.598,850.612C430.741,848.012 430.083,849.507 410.682,851.746" style="fill:rgb(0,47,93);fill-opacity:0.38;"/>
    </g>
    <g transform="matrix(-1.21444,-1.11022e-16,1.11022e-16,-1,1264.05,1226.17)">
        <path d="M408.415,850.234C407.474,864.347 411.38,868.062 424.285,862.326C436.946,856.699 433.266,851.547 432.598,850.612C430.741,848.012 430.083,849.507 410.682,851.746" style="fill:rgb(0,47,93);fill-opacity:0.38;"/>
    </g>
    <g transform="matrix(1.21444,2.45853e-16,-2.22045e-16,1,454.914,-200.455)">
        <path d="M408.415,850.234C407.474,864.347 411.38,868.062 424.285,862.326C436.946,856.699 433.266,851.547 432.598,850.612C430.741,848.012 430.083,849.507 410.682,851.746" style="fill:rgb(0,47,93);fill-opacity:0.38;"/>
    </g>
    <g transform="matrix(-1.21444,-3.80683e-16,3.33067e-16,-1,1699.84,1511.19)">
        <path d="M408.415,850.234C407.474,864.347 411.38,868.062 424.285,862.326C436.946,856.699 433.266,851.547 432.598,850.612C430.741,848.012 430.083,849.507 410.682,851.746" style="fill:rgb(0,47,93);fill-opacity:0.38;"/>
    </g>
    <g transform="matrix(1.21444,5.15513e-16,-4.44089e-16,1,708.186,132.078)">
        <path d="M408.415,850.234C407.474,864.347 411.38,868.062 424.285,862.326C436.946,856.699 433.266,851.547 432.598,850.612C430.741,848.012 430.083,849.507 410.682,851.746" style="fill:rgb(0,47,93);fill-opacity:0.38;"/>
    </g>
    <g transform="matrix(-1.21444,-1.52711e-16,1.45349e-16,-1,578.292,2034.7)">
        <path d="M408.415,850.234C407.474,864.347 411.38,868.062 424.285,862.326C436.946,856.699 433.266,851.547 432.598,850.612C430.741,848.012 430.083,849.507 410.682,851.746" style="fill:rgb(0,47,93);fill-opacity:0.38;"/>
    </g>
    <g transform="matrix(-1.21444,0,0,-1,1535.88,971.56)">
        <path d="M408.415,850.234C407.474,864.347 411.38,868.062 424.285,862.326C436.946,856.699 433.266,851.547 432.598,850.612C430.741,848.012 430.083,849.507 410.682,851.746" style="fill:rgb(0,47,93);fill-opacity:0.38;"/>
    </g>
    <g transform="matrix(1.21444,1.11022e-16,-1.11022e-16,1,1007.38,-384.058)">
        <path d="M408.415,850.234C407.474,864.347 411.38,868.062 424.285,862.326C436.946,856.699 433.266,851.547 432.598,850.612C430.741,848.012 430.083,849.507 410.682,851.746" style="fill:rgb(0,47,93);fill-opacity:0.38;"/>
    </g>
    <g transform="matrix(1.21444,1.11022e-16,-1.11022e-16,1,125.323,956.939)">
        <path d="M408.415,850.234C407.474,864.347 411.38,868.062 424.285,862.326C436.946,856.699 433.266,851.547 432.598,850.612C430.741,848.012 430.083,849.507 410.682,851.746" style="fill:rgb(0,47,93);fill-opacity:0.38;"/>
    </g>
    <g transform="matrix(-1.21444,-2.45853e-16,2.22045e-16,-1,711.579,1409.77)">
        <path d="M408.415,850.234C407.474,864.347 411.38,868.062 424.285,862.326C436.946,856.699 433.266,851.547 432.598,850.612C430.741,848.012 430.083,849.507 410.682,851.746" style="fill:rgb(0,47,93);fill-opacity:0.38;"/>
    </g>
    <g transform="matrix(-1.21444,-5.55112e-17,5.55112e-17,-1,1251.64,2346.59)">
        <path d="M408.415,850.234C407.474,864.347 411.38,868.062 424.285,862.326C436.946,856.699 433.266,851.547 432.598,850.612C430.741,848.012 430.083,849.507 410.682,851.746" style="fill:rgb(0,47,93);fill-opacity:0.38;"/>
    </g>
    <g transform="matrix(1.21444,3.80683e-16,-3.33067e-16,1,1147.78,-95.3005)">
        <path d="M408.415,850.234C407.474,864.347 411.38,868.062 424.285,862.326C436.946,856.699 433.266,851.547 432.598,850.612C430.741,848.012 430.083,849.507 410.682,851.746" style="fill:rgb(0,47,93);fill-opacity:0.38;"/>
    </g>
    <g transform="matrix(1.21444,5.55112e-17,-1.38778e-16,1,626.366,707.072)">
        <path d="M408.415,850.234C407.474,864.347 411.38,868.062 424.285,862.326C436.946,856.699 433.266,851.547 432.598,850.612C430.741,848.012 430.083,849.507 410.682,851.746" style="fill:rgb(0,47,93);fill-opacity:0.38;"/>
    </g>
    <g transform="matrix(-1.21444,-5.15513e-16,4.44089e-16,-1,964.851,1742.31)">
        <path d="M408.415,850.234C407.474,864.347 411.38,868.062 424.285,862.326C436.946,856.699 433.266,851.547 432.598,850.612C430.741,848.012 430.083,849.507 410.682,851.746" style="fill:rgb(0,47,93);fill-opacity:0.38;"/>
    </g>
    <g transform="matrix(1.21444,1.52711e-16,-1.45349e-16,1,321.626,424.477)">
        <path d="M408.415,850.234C407.474,864.347 411.38,868.062 424.285,862.326C436.946,856.699 433.266,851.547 432.598,850.612C430.741,848.012 430.083,849.507 410.682,851.746" style="fill:rgb(0,47,93);fill-opacity:0.38;"/>
    </g>
    <g transform="matrix(1.21444,0,0,1,-163.029,-702.995)">
        <path d="M408.415,850.234C407.474,864.347 411.38,868.062 424.285,862.326C436.946,856.699 433.266,851.547 432.598,850.612C430.741,848.012 430.083,849.507 410.682,851.746" style="fill:rgb(0,47,93);fill-opacity:0.38;"/>
    </g>
    <g transform="matrix(-1.21444,-1.11022e-16,1.11022e-16,-1,894.973,1193.42)">
        <path d="M408.415,850.234C407.474,864.347 411.38,868.062 424.285,862.326C436.946,856.699 433.266,851.547 432.598,850.612C430.741,848.012 430.083,849.507 410.682,851.746" style="fill:rgb(0,47,93);fill-opacity:0.38;"/>
    </g>
    <g transform="matrix(-1.21444,-1.11022e-16,1.11022e-16,-1,1824.24,2631.49)">
        <path d="M408.415,850.234C407.474,864.347 411.38,868.062 424.285,862.326C436.946,856.699 433.266,851.547 432.598,850.612C430.741,848.012 430.083,849.507 410.682,851.746" style="fill:rgb(0,47,93);fill-opacity:0.38;"/>
    </g>
    <g transform="matrix(1.21444,2.59749e-16,-2.33487e-16,1,1113.35,224.812)">
        <path d="M408.415,850.234C407.474,864.347 411.38,868.062 424.285,862.326C436.946,856.699 433.266,851.547 432.598,850.612C430.741,848.012 430.083,849.507 410.682,851.746" style="fill:rgb(0,47,93);fill-opacity:0.38;"/>
    </g>
    <g transform="matrix(1.21444,0,0,1,-356.347,-784.956)">
        <path d="M408.415,850.234C407.474,864.347 411.38,868.062 424.285,862.326C436.946,856.699 433.266,851.547 432.598,850.612C430.741,848.012 430.083,849.507 410.682,851.746" style="fill:rgb(0,47,93);fill-opacity:0.38;"/>
    </g>
    <g transform="matrix(1.21444,2.59749e-16,-2.33487e-16,1,920.032,142.851)">
        <path d="M408.415,850.234C407.474,864.347 411.38,868.062 424.285,862.326C436.946,856.699 433.266,851.547 432.598,850.612C430.741,848.012 430.083,849.507 410.682,851.746" style="fill:rgb(0,47,93);fill-opacity:0.38;"/>
    </g>
    <g transform="matrix(1.21444,0,0,1,196.696,-627.52)">
        <path d="M408.415,850.234C407.474,864.347 411.38,868.062 424.285,862.326C436.946,856.699 433.266,851.547 432.598,850.612C430.741,848.012 430.083,849.507 410.682,851.746" style="fill:rgb(0,47,93);fill-opacity:0.38;"/>
    </g>
    <g transform="matrix(-1.21444,-1.11022e-16,1.11022e-16,-1,2253.52,1194.05)">
        <path d="M408.415,850.234C407.474,864.347 411.38,868.062 424.285,862.326C436.946,856.699 433.266,851.547 432.598,850.612C430.741,848.012 430.083,849.507 410.682,851.746" style="fill:rgb(0,47,93);fill-opacity:0.38;"/>
    </g>
    <g transform="matrix(-1.21444,-1.11022e-16,1.11022e-16,-1,2176.96,2652.32)">
        <path d="M408.415,850.234C407.474,864.347 411.38,868.062 424.285,862.326C436.946,856.699 433.266,851.547 432.598,850.612C430.741,848.012 430.083,849.507 410.682,851.746" style="fill:rgb(0,47,93);fill-opacity:0.38;"/>
    </g>
    <g transform="matrix(-1.21444,-1.11022e-16,1.11022e-16,-1,1464.51,2556.02)">
        <path d="M408.415,850.234C407.474,864.347 411.38,868.062 424.285,862.326C436.946,856.699 433.266,851.547 432.598,850.612C430.741,848.012 430.083,849.507 410.682,851.746" style="fill:rgb(0,47,93);fill-opacity:0.38;"/>
    </g>
    <g transform="matrix(-1.21444,-9.71262e-17,9.95799e-17,-1,1851.17,2210.41)">
        <path d="M408.415,850.234C407.474,864.347 411.38,868.062 424.285,862.326C436.946,856.699 433.266,851.547 432.598,850.612C430.741,848.012 430.083,849.507 410.682,851.746" style="fill:rgb(0,47,93);fill-opacity:0.38;"/>
    </g>
    <g transform="matrix(1.21444,5.15513e-16,-4.44089e-16,1,-314.478,98.0753)">
        <path d="M408.415,850.234C407.474,864.347 411.38,868.062 424.285,862.326C436.946,856.699 433.266,851.547 432.598,850.612C430.741,848.012 430.083,849.507 410.682,851.746" style="fill:rgb(0,47,93);fill-opacity:0.38;"/>
    </g>
    <g transform="matrix(-1.21444,-1.52711e-16,1.45349e-16,-1,1660.81,2023.56)">
        <path d="M408.415,850.234C407.474,864.347 411.38,868.062 424.285,862.326C436.946,856.699 433.266,851.547 432.598,850.612C430.741,848.012 430.083,849.507 410.682,851.746" style="fill:rgb(0,47,93);fill-opacity:0.38;"/>
    </g>
    <g transform="matrix(-1.21444,0,0,1,1939.97,-597.568)">
        <path d="M408.415,850.234C407.474,864.347 411.38,868.062 424.285,862.326C436.946,856.699 433.266,851.547 432.598,850.612C430.741,848.012 430.083,849.507 410.682,851.746" style="fill:rgb(0,47,93);fill-opacity:0.38;"/>
    </g>
    <g transform="matrix(1.21444,1.11022e-16,1.11022e-16,-1,603.301,1185.07)">
        <path d="M408.415,850.234C407.474,864.347 411.38,868.062 424.285,862.326C436.946,856.699 433.266,851.547 432.598,850.612C430.741,848.012 430.083,849.507 410.682,851.746" style="fill:rgb(0,47,93);fill-opacity:0.38;"/>
    </g>
    <g transform="matrix(-1.21444,-2.45853e-16,-2.22045e-16,1,1115.66,-159.357)">
        <path d="M408.415,850.234C407.474,864.347 411.38,868.062 424.285,862.326C436.946,856.699 433.266,851.547 432.598,850.612C430.741,848.012 430.083,849.507 410.682,851.746" style="fill:rgb(0,47,93);fill-opacity:0.38;"/>
    </g>
    <g transform="matrix(1.21444,9.71262e-17,9.95799e-17,-1,-193.785,2292.27)">
        <path d="M408.415,850.234C407.474,864.347 411.38,868.062 424.285,862.326C436.946,856.699 433.266,851.547 432.598,850.612C430.741,848.012 430.083,849.507 410.682,851.746" style="fill:rgb(0,47,93);fill-opacity:0.38;"/>
    </g>
    <g transform="matrix(1.21444,3.80683e-16,3.33067e-16,-1,950.535,1534.62)">
        <path d="M408.415,850.234C407.474,864.347 411.38,868.062 424.285,862.326C436.946,856.699 433.266,851.547 432.598,850.612C430.741,848.012 430.083,849.507 410.682,851.746" style="fill:rgb(0,47,93);fill-opacity:0.38;"/>
    </g>
    <g transform="matrix(-1.21444,-5.15513e-16,-4.44089e-16,1,1368.93,173.177)">
        <path d="M408.415,850.234C407.474,864.347 411.38,868.062 424.285,862.326C436.946,856.699 433.266,851.547 432.598,850.612C430.741,848.012 430.083,849.507 410.682,851.746" style="fill:rgb(0,47,93);fill-opacity:0.38;"/>
    </g>
    <g transform="matrix(1.21444,1.52711e-16,1.45349e-16,-1,-82.4563,1993.61)">
        <path d="M408.415,850.234C407.474,864.347 411.38,868.062 424.285,862.326C436.946,856.699 433.266,851.547 432.598,850.612C430.741,848.012 430.083,849.507 410.682,851.746" style="fill:rgb(0,47,93);fill-opacity:0.38;"/>
    </g>
    <g transform="matrix(-1.93962,0,0,1,1455.18,-666.29)">
        <path d="M408.415,850.234C407.474,864.347 411.38,868.062 424.285,862.326C436.946,856.699 433.266,851.547 432.598,850.612C430.741,848.012 430.083,849.507 410.682,851.746" style="fill:rgb(0,47,93);fill-opacity:0.38;"/>
    </g>
    <g transform="matrix(1.93962,2.22045e-16,1.11022e-16,-1,995.035,1232.82)">
        <path d="M408.415,850.234C407.474,864.347 411.38,868.062 424.285,862.326C436.946,856.699 433.266,851.547 432.598,850.612C430.741,848.012 430.083,849.507 410.682,851.746" style="fill:rgb(0,47,93);fill-opacity:0.38;"/>
    </g>
    <g transform="matrix(1.93962,2.22045e-16,1.11022e-16,-1,918.475,2691.09)">
        <path d="M408.415,850.234C407.474,864.347 411.38,868.062 424.285,862.326C436.946,856.699 433.266,851.547 432.598,850.612C430.741,848.012 430.083,849.507 410.682,851.746" style="fill:rgb(0,47,93);fill-opacity:0.38;"/>
    </g>
    <g transform="matrix(1.93962,2.22045e-16,1.11022e-16,-1,206.025,2594.79)">
        <path d="M408.415,850.234C407.474,864.347 411.38,868.062 424.285,862.326C436.946,856.699 433.266,851.547 432.598,850.612C430.741,848.012 430.083,849.507 410.682,851.746" style="fill:rgb(0,47,93);fill-opacity:0.38;"/>
    </g>
    <g transform="matrix(1.93962,1.99851e-16,9.95799e-17,-1,592.685,2249.18)">
        <path d="M408.415,850.234C407.474,864.347 411.38,868.062 424.285,862.326C436.946,856.699 433.266,851.547 432.598,850.612C430.741,848.012 430.083,849.507 410.682,851.746" style="fill:rgb(0,47,93);fill-opacity:0.38;"/>
    </g>
    <g transform="matrix(-1.93962,-8.68067e-16,-4.44089e-16,1,944.008,59.3048)">
        <path d="M408.415,850.234C407.474,864.347 411.38,868.062 424.285,862.326C436.946,856.699 433.266,851.547 432.598,850.612C430.741,848.012 430.083,849.507 410.682,851.746" style="fill:rgb(0,47,93);fill-opacity:0.38;"/>
    </g>
    <g transform="matrix(1.93962,2.88626e-16,1.45349e-16,-1,402.328,2062.33)">
        <path d="M408.415,850.234C407.474,864.347 411.38,868.062 424.285,862.326C436.946,856.699 433.266,851.547 432.598,850.612C430.741,848.012 430.083,849.507 410.682,851.746" style="fill:rgb(0,47,93);fill-opacity:0.38;"/>
    </g>
    <g transform="matrix(1.93962,0,0,1,681.48,-636.339)">
        <path d="M408.415,850.234C407.474,864.347 411.38,868.062 424.285,862.326C436.946,856.699 433.266,851.547 432.598,850.612C430.741,848.012 430.083,849.507 410.682,851.746" style="fill:rgb(0,47,93);fill-opacity:0.38;"/>
    </g>
    <g transform="matrix(-1.93962,-2.22045e-16,1.11022e-16,-1,1861.79,1223.84)">
        <path d="M408.415,850.234C407.474,864.347 411.38,868.062 424.285,862.326C436.946,856.699 433.266,851.547 432.598,850.612C430.741,848.012 430.083,849.507 410.682,851.746" style="fill:rgb(0,47,93);fill-opacity:0.38;"/>
    </g>
    <g transform="matrix(-1.93962,-2.22045e-16,1.11022e-16,-1,979.727,2564.84)">
        <path d="M408.415,850.234C407.474,864.347 411.38,868.062 424.285,862.326C436.946,856.699 433.266,851.547 432.598,850.612C430.741,848.012 430.083,849.507 410.682,851.746" style="fill:rgb(0,47,93);fill-opacity:0.38;"/>
    </g>
    <g transform="matrix(1.93962,4.37385e-16,-2.22045e-16,1,-142.825,-198.127)">
        <path d="M408.415,850.234C407.474,864.347 411.38,868.062 424.285,862.326C436.946,856.699 433.266,851.547 432.598,850.612C430.741,848.012 430.083,849.507 410.682,851.746" style="fill:rgb(0,47,93);fill-opacity:0.38;"/>
    </g>
    <g transform="matrix(-1.93962,-1.99851e-16,9.95799e-17,-1,1064.7,2331.04)">
        <path d="M408.415,850.234C407.474,864.347 411.38,868.062 424.285,862.326C436.946,856.699 433.266,851.547 432.598,850.612C430.741,848.012 430.083,849.507 410.682,851.746" style="fill:rgb(0,47,93);fill-opacity:0.38;"/>
    </g>
    <g transform="matrix(-1.93962,-6.52726e-16,3.33067e-16,-1,2209.02,1573.39)">
        <path d="M408.415,850.234C407.474,864.347 411.38,868.062 424.285,862.326C436.946,856.699 433.266,851.547 432.598,850.612C430.741,848.012 430.083,849.507 410.682,851.746" style="fill:rgb(0,47,93);fill-opacity:0.38;"/>
    </g>
    <g transform="matrix(1.93962,8.68067e-16,-4.44089e-16,1,110.448,134.406)">
        <path d="M408.415,850.234C407.474,864.347 411.38,868.062 424.285,862.326C436.946,856.699 433.266,851.547 432.598,850.612C430.741,848.012 430.083,849.507 410.682,851.746" style="fill:rgb(0,47,93);fill-opacity:0.38;"/>
    </g>
    <g transform="matrix(-1.93962,-2.88626e-16,1.45349e-16,-1,1176.03,2032.38)">
        <path d="M408.415,850.234C407.474,864.347 411.38,868.062 424.285,862.326C436.946,856.699 433.266,851.547 432.598,850.612C430.741,848.012 430.083,849.507 410.682,851.746" style="fill:rgb(0,47,93);fill-opacity:0.38;"/>
    </g>
    <g transform="matrix(-1.21444,0,0,-1,673.526,1026.83)">
        <path d="M416.728,825.673C418.739,833.719 414.552,838.248 422.774,837.765C430.838,837.29 431.583,837.005 434.488,829.452C438.694,818.516 432.039,818.176 420.884,821.894" style="fill:rgb(0,47,93);fill-opacity:0.38;"/>
    </g>
    <g transform="matrix(-1.21444,-2.59749e-16,2.33487e-16,-1,1949.91,1954.63)">
        <path d="M416.728,825.673C418.739,833.719 414.552,838.248 422.774,837.765C430.838,837.29 431.583,837.005 434.488,829.452C438.694,818.516 432.039,818.176 420.884,821.894" style="fill:rgb(0,47,93);fill-opacity:0.38;"/>
    </g>
    <g transform="matrix(1.21444,0,0,1,413.001,-748.145)">
        <path d="M416.728,825.673C418.739,833.719 414.552,838.248 422.774,837.765C430.838,837.29 431.583,837.005 434.488,829.452C438.694,818.516 432.039,818.176 420.884,821.894" style="fill:rgb(0,47,93);fill-opacity:0.38;"/>
    </g>
    <g transform="matrix(-1.21444,-1.11022e-16,1.11022e-16,-1,2130.27,1335.65)">
        <path d="M416.728,825.673C418.739,833.719 414.552,838.248 422.774,837.765C430.838,837.29 431.583,837.005 434.488,829.452C438.694,818.516 432.039,818.176 420.884,821.894" style="fill:rgb(0,47,93);fill-opacity:0.38;"/>
    </g>
    <g transform="matrix(-1.21444,-1.11022e-16,1.11022e-16,-1,1248.21,2676.64)">
        <path d="M416.728,825.673C418.739,833.719 414.552,838.248 422.774,837.765C430.838,837.29 431.583,837.005 434.488,829.452C438.694,818.516 432.039,818.176 420.884,821.894" style="fill:rgb(0,47,93);fill-opacity:0.38;"/>
    </g>
    <g transform="matrix(1.21444,2.45853e-16,-2.22045e-16,1,-411.304,-309.933)">
        <path d="M416.728,825.673C418.739,833.719 414.552,838.248 422.774,837.765C430.838,837.29 431.583,837.005 434.488,829.452C438.694,818.516 432.039,818.176 420.884,821.894" style="fill:rgb(0,47,93);fill-opacity:0.38;"/>
    </g>
    <g transform="matrix(1.21444,5.55112e-17,-5.55112e-17,1,128.759,626.889)">
        <path d="M416.728,825.673C418.739,833.719 414.552,838.248 422.774,837.765C430.838,837.29 431.583,837.005 434.488,829.452C438.694,818.516 432.039,818.176 420.884,821.894" style="fill:rgb(0,47,93);fill-opacity:0.38;"/>
    </g>
    <g transform="matrix(-1.21444,-3.80683e-16,3.33067e-16,-1,2270.66,1624.4)">
        <path d="M416.728,825.673C418.739,833.719 414.552,838.248 422.774,837.765C430.838,837.29 431.583,837.005 434.488,829.452C438.694,818.516 432.039,818.176 420.884,821.894" style="fill:rgb(0,47,93);fill-opacity:0.38;"/>
    </g>
    <g transform="matrix(-1.21444,-5.55112e-17,1.38778e-16,-1,1749.25,2426.78)">
        <path d="M416.728,825.673C418.739,833.719 414.552,838.248 422.774,837.765C430.838,837.29 431.583,837.005 434.488,829.452C438.694,818.516 432.039,818.176 420.884,821.894" style="fill:rgb(0,47,93);fill-opacity:0.38;"/>
    </g>
    <g transform="matrix(1.21444,5.15513e-16,-4.44089e-16,1,-158.031,22.6)">
        <path d="M416.728,825.673C418.739,833.719 414.552,838.248 422.774,837.765C430.838,837.29 431.583,837.005 434.488,829.452C438.694,818.516 432.039,818.176 420.884,821.894" style="fill:rgb(0,47,93);fill-opacity:0.38;"/>
    </g>
    <g transform="matrix(-1.21444,-1.52711e-16,1.45349e-16,-1,1444.51,2144.18)">
        <path d="M416.728,825.673C418.739,833.719 414.552,838.248 422.774,837.765C430.838,837.29 431.583,837.005 434.488,829.452C438.694,818.516 432.039,818.176 420.884,821.894" style="fill:rgb(0,47,93);fill-opacity:0.38;"/>
    </g>
    <g transform="matrix(-1.21444,0,0,-1,1871.07,922.291)">
        <path d="M416.728,825.673C418.739,833.719 414.552,838.248 422.774,837.765C430.838,837.29 431.583,837.005 434.488,829.452C438.694,818.516 432.039,818.176 420.884,821.894" style="fill:rgb(0,47,93);fill-opacity:0.38;"/>
    </g>
    <g transform="matrix(1.21444,1.11022e-16,-1.11022e-16,1,672.196,-334.789)">
        <path d="M416.728,825.673C418.739,833.719 414.552,838.248 422.774,837.765C430.838,837.29 431.583,837.005 434.488,829.452C438.694,818.516 432.039,818.176 420.884,821.894" style="fill:rgb(0,47,93);fill-opacity:0.38;"/>
    </g>
    <g transform="matrix(1.21444,1.11022e-16,-1.11022e-16,1,-209.864,1006.21)">
        <path d="M416.728,825.673C418.739,833.719 414.552,838.248 422.774,837.765C430.838,837.29 431.583,837.005 434.488,829.452C438.694,818.516 432.039,818.176 420.884,821.894" style="fill:rgb(0,47,93);fill-opacity:0.38;"/>
    </g>
    <g transform="matrix(-1.21444,-2.45853e-16,2.22045e-16,-1,1046.77,1360.5)">
        <path d="M416.728,825.673C418.739,833.719 414.552,838.248 422.774,837.765C430.838,837.29 431.583,837.005 434.488,829.452C438.694,818.516 432.039,818.176 420.884,821.894" style="fill:rgb(0,47,93);fill-opacity:0.38;"/>
    </g>
    <g transform="matrix(1.21444,9.71262e-17,-9.95799e-17,1,-124.89,772.407)">
        <path d="M416.728,825.673C418.739,833.719 414.552,838.248 422.774,837.765C430.838,837.29 431.583,837.005 434.488,829.452C438.694,818.516 432.039,818.176 420.884,821.894" style="fill:rgb(0,47,93);fill-opacity:0.38;"/>
    </g>
    <g transform="matrix(1.21444,3.80683e-16,-3.33067e-16,1,1019.43,14.7634)">
        <path d="M416.728,825.673C418.739,833.719 414.552,838.248 422.774,837.765C430.838,837.29 431.583,837.005 434.488,829.452C438.694,818.516 432.039,818.176 420.884,821.894" style="fill:rgb(0,47,93);fill-opacity:0.38;"/>
    </g>
    <g transform="matrix(1.21444,3.80683e-16,-3.33067e-16,1,1301,613.535)">
        <path d="M416.728,825.673C418.739,833.719 414.552,838.248 422.774,837.765C430.838,837.29 431.583,837.005 434.488,829.452C438.694,818.516 432.039,818.176 420.884,821.894" style="fill:rgb(0,47,93);fill-opacity:0.38;"/>
    </g>
    <g transform="matrix(-1.21444,-5.29409e-16,4.55532e-16,-1,2259.68,2055.43)">
        <path d="M416.728,825.673C418.739,833.719 414.552,838.248 422.774,837.765C430.838,837.29 431.583,837.005 434.488,829.452C438.694,818.516 432.039,818.176 420.884,821.894" style="fill:rgb(0,47,93);fill-opacity:0.38;"/>
    </g>
    <g transform="matrix(-1.21444,-5.15513e-16,4.44089e-16,-1,1300.04,1693.04)">
        <path d="M416.728,825.673C418.739,833.719 414.552,838.248 422.774,837.765C430.838,837.29 431.583,837.005 434.488,829.452C438.694,818.516 432.039,818.176 420.884,821.894" style="fill:rgb(0,47,93);fill-opacity:0.38;"/>
    </g>
    <g transform="matrix(1.21444,1.52711e-16,-1.45349e-16,1,-13.5608,473.746)">
        <path d="M416.728,825.673C418.739,833.719 414.552,838.248 422.774,837.765C430.838,837.29 431.583,837.005 434.488,829.452C438.694,818.516 432.039,818.176 420.884,821.894" style="fill:rgb(0,47,93);fill-opacity:0.38;"/>
    </g>
    <g transform="matrix(1.21444,0,0,1,1279.22,-638.667)">
        <path d="M416.728,825.673C418.739,833.719 414.552,838.248 422.774,837.765C430.838,837.29 431.583,837.005 434.488,829.452C438.694,818.516 432.039,818.176 420.884,821.894" style="fill:rgb(0,47,93);fill-opacity:0.38;"/>
    </g>
    <g transform="matrix(1.21444,0,0,1,1121.31,764.571)">
        <path d="M416.728,825.673C418.739,833.719 414.552,838.248 422.774,837.765C430.838,837.29 431.583,837.005 434.488,829.452C438.694,818.516 432.039,818.176 420.884,821.894" style="fill:rgb(0,47,93);fill-opacity:0.38;"/>
    </g>
    <g transform="matrix(-1.21444,-1.11022e-16,1.11022e-16,-1,1264.05,1226.17)">
        <path d="M416.728,825.673C418.739,833.719 414.552,838.248 422.774,837.765C430.838,837.29 431.583,837.005 434.488,829.452C438.694,818.516 432.039,818.176 420.884,821.894" style="fill:rgb(0,47,93);fill-opacity:0.38;"/>
    </g>
    <g transform="matrix(1.21444,2.45853e-16,-2.22045e-16,1,454.914,-200.455)">
        <path d="M416.728,825.673C418.739,833.719 414.552,838.248 422.774,837.765C430.838,837.29 431.583,837.005 434.488,829.452C438.694,818.516 432.039,818.176 420.884,821.894" style="fill:rgb(0,47,93);fill-opacity:0.38;"/>
    </g>
    <g transform="matrix(-1.21444,-3.80683e-16,3.33067e-16,-1,1699.84,1511.19)">
        <path d="M416.728,825.673C418.739,833.719 414.552,838.248 422.774,837.765C430.838,837.29 431.583,837.005 434.488,829.452C438.694,818.516 432.039,818.176 420.884,821.894" style="fill:rgb(0,47,93);fill-opacity:0.38;"/>
    </g>
    <g transform="matrix(1.21444,5.15513e-16,-4.44089e-16,1,708.186,132.078)">
        <path d="M416.728,825.673C418.739,833.719 414.552,838.248 422.774,837.765C430.838,837.29 431.583,837.005 434.488,829.452C438.694,818.516 432.039,818.176 420.884,821.894" style="fill:rgb(0,47,93);fill-opacity:0.38;"/>
    </g>
    <g transform="matrix(-1.21444,-1.52711e-16,1.45349e-16,-1,578.292,2034.7)">
        <path d="M416.728,825.673C418.739,833.719 414.552,838.248 422.774,837.765C430.838,837.29 431.583,837.005 434.488,829.452C438.694,818.516 432.039,818.176 420.884,821.894" style="fill:rgb(0,47,93);fill-opacity:0.38;"/>
    </g>
    <g transform="matrix(-1.21444,0,0,-1,1535.88,971.56)">
        <path d="M416.728,825.673C418.739,833.719 414.552,838.248 422.774,837.765C430.838,837.29 431.583,837.005 434.488,829.452C438.694,818.516 432.039,818.176 420.884,821.894" style="fill:rgb(0,47,93);fill-opacity:0.38;"/>
    </g>
    <g transform="matrix(1.21444,1.11022e-16,-1.11022e-16,1,1007.38,-384.058)">
        <path d="M416.728,825.673C418.739,833.719 414.552,838.248 422.774,837.765C430.838,837.29 431.583,837.005 434.488,829.452C438.694,818.516 432.039,818.176 420.884,821.894" style="fill:rgb(0,47,93);fill-opacity:0.38;"/>
    </g>
    <g transform="matrix(1.21444,1.11022e-16,-1.11022e-16,1,125.323,956.939)">
        <path d="M416.728,825.673C418.739,833.719 414.552,838.248 422.774,837.765C430.838,837.29 431.583,837.005 434.488,829.452C438.694,818.516 432.039,818.176 420.884,821.894" style="fill:rgb(0,47,93);fill-opacity:0.38;"/>
    </g>
    <g transform="matrix(-1.21444,-2.45853e-16,2.22045e-16,-1,711.579,1409.77)">
        <path d="M416.728,825.673C418.739,833.719 414.552,838.248 422.774,837.765C430.838,837.29 431.583,837.005 434.488,829.452C438.694,818.516 432.039,818.176 420.884,821.894" style="fill:rgb(0,47,93);fill-opacity:0.38;"/>
    </g>
    <g transform="matrix(-1.21444,-5.55112e-17,5.55112e-17,-1,1251.64,2346.59)">
        <path d="M416.728,825.673C418.739,833.719 414.552,838.248 422.774,837.765C430.838,837.29 431.583,837.005 434.488,829.452C438.694,818.516 432.039,818.176 420.884,821.894" style="fill:rgb(0,47,93);fill-opacity:0.38;"/>
    </g>
    <g transform="matrix(1.21444,3.80683e-16,-3.33067e-16,1,1147.78,-95.3005)">
        <path d="M416.728,825.673C418.739,833.719 414.552,838.248 422.774,837.765C430.838,837.29 431.583,837.005 434.488,829.452C438.694,818.516 432.039,818.176 420.884,821.894" style="fill:rgb(0,47,93);fill-opacity:0.38;"/>
    </g>
    <g transform="matrix(1.21444,5.55112e-17,-1.38778e-16,1,626.366,707.072)">
        <path d="M416.728,825.673C418.739,833.719 414.552,838.248 422.774,837.765C430.838,837.29 431.583,837.005 434.488,829.452C438.694,818.516 432.039,818.176 420.884,821.894" style="fill:rgb(0,47,93);fill-opacity:0.38;"/>
    </g>
    <g transform="matrix(-1.21444,-5.15513e-16,4.44089e-16,-1,964.851,1742.31)">
        <path d="M416.728,825.673C418.739,833.719 414.552,838.248 422.774,837.765C430.838,837.29 431.583,837.005 434.488,829.452C438.694,818.516 432.039,818.176 420.884,821.894" style="fill:rgb(0,47,93);fill-opacity:0.38;"/>
    </g>
    <g transform="matrix(1.21444,1.52711e-16,-1.45349e-16,1,321.626,424.477)">
        <path d="M416.728,825.673C418.739,833.719 414.552,838.248 422.774,837.765C430.838,837.29 431.583,837.005 434.488,829.452C438.694,818.516 432.039,818.176 420.884,821.894" style="fill:rgb(0,47,93);fill-opacity:0.38;"/>
    </g>
    <g transform="matrix(1.21444,0,0,1,-163.029,-702.995)">
        <path d="M416.728,825.673C418.739,833.719 414.552,838.248 422.774,837.765C430.838,837.29 431.583,837.005 434.488,829.452C438.694,818.516 432.039,818.176 420.884,821.894" style="fill:rgb(0,47,93);fill-opacity:0.38;"/>
    </g>
    <g transform="matrix(-1.21444,-1.11022e-16,1.11022e-16,-1,894.973,1193.42)">
        <path d="M416.728,825.673C418.739,833.719 414.552,838.248 422.774,837.765C430.838,837.29 431.583,837.005 434.488,829.452C438.694,818.516 432.039,818.176 420.884,821.894" style="fill:rgb(0,47,93);fill-opacity:0.38;"/>
    </g>
    <g transform="matrix(-1.21444,-1.11022e-16,1.11022e-16,-1,1824.24,2631.49)">
        <path d="M416.728,825.673C418.739,833.719 414.552,838.248 422.774,837.765C430.838,837.29 431.583,837.005 434.488,829.452C438.694,818.516 432.039,818.176 420.884,821.894" style="fill:rgb(0,47,93);fill-opacity:0.38;"/>
    </g>
    <g transform="matrix(1.21444,2.59749e-16,-2.33487e-16,1,1113.35,224.812)">
        <path d="M416.728,825.673C418.739,833.719 414.552,838.248 422.774,837.765C430.838,837.29 431.583,837.005 434.488,829.452C438.694,818.516 432.039,818.176 420.884,821.894" style="fill:rgb(0,47,93);fill-opacity:0.38;"/>
    </g>
    <g transform="matrix(1.21444,0,0,1,-356.347,-784.956)">
        <path d="M416.728,825.673C418.739,833.719 414.552,838.248 422.774,837.765C430.838,837.29 431.583,837.005 434.488,829.452C438.694,818.516 432.039,818.176 420.884,821.894" style="fill:rgb(0,47,93);fill-opacity:0.38;"/>
    </g>
    <g transform="matrix(1.21444,2.59749e-16,-2.33487e-16,1,920.032,142.851)">
        <path d="M416.728,825.673C418.739,833.719 414.552,838.248 422.774,837.765C430.838,837.29 431.583,837.005 434.488,829.452C438.694,818.516 432.039,818.176 420.884,821.894" style="fill:rgb(0,47,93);fill-opacity:0.38;"/>
    </g>
    <g transform="matrix(1.21444,0,0,1,205.638,-625.106)">
        <path d="M416.728,825.673C418.739,833.719 414.552,838.248 422.774,837.765C430.838,837.29 431.583,837.005 434.488,829.452C438.694,818.516 432.039,818.176 420.884,821.894" style="fill:rgb(0,47,93);fill-opacity:0.38;"/>
    </g>
    <g transform="matrix(-1.21444,-1.11022e-16,1.11022e-16,-1,2244.58,1191.64)">
        <path d="M416.728,825.673C418.739,833.719 414.552,838.248 422.774,837.765C430.838,837.29 431.583,837.005 434.488,829.452C438.694,818.516 432.039,818.176 420.884,821.894" style="fill:rgb(0,47,93);fill-opacity:0.38;"/>
    </g>
    <g transform="matrix(-1.21444,-1.11022e-16,1.11022e-16,-1,2168.02,2649.91)">
        <path d="M416.728,825.673C418.739,833.719 414.552,838.248 422.774,837.765C430.838,837.29 431.583,837.005 434.488,829.452C438.694,818.516 432.039,818.176 420.884,821.894" style="fill:rgb(0,47,93);fill-opacity:0.38;"/>
    </g>
    <g transform="matrix(-1.21444,-1.11022e-16,1.11022e-16,-1,1455.57,2553.6)">
        <path d="M416.728,825.673C418.739,833.719 414.552,838.248 422.774,837.765C430.838,837.29 431.583,837.005 434.488,829.452C438.694,818.516 432.039,818.176 420.884,821.894" style="fill:rgb(0,47,93);fill-opacity:0.38;"/>
    </g>
    <g transform="matrix(-1.21444,-9.71262e-17,9.95799e-17,-1,1842.23,2208)">
        <path d="M416.728,825.673C418.739,833.719 414.552,838.248 422.774,837.765C430.838,837.29 431.583,837.005 434.488,829.452C438.694,818.516 432.039,818.176 420.884,821.894" style="fill:rgb(0,47,93);fill-opacity:0.38;"/>
    </g>
    <g transform="matrix(1.21444,5.15513e-16,-4.44089e-16,1,-305.536,100.489)">
        <path d="M416.728,825.673C418.739,833.719 414.552,838.248 422.774,837.765C430.838,837.29 431.583,837.005 434.488,829.452C438.694,818.516 432.039,818.176 420.884,821.894" style="fill:rgb(0,47,93);fill-opacity:0.38;"/>
    </g>
    <g transform="matrix(-1.21444,-1.52711e-16,1.45349e-16,-1,1651.87,2021.14)">
        <path d="M416.728,825.673C418.739,833.719 414.552,838.248 422.774,837.765C430.838,837.29 431.583,837.005 434.488,829.452C438.694,818.516 432.039,818.176 420.884,821.894" style="fill:rgb(0,47,93);fill-opacity:0.38;"/>
    </g>
    <g transform="matrix(-1.21444,0,0,1,1931.02,-595.155)">
        <path d="M416.728,825.673C418.739,833.719 414.552,838.248 422.774,837.765C430.838,837.29 431.583,837.005 434.488,829.452C438.694,818.516 432.039,818.176 420.884,821.894" style="fill:rgb(0,47,93);fill-opacity:0.38;"/>
    </g>
    <g transform="matrix(1.21444,1.11022e-16,1.11022e-16,-1,612.243,1182.66)">
        <path d="M416.728,825.673C418.739,833.719 414.552,838.248 422.774,837.765C430.838,837.29 431.583,837.005 434.488,829.452C438.694,818.516 432.039,818.176 420.884,821.894" style="fill:rgb(0,47,93);fill-opacity:0.38;"/>
    </g>
    <g transform="matrix(1.21444,1.11022e-16,1.11022e-16,-1,-269.817,2523.65)">
        <path d="M416.728,825.673C418.739,833.719 414.552,838.248 422.774,837.765C430.838,837.29 431.583,837.005 434.488,829.452C438.694,818.516 432.039,818.176 420.884,821.894" style="fill:rgb(0,47,93);fill-opacity:0.38;"/>
    </g>
    <g transform="matrix(-1.21444,-2.45853e-16,-2.22045e-16,1,1106.72,-156.943)">
        <path d="M416.728,825.673C418.739,833.719 414.552,838.248 422.774,837.765C430.838,837.29 431.583,837.005 434.488,829.452C438.694,818.516 432.039,818.176 420.884,821.894" style="fill:rgb(0,47,93);fill-opacity:0.38;"/>
    </g>
    <g transform="matrix(1.21444,9.71262e-17,9.95799e-17,-1,-184.843,2289.85)">
        <path d="M416.728,825.673C418.739,833.719 414.552,838.248 422.774,837.765C430.838,837.29 431.583,837.005 434.488,829.452C438.694,818.516 432.039,818.176 420.884,821.894" style="fill:rgb(0,47,93);fill-opacity:0.38;"/>
    </g>
    <g transform="matrix(1.21444,3.80683e-16,3.33067e-16,-1,959.477,1532.21)">
        <path d="M416.728,825.673C418.739,833.719 414.552,838.248 422.774,837.765C430.838,837.29 431.583,837.005 434.488,829.452C438.694,818.516 432.039,818.176 420.884,821.894" style="fill:rgb(0,47,93);fill-opacity:0.38;"/>
    </g>
    <g transform="matrix(-1.21444,-5.15513e-16,-4.44089e-16,1,1359.99,175.59)">
        <path d="M416.728,825.673C418.739,833.719 414.552,838.248 422.774,837.765C430.838,837.29 431.583,837.005 434.488,829.452C438.694,818.516 432.039,818.176 420.884,821.894" style="fill:rgb(0,47,93);fill-opacity:0.38;"/>
    </g>
    <g transform="matrix(1.21444,1.52711e-16,1.45349e-16,-1,-73.5142,1991.19)">
        <path d="M416.728,825.673C418.739,833.719 414.552,838.248 422.774,837.765C430.838,837.29 431.583,837.005 434.488,829.452C438.694,818.516 432.039,818.176 420.884,821.894" style="fill:rgb(0,47,93);fill-opacity:0.38;"/>
    </g>
    <g transform="matrix(-1.21444,0,0,1,1120.24,-657.845)">
        <path d="M416.728,825.673C418.739,833.719 414.552,838.248 422.774,837.765C430.838,837.29 431.583,837.005 434.488,829.452C438.694,818.516 432.039,818.176 420.884,821.894" style="fill:rgb(0,47,93);fill-opacity:0.38;"/>
    </g>
    <g transform="matrix(1.21444,1.11022e-16,1.11022e-16,-1,1329.97,1224.38)">
        <path d="M416.728,825.673C418.739,833.719 414.552,838.248 422.774,837.765C430.838,837.29 431.583,837.005 434.488,829.452C438.694,818.516 432.039,818.176 420.884,821.894" style="fill:rgb(0,47,93);fill-opacity:0.38;"/>
    </g>
    <g transform="matrix(1.21444,1.11022e-16,1.11022e-16,-1,1253.41,2682.65)">
        <path d="M416.728,825.673C418.739,833.719 414.552,838.248 422.774,837.765C430.838,837.29 431.583,837.005 434.488,829.452C438.694,818.516 432.039,818.176 420.884,821.894" style="fill:rgb(0,47,93);fill-opacity:0.38;"/>
    </g>
    <g transform="matrix(1.21444,1.11022e-16,1.11022e-16,-1,540.965,2586.34)">
        <path d="M416.728,825.673C418.739,833.719 414.552,838.248 422.774,837.765C430.838,837.29 431.583,837.005 434.488,829.452C438.694,818.516 432.039,818.176 420.884,821.894" style="fill:rgb(0,47,93);fill-opacity:0.38;"/>
    </g>
    <g transform="matrix(1.21444,9.71262e-17,9.95799e-17,-1,927.624,2240.74)">
        <path d="M416.728,825.673C418.739,833.719 414.552,838.248 422.774,837.765C430.838,837.29 431.583,837.005 434.488,829.452C438.694,818.516 432.039,818.176 420.884,821.894" style="fill:rgb(0,47,93);fill-opacity:0.38;"/>
    </g>
    <g transform="matrix(-1.21444,-5.15513e-16,-4.44089e-16,1,609.069,67.7499)">
        <path d="M416.728,825.673C418.739,833.719 414.552,838.248 422.774,837.765C430.838,837.29 431.583,837.005 434.488,829.452C438.694,818.516 432.039,818.176 420.884,821.894" style="fill:rgb(0,47,93);fill-opacity:0.38;"/>
    </g>
    <g transform="matrix(1.21444,1.52711e-16,1.45349e-16,-1,737.268,2053.88)">
        <path d="M416.728,825.673C418.739,833.719 414.552,838.248 422.774,837.765C430.838,837.29 431.583,837.005 434.488,829.452C438.694,818.516 432.039,818.176 420.884,821.894" style="fill:rgb(0,47,93);fill-opacity:0.38;"/>
    </g>
    <g transform="matrix(1.21444,0,0,1,1016.42,-627.894)">
        <path d="M416.728,825.673C418.739,833.719 414.552,838.248 422.774,837.765C430.838,837.29 431.583,837.005 434.488,829.452C438.694,818.516 432.039,818.176 420.884,821.894" style="fill:rgb(0,47,93);fill-opacity:0.38;"/>
    </g>
    <g transform="matrix(-1.21444,-1.11022e-16,1.11022e-16,-1,1526.85,1215.4)">
        <path d="M416.728,825.673C418.739,833.719 414.552,838.248 422.774,837.765C430.838,837.29 431.583,837.005 434.488,829.452C438.694,818.516 432.039,818.176 420.884,821.894" style="fill:rgb(0,47,93);fill-opacity:0.38;"/>
    </g>
    <g transform="matrix(-1.21444,-1.11022e-16,1.11022e-16,-1,644.788,2556.39)">
        <path d="M416.728,825.673C418.739,833.719 414.552,838.248 422.774,837.765C430.838,837.29 431.583,837.005 434.488,829.452C438.694,818.516 432.039,818.176 420.884,821.894" style="fill:rgb(0,47,93);fill-opacity:0.38;"/>
    </g>
    <g transform="matrix(1.21444,2.45853e-16,-2.22045e-16,1,192.115,-189.682)">
        <path d="M416.728,825.673C418.739,833.719 414.552,838.248 422.774,837.765C430.838,837.29 431.583,837.005 434.488,829.452C438.694,818.516 432.039,818.176 420.884,821.894" style="fill:rgb(0,47,93);fill-opacity:0.38;"/>
    </g>
    <g transform="matrix(-1.21444,-9.71262e-17,9.95799e-17,-1,729.762,2322.59)">
        <path d="M416.728,825.673C418.739,833.719 414.552,838.248 422.774,837.765C430.838,837.29 431.583,837.005 434.488,829.452C438.694,818.516 432.039,818.176 420.884,821.894" style="fill:rgb(0,47,93);fill-opacity:0.38;"/>
    </g>
    <g transform="matrix(-1.21444,-3.80683e-16,3.33067e-16,-1,1874.08,1564.95)">
        <path d="M416.728,825.673C418.739,833.719 414.552,838.248 422.774,837.765C430.838,837.29 431.583,837.005 434.488,829.452C438.694,818.516 432.039,818.176 420.884,821.894" style="fill:rgb(0,47,93);fill-opacity:0.38;"/>
    </g>
    <g transform="matrix(1.21444,5.15513e-16,-4.44089e-16,1,445.387,142.851)">
        <path d="M416.728,825.673C418.739,833.719 414.552,838.248 422.774,837.765C430.838,837.29 431.583,837.005 434.488,829.452C438.694,818.516 432.039,818.176 420.884,821.894" style="fill:rgb(0,47,93);fill-opacity:0.38;"/>
    </g>
    <g transform="matrix(-1.21444,-1.52711e-16,1.45349e-16,-1,841.091,2023.93)">
        <path d="M416.728,825.673C418.739,833.719 414.552,838.248 422.774,837.765C430.838,837.29 431.583,837.005 434.488,829.452C438.694,818.516 432.039,818.176 420.884,821.894" style="fill:rgb(0,47,93);fill-opacity:0.38;"/>
    </g>
</svg>
