<?xml version="1.0" encoding="UTF-8" standalone="no"?>
<!DOCTYPE svg PUBLIC "-//W3C//DTD SVG 1.1//EN" "http://www.w3.org/Graphics/SVG/1.1/DTD/svg11.dtd">
<svg width="100%" height="100%" viewBox="0 0 1867 1080" version="1.1" xmlns="http://www.w3.org/2000/svg" xmlns:xlink="http://www.w3.org/1999/xlink" xml:space="preserve" xmlns:serif="http://www.serif.com/" style="fill-rule:evenodd;clip-rule:evenodd;stroke-linejoin:round;stroke-miterlimit:2;">
    <g transform="matrix(1,0,0,1,-5266.15,-1320.47)">
        <g id="BG" transform="matrix(1,0,0,1,3091.04,1320.47)">
            <rect x="2175.1" y="0" width="1866.09" height="1080" style="fill:none;"/>
            <clipPath id="_clip1">
                <rect x="2175.1" y="0" width="1866.09" height="1080"/>
            </clipPath>
            <g clip-path="url(#_clip1)">
                <g transform="matrix(1.1694,-8.16814e-17,-6.08385e-16,1.50016,-507.363,-132.405)">
                    <rect x="2164.59" y="0" width="1876.5" height="1080" style="fill:rgb(0,10,33);"/>
                </g>
                <g transform="matrix(-1.21444,0,0,-1,2810.14,1554.8)">
                    <path d="M387.315,842.517C387.249,842.349 386.498,840.41 386.498,840.41C391.288,833.225 381.601,850.56 389.899,851.746C402.93,853.608 411.557,840.776 410.304,838.52C407.606,833.665 398.263,837.658 387.254,840.41" style="fill:rgb(0,47,93);fill-opacity:0.38;"/>
                </g>
                <g transform="matrix(-1.21444,0,0,-1,3035.37,1795.83)">
                    <path d="M387.315,842.517C387.249,842.349 386.498,840.41 386.498,840.41C391.288,833.225 381.601,850.56 389.899,851.746C402.93,853.608 411.557,840.776 410.304,838.52C407.606,833.665 398.263,837.658 387.254,840.41" style="fill:rgb(0,47,93);fill-opacity:0.38;"/>
                </g>
                <g transform="matrix(-1.21444,0,0,-1,3856.01,1757.19)">
                    <path d="M387.315,842.517C387.249,842.349 386.498,840.41 386.498,840.41C391.288,833.225 381.601,850.56 389.899,851.746C402.93,853.608 411.557,840.776 410.304,838.52C407.606,833.665 398.263,837.658 387.254,840.41" style="fill:rgb(0,47,93);fill-opacity:0.38;"/>
                </g>
                <g transform="matrix(1.21444,0,0,1,2077.86,-246.59)">
                    <path d="M387.315,842.517C387.249,842.349 386.498,840.41 386.498,840.41C391.288,833.225 381.601,850.56 389.899,851.746C402.93,853.608 411.557,840.776 410.304,838.52C407.606,833.665 398.263,837.658 387.254,840.41" style="fill:rgb(0,47,93);fill-opacity:0.38;"/>
                </g>
                <g transform="matrix(1.21444,0,0,1,2317.44,55.2151)">
                    <path d="M387.315,842.517C387.249,842.349 386.498,840.41 386.498,840.41C391.288,833.225 381.601,850.56 389.899,851.746C402.93,853.608 411.557,840.776 410.304,838.52C407.606,833.665 398.263,837.658 387.254,840.41" style="fill:rgb(0,47,93);fill-opacity:0.38;"/>
                </g>
                <g transform="matrix(1.21444,0,0,1,3167.54,-36.5558)">
                    <path d="M387.315,842.517C387.249,842.349 386.498,840.41 386.498,840.41C391.288,833.225 381.601,850.56 389.899,851.746C402.93,853.608 411.557,840.776 410.304,838.52C407.606,833.665 398.263,837.658 387.254,840.41" style="fill:rgb(0,47,93);fill-opacity:0.38;"/>
                </g>
                <g transform="matrix(1.21444,0,0,1,1961.31,-408.51)">
                    <path d="M387.315,842.517C387.249,842.349 386.498,840.41 386.498,840.41C391.288,833.225 381.601,850.56 389.899,851.746C402.93,853.608 411.557,840.776 410.304,838.52C407.606,833.665 398.263,837.658 387.254,840.41" style="fill:rgb(0,47,93);fill-opacity:0.38;"/>
                </g>
                <g transform="matrix(1.21444,0,0,1,1919.35,-61.5713)">
                    <path d="M387.315,842.517C387.249,842.349 386.498,840.41 386.498,840.41C391.288,833.225 381.601,850.56 389.899,851.746C402.93,853.608 411.557,840.776 410.304,838.52C407.606,833.665 398.263,837.658 387.254,840.41" style="fill:rgb(0,47,93);fill-opacity:0.38;"/>
                </g>
                <g transform="matrix(1.21444,0,0,1,2826.13,-54.5946)">
                    <path d="M387.315,842.517C387.249,842.349 386.498,840.41 386.498,840.41C391.288,833.225 381.601,850.56 389.899,851.746C402.93,853.608 411.557,840.776 410.304,838.52C407.606,833.665 398.263,837.658 387.254,840.41" style="fill:rgb(0,47,93);fill-opacity:0.38;"/>
                </g>
                <g transform="matrix(1.21444,0,0,1,3260.57,-292.037)">
                    <path d="M387.315,842.517C387.249,842.349 386.498,840.41 386.498,840.41C391.288,833.225 381.601,850.56 389.899,851.746C402.93,853.608 411.557,840.776 410.304,838.52C407.606,833.665 398.263,837.658 387.254,840.41" style="fill:rgb(0,47,93);fill-opacity:0.38;"/>
                </g>
                <g transform="matrix(1.21444,0,0,1,2348.05,-150.057)">
                    <path d="M387.315,842.517C387.249,842.349 386.498,840.41 386.498,840.41C391.288,833.225 381.601,850.56 389.899,851.746C402.93,853.608 411.557,840.776 410.304,838.52C407.606,833.665 398.263,837.658 387.254,840.41" style="fill:rgb(0,47,93);fill-opacity:0.38;"/>
                </g>
                <g transform="matrix(1.21444,0,0,1,2635.34,143.166)">
                    <path d="M387.315,842.517C387.249,842.349 386.498,840.41 386.498,840.41C391.288,833.225 381.601,850.56 389.899,851.746C402.93,853.608 411.557,840.776 410.304,838.52C407.606,833.665 398.263,837.658 387.254,840.41" style="fill:rgb(0,47,93);fill-opacity:0.38;"/>
                </g>
                <g transform="matrix(1.21444,0,0,1,3317.73,111.887)">
                    <path d="M387.315,842.517C387.249,842.349 386.498,840.41 386.498,840.41C391.288,833.225 381.601,850.56 389.899,851.746C402.93,853.608 411.557,840.776 410.304,838.52C407.606,833.665 398.263,837.658 387.254,840.41" style="fill:rgb(0,47,93);fill-opacity:0.38;"/>
                </g>
                <g transform="matrix(-1.6545,0,0,1,4429.67,-345.975)">
                    <path d="M387.315,842.517C387.249,842.349 386.498,840.41 386.498,840.41C391.288,833.225 381.601,850.56 389.899,851.746C402.93,853.608 411.557,840.776 410.304,838.52C407.606,833.665 398.263,837.658 387.254,840.41" style="fill:rgb(0,47,93);fill-opacity:0.38;"/>
                </g>
                <g transform="matrix(-1.6545,0,0,1,3517.15,-203.995)">
                    <path d="M387.315,842.517C387.249,842.349 386.498,840.41 386.498,840.41C391.288,833.225 381.601,850.56 389.899,851.746C402.93,853.608 411.557,840.776 410.304,838.52C407.606,833.665 398.263,837.658 387.254,840.41" style="fill:rgb(0,47,93);fill-opacity:0.38;"/>
                </g>
                <g transform="matrix(-1.6545,0,0,1,3804.43,89.2282)">
                    <path d="M387.315,842.517C387.249,842.349 386.498,840.41 386.498,840.41C391.288,833.225 381.601,850.56 389.899,851.746C402.93,853.608 411.557,840.776 410.304,838.52C407.606,833.665 398.263,837.658 387.254,840.41" style="fill:rgb(0,47,93);fill-opacity:0.38;"/>
                </g>
                <g transform="matrix(-1.6545,0,0,1,4486.83,57.9487)">
                    <path d="M387.315,842.517C387.249,842.349 386.498,840.41 386.498,840.41C391.288,833.225 381.601,850.56 389.899,851.746C402.93,853.608 411.557,840.776 410.304,838.52C407.606,833.665 398.263,837.658 387.254,840.41" style="fill:rgb(0,47,93);fill-opacity:0.38;"/>
                </g>
                <g transform="matrix(1,0,0,1,3142.92,-379.225)">
                    <path d="M590.781,908.249C590.751,908.359 590.692,908.693 590.692,908.579C590.692,900.78 540.647,912.212 540.358,915.104C539.956,919.123 540.275,930.233 590.692,919.205C601.825,916.769 596.131,910.612 594.979,906.528" style="fill:rgb(0,47,93);fill-opacity:0.38;"/>
                </g>
                <g transform="matrix(1,0,0,1,2230.39,-237.245)">
                    <path d="M590.781,908.249C590.751,908.359 590.692,908.693 590.692,908.579C590.692,900.78 540.647,912.212 540.358,915.104C539.956,919.123 540.275,930.233 590.692,919.205C601.825,916.769 596.131,910.612 594.979,906.528" style="fill:rgb(0,47,93);fill-opacity:0.38;"/>
                </g>
                <g transform="matrix(1,0,0,1,2517.68,55.9782)">
                    <path d="M590.781,908.249C590.751,908.359 590.692,908.693 590.692,908.579C590.692,900.78 540.647,912.212 540.358,915.104C539.956,919.123 540.275,930.233 590.692,919.205C601.825,916.769 596.131,910.612 594.979,906.528" style="fill:rgb(0,47,93);fill-opacity:0.38;"/>
                </g>
                <g transform="matrix(1,0,0,1,3200.07,24.6987)">
                    <path d="M590.781,908.249C590.751,908.359 590.692,908.693 590.692,908.579C590.692,900.78 540.647,912.212 540.358,915.104C539.956,919.123 540.275,930.233 590.692,919.205C601.825,916.769 596.131,910.612 594.979,906.528" style="fill:rgb(0,47,93);fill-opacity:0.38;"/>
                </g>
                <g transform="matrix(-1.21444,0,0,-1,2810.14,1554.8)">
                    <path d="M408.415,850.234C407.474,864.347 411.38,868.062 424.285,862.326C436.946,856.699 433.266,851.547 432.598,850.612C430.741,848.012 430.083,849.507 410.682,851.746" style="fill:rgb(0,47,93);fill-opacity:0.38;"/>
                </g>
                <g transform="matrix(-1.21444,0,0,-1,3035.37,1795.83)">
                    <path d="M408.415,850.234C407.474,864.347 411.38,868.062 424.285,862.326C436.946,856.699 433.266,851.547 432.598,850.612C430.741,848.012 430.083,849.507 410.682,851.746" style="fill:rgb(0,47,93);fill-opacity:0.38;"/>
                </g>
                <g transform="matrix(-1.21444,0,0,-1,3856.01,1757.19)">
                    <path d="M408.415,850.234C407.474,864.347 411.38,868.062 424.285,862.326C436.946,856.699 433.266,851.547 432.598,850.612C430.741,848.012 430.083,849.507 410.682,851.746" style="fill:rgb(0,47,93);fill-opacity:0.38;"/>
                </g>
                <g transform="matrix(1.21444,0,0,1,2077.86,-246.59)">
                    <path d="M408.415,850.234C407.474,864.347 411.38,868.062 424.285,862.326C436.946,856.699 433.266,851.547 432.598,850.612C430.741,848.012 430.083,849.507 410.682,851.746" style="fill:rgb(0,47,93);fill-opacity:0.38;"/>
                </g>
                <g transform="matrix(1.21444,0,0,1,2317.44,55.2151)">
                    <path d="M408.415,850.234C407.474,864.347 411.38,868.062 424.285,862.326C436.946,856.699 433.266,851.547 432.598,850.612C430.741,848.012 430.083,849.507 410.682,851.746" style="fill:rgb(0,47,93);fill-opacity:0.38;"/>
                </g>
                <g transform="matrix(1.21444,0,0,1,3167.54,-36.5558)">
                    <path d="M408.415,850.234C407.474,864.347 411.38,868.062 424.285,862.326C436.946,856.699 433.266,851.547 432.598,850.612C430.741,848.012 430.083,849.507 410.682,851.746" style="fill:rgb(0,47,93);fill-opacity:0.38;"/>
                </g>
                <g transform="matrix(1.21444,0,0,1,1961.31,-408.51)">
                    <path d="M408.415,850.234C407.474,864.347 411.38,868.062 424.285,862.326C436.946,856.699 433.266,851.547 432.598,850.612C430.741,848.012 430.083,849.507 410.682,851.746" style="fill:rgb(0,47,93);fill-opacity:0.38;"/>
                </g>
                <g transform="matrix(1.21444,0,0,1,1919.35,-61.5713)">
                    <path d="M408.415,850.234C407.474,864.347 411.38,868.062 424.285,862.326C436.946,856.699 433.266,851.547 432.598,850.612C430.741,848.012 430.083,849.507 410.682,851.746" style="fill:rgb(0,47,93);fill-opacity:0.38;"/>
                </g>
                <g transform="matrix(1.21444,0,0,1,2826.13,-54.5946)">
                    <path d="M408.415,850.234C407.474,864.347 411.38,868.062 424.285,862.326C436.946,856.699 433.266,851.547 432.598,850.612C430.741,848.012 430.083,849.507 410.682,851.746" style="fill:rgb(0,47,93);fill-opacity:0.38;"/>
                </g>
                <g transform="matrix(1.21444,0,0,1,3302.4,-304.513)">
                    <path d="M408.415,850.234C407.474,864.347 411.38,868.062 424.285,862.326C436.946,856.699 433.266,851.547 432.598,850.612C430.741,848.012 430.083,849.507 410.682,851.746" style="fill:rgb(0,47,93);fill-opacity:0.38;"/>
                </g>
                <g transform="matrix(1.21444,0,0,1,2389.88,-162.533)">
                    <path d="M408.415,850.234C407.474,864.347 411.38,868.062 424.285,862.326C436.946,856.699 433.266,851.547 432.598,850.612C430.741,848.012 430.083,849.507 410.682,851.746" style="fill:rgb(0,47,93);fill-opacity:0.38;"/>
                </g>
                <g transform="matrix(1.21444,0,0,1,2677.16,130.691)">
                    <path d="M408.415,850.234C407.474,864.347 411.38,868.062 424.285,862.326C436.946,856.699 433.266,851.547 432.598,850.612C430.741,848.012 430.083,849.507 410.682,851.746" style="fill:rgb(0,47,93);fill-opacity:0.38;"/>
                </g>
                <g transform="matrix(1.21444,0,0,1,3359.56,99.411)">
                    <path d="M408.415,850.234C407.474,864.347 411.38,868.062 424.285,862.326C436.946,856.699 433.266,851.547 432.598,850.612C430.741,848.012 430.083,849.507 410.682,851.746" style="fill:rgb(0,47,93);fill-opacity:0.38;"/>
                </g>
                <g transform="matrix(-1.93962,0,0,1,4560.89,-343.283)">
                    <path d="M408.415,850.234C407.474,864.347 411.38,868.062 424.285,862.326C436.946,856.699 433.266,851.547 432.598,850.612C430.741,848.012 430.083,849.507 410.682,851.746" style="fill:rgb(0,47,93);fill-opacity:0.38;"/>
                </g>
                <g transform="matrix(-1.93962,0,0,1,3648.36,-201.303)">
                    <path d="M408.415,850.234C407.474,864.347 411.38,868.062 424.285,862.326C436.946,856.699 433.266,851.547 432.598,850.612C430.741,848.012 430.083,849.507 410.682,851.746" style="fill:rgb(0,47,93);fill-opacity:0.38;"/>
                </g>
                <g transform="matrix(-1.93962,0,0,1,3935.65,91.92)">
                    <path d="M408.415,850.234C407.474,864.347 411.38,868.062 424.285,862.326C436.946,856.699 433.266,851.547 432.598,850.612C430.741,848.012 430.083,849.507 410.682,851.746" style="fill:rgb(0,47,93);fill-opacity:0.38;"/>
                </g>
                <g transform="matrix(-1.93962,0,0,1,4618.04,60.6405)">
                    <path d="M408.415,850.234C407.474,864.347 411.38,868.062 424.285,862.326C436.946,856.699 433.266,851.547 432.598,850.612C430.741,848.012 430.083,849.507 410.682,851.746" style="fill:rgb(0,47,93);fill-opacity:0.38;"/>
                </g>
                <g transform="matrix(-1.21444,0,0,-1,3779.23,1349.83)">
                    <path d="M416.728,825.673C418.739,833.719 414.552,838.248 422.774,837.765C430.838,837.29 431.583,837.005 434.488,829.452C438.694,818.516 432.039,818.176 420.884,821.894" style="fill:rgb(0,47,93);fill-opacity:0.38;"/>
                </g>
                <g transform="matrix(-1.21444,0,0,-1,2810.14,1554.8)">
                    <path d="M416.728,825.673C418.739,833.719 414.552,838.248 422.774,837.765C430.838,837.29 431.583,837.005 434.488,829.452C438.694,818.516 432.039,818.176 420.884,821.894" style="fill:rgb(0,47,93);fill-opacity:0.38;"/>
                </g>
                <g transform="matrix(-1.21444,0,0,-1,3035.37,1795.83)">
                    <path d="M416.728,825.673C418.739,833.719 414.552,838.248 422.774,837.765C430.838,837.29 431.583,837.005 434.488,829.452C438.694,818.516 432.039,818.176 420.884,821.894" style="fill:rgb(0,47,93);fill-opacity:0.38;"/>
                </g>
                <g transform="matrix(-1.21444,0,0,-1,3856.01,1757.19)">
                    <path d="M416.728,825.673C418.739,833.719 414.552,838.248 422.774,837.765C430.838,837.29 431.583,837.005 434.488,829.452C438.694,818.516 432.039,818.176 420.884,821.894" style="fill:rgb(0,47,93);fill-opacity:0.38;"/>
                </g>
                <g transform="matrix(1.21444,0,0,1,2077.86,-246.59)">
                    <path d="M416.728,825.673C418.739,833.719 414.552,838.248 422.774,837.765C430.838,837.29 431.583,837.005 434.488,829.452C438.694,818.516 432.039,818.176 420.884,821.894" style="fill:rgb(0,47,93);fill-opacity:0.38;"/>
                </g>
                <g transform="matrix(1.21444,0,0,1,2317.44,55.2151)">
                    <path d="M416.728,825.673C418.739,833.719 414.552,838.248 422.774,837.765C430.838,837.29 431.583,837.005 434.488,829.452C438.694,818.516 432.039,818.176 420.884,821.894" style="fill:rgb(0,47,93);fill-opacity:0.38;"/>
                </g>
                <g transform="matrix(1.21444,0,0,1,3167.54,-36.5558)">
                    <path d="M416.728,825.673C418.739,833.719 414.552,838.248 422.774,837.765C430.838,837.29 431.583,837.005 434.488,829.452C438.694,818.516 432.039,818.176 420.884,821.894" style="fill:rgb(0,47,93);fill-opacity:0.38;"/>
                </g>
                <g transform="matrix(1.21444,0,0,1,1961.31,-408.51)">
                    <path d="M416.728,825.673C418.739,833.719 414.552,838.248 422.774,837.765C430.838,837.29 431.583,837.005 434.488,829.452C438.694,818.516 432.039,818.176 420.884,821.894" style="fill:rgb(0,47,93);fill-opacity:0.38;"/>
                </g>
                <g transform="matrix(1.21444,0,0,1,1919.35,-61.5713)">
                    <path d="M416.728,825.673C418.739,833.719 414.552,838.248 422.774,837.765C430.838,837.29 431.583,837.005 434.488,829.452C438.694,818.516 432.039,818.176 420.884,821.894" style="fill:rgb(0,47,93);fill-opacity:0.38;"/>
                </g>
                <g transform="matrix(1.21444,0,0,1,2826.13,-54.5946)">
                    <path d="M416.728,825.673C418.739,833.719 414.552,838.248 422.774,837.765C430.838,837.29 431.583,837.005 434.488,829.452C438.694,818.516 432.039,818.176 420.884,821.894" style="fill:rgb(0,47,93);fill-opacity:0.38;"/>
                </g>
                <g transform="matrix(1.21444,0,0,1,3311.34,-302.099)">
                    <path d="M416.728,825.673C418.739,833.719 414.552,838.248 422.774,837.765C430.838,837.29 431.583,837.005 434.488,829.452C438.694,818.516 432.039,818.176 420.884,821.894" style="fill:rgb(0,47,93);fill-opacity:0.38;"/>
                </g>
                <g transform="matrix(1.21444,0,0,1,2398.82,-160.119)">
                    <path d="M416.728,825.673C418.739,833.719 414.552,838.248 422.774,837.765C430.838,837.29 431.583,837.005 434.488,829.452C438.694,818.516 432.039,818.176 420.884,821.894" style="fill:rgb(0,47,93);fill-opacity:0.38;"/>
                </g>
                <g transform="matrix(1.21444,0,0,1,2686.11,133.104)">
                    <path d="M416.728,825.673C418.739,833.719 414.552,838.248 422.774,837.765C430.838,837.29 431.583,837.005 434.488,829.452C438.694,818.516 432.039,818.176 420.884,821.894" style="fill:rgb(0,47,93);fill-opacity:0.38;"/>
                </g>
                <g transform="matrix(1.21444,0,0,1,3368.5,101.824)">
                    <path d="M416.728,825.673C418.739,833.719 414.552,838.248 422.774,837.765C430.838,837.29 431.583,837.005 434.488,829.452C438.694,818.516 432.039,818.176 420.884,821.894" style="fill:rgb(0,47,93);fill-opacity:0.38;"/>
                </g>
                <g transform="matrix(-1.21444,0,0,1,3313.42,-192.858)">
                    <path d="M416.728,825.673C418.739,833.719 414.552,838.248 422.774,837.765C430.838,837.29 431.583,837.005 434.488,829.452C438.694,818.516 432.039,818.176 420.884,821.894" style="fill:rgb(0,47,93);fill-opacity:0.38;"/>
                </g>
                <g transform="matrix(-1.21444,0,0,1,3600.71,100.365)">
                    <path d="M416.728,825.673C418.739,833.719 414.552,838.248 422.774,837.765C430.838,837.29 431.583,837.005 434.488,829.452C438.694,818.516 432.039,818.176 420.884,821.894" style="fill:rgb(0,47,93);fill-opacity:0.38;"/>
                </g>
                <g transform="matrix(-1.21444,0,0,1,4283.1,69.0856)">
                    <path d="M416.728,825.673C418.739,833.719 414.552,838.248 422.774,837.765C430.838,837.29 431.583,837.005 434.488,829.452C438.694,818.516 432.039,818.176 420.884,821.894" style="fill:rgb(0,47,93);fill-opacity:0.38;"/>
                </g>
                <g transform="matrix(-1.21444,0,0,-1,2823.14,1052.34)">
                    <path d="M387.315,842.517C387.249,842.349 386.498,840.41 386.498,840.41C391.288,833.225 381.601,850.56 389.899,851.746C402.93,853.608 411.557,840.776 410.304,838.52C407.606,833.665 398.263,837.658 387.254,840.41" style="fill:rgb(0,47,93);fill-opacity:0.38;"/>
                </g>
                <g transform="matrix(-1.21444,0,0,-1,3779.23,1349.83)">
                    <path d="M387.315,842.517C387.249,842.349 386.498,840.41 386.498,840.41C391.288,833.225 381.601,850.56 389.899,851.746C402.93,853.608 411.557,840.776 410.304,838.52C407.606,833.665 398.263,837.658 387.254,840.41" style="fill:rgb(0,47,93);fill-opacity:0.38;"/>
                </g>
                <g transform="matrix(1.21444,0,0,-1,3216.32,981.595)">
                    <path d="M387.315,842.517C387.249,842.349 386.498,840.41 386.498,840.41C391.288,833.225 381.601,850.56 389.899,851.746C402.93,853.608 411.557,840.776 410.304,838.52C407.606,833.665 398.263,837.658 387.254,840.41" style="fill:rgb(0,47,93);fill-opacity:0.38;"/>
                </g>
                <g transform="matrix(1.21444,0,0,1,2120.27,-653.72)">
                    <path d="M387.315,842.517C387.249,842.349 386.498,840.41 386.498,840.41C391.288,833.225 381.601,850.56 389.899,851.746C402.93,853.608 411.557,840.776 410.304,838.52C407.606,833.665 398.263,837.658 387.254,840.41" style="fill:rgb(0,47,93);fill-opacity:0.38;"/>
                </g>
                <g transform="matrix(1.21444,0,0,1,2942.68,-379.988)">
                    <path d="M387.315,842.517C387.249,842.349 386.498,840.41 386.498,840.41C391.288,833.225 381.601,850.56 389.899,851.746C402.93,853.608 411.557,840.776 410.304,838.52C407.606,833.665 398.263,837.658 387.254,840.41" style="fill:rgb(0,47,93);fill-opacity:0.38;"/>
                </g>
                <g transform="matrix(-1.21444,0,0,1,4052.88,-748.228)">
                    <path d="M387.315,842.517C387.249,842.349 386.498,840.41 386.498,840.41C391.288,833.225 381.601,850.56 389.899,851.746C402.93,853.608 411.557,840.776 410.304,838.52C407.606,833.665 398.263,837.658 387.254,840.41" style="fill:rgb(0,47,93);fill-opacity:0.38;"/>
                </g>
                <g transform="matrix(1.21444,0,0,1,1926.95,-735.681)">
                    <path d="M387.315,842.517C387.249,842.349 386.498,840.41 386.498,840.41C391.288,833.225 381.601,850.56 389.899,851.746C402.93,853.608 411.557,840.776 410.304,838.52C407.606,833.665 398.263,837.658 387.254,840.41" style="fill:rgb(0,47,93);fill-opacity:0.38;"/>
                </g>
                <g transform="matrix(1.21444,0,0,1,2749.36,-461.949)">
                    <path d="M387.315,842.517C387.249,842.349 386.498,840.41 386.498,840.41C391.288,833.225 381.601,850.56 389.899,851.746C402.93,853.608 411.557,840.776 410.304,838.52C407.606,833.665 398.263,837.658 387.254,840.41" style="fill:rgb(0,47,93);fill-opacity:0.38;"/>
                </g>
                <g transform="matrix(1.21444,0,0,1,2480.3,-489.19)">
                    <path d="M387.315,842.517C387.249,842.349 386.498,840.41 386.498,840.41C391.288,833.225 381.601,850.56 389.899,851.746C402.93,853.608 411.557,840.776 410.304,838.52C407.606,833.665 398.263,837.658 387.254,840.41" style="fill:rgb(0,47,93);fill-opacity:0.38;"/>
                </g>
                <g transform="matrix(-1.21444,0,0,1,3734.98,-660.276)">
                    <path d="M387.315,842.517C387.249,842.349 386.498,840.41 386.498,840.41C391.288,833.225 381.601,850.56 389.899,851.746C402.93,853.608 411.557,840.776 410.304,838.52C407.606,833.665 398.263,837.658 387.254,840.41" style="fill:rgb(0,47,93);fill-opacity:0.38;"/>
                </g>
                <g transform="matrix(-1.6545,0,0,1,3649.4,-543.128)">
                    <path d="M387.315,842.517C387.249,842.349 386.498,840.41 386.498,840.41C391.288,833.225 381.601,850.56 389.899,851.746C402.93,853.608 411.557,840.776 410.304,838.52C407.606,833.665 398.263,837.658 387.254,840.41" style="fill:rgb(0,47,93);fill-opacity:0.38;"/>
                </g>
                <g transform="matrix(1.6545,0,0,1,2565.88,-714.215)">
                    <path d="M387.315,842.517C387.249,842.349 386.498,840.41 386.498,840.41C391.288,833.225 381.601,850.56 389.899,851.746C402.93,853.608 411.557,840.776 410.304,838.52C407.606,833.665 398.263,837.658 387.254,840.41" style="fill:rgb(0,47,93);fill-opacity:0.38;"/>
                </g>
                <g transform="matrix(1,0,0,1,2362.64,-576.378)">
                    <path d="M590.781,908.249C590.751,908.359 590.692,908.693 590.692,908.579C590.692,900.78 540.647,912.212 540.358,915.104C539.956,919.123 540.275,930.233 590.692,919.205C601.825,916.769 596.131,910.612 594.979,906.528" style="fill:rgb(0,47,93);fill-opacity:0.38;"/>
                </g>
                <g transform="matrix(-1,0,0,1,3852.63,-747.464)">
                    <path d="M590.781,908.249C590.751,908.359 590.692,908.693 590.692,908.579C590.692,900.78 540.647,912.212 540.358,915.104C539.956,919.123 540.275,930.233 590.692,919.205C601.825,916.769 596.131,910.612 594.979,906.528" style="fill:rgb(0,47,93);fill-opacity:0.38;"/>
                </g>
                <g transform="matrix(-1.21444,0,0,-1,2823.14,1052.34)">
                    <path d="M408.415,850.234C407.474,864.347 411.38,868.062 424.285,862.326C436.946,856.699 433.266,851.547 432.598,850.612C430.741,848.012 430.083,849.507 410.682,851.746" style="fill:rgb(0,47,93);fill-opacity:0.38;"/>
                </g>
                <g transform="matrix(-1.21444,0,0,-1,3779.23,1349.83)">
                    <path d="M408.415,850.234C407.474,864.347 411.38,868.062 424.285,862.326C436.946,856.699 433.266,851.547 432.598,850.612C430.741,848.012 430.083,849.507 410.682,851.746" style="fill:rgb(0,47,93);fill-opacity:0.38;"/>
                </g>
                <g transform="matrix(1.21444,0,0,-1,3216.32,981.595)">
                    <path d="M408.415,850.234C407.474,864.347 411.38,868.062 424.285,862.326C436.946,856.699 433.266,851.547 432.598,850.612C430.741,848.012 430.083,849.507 410.682,851.746" style="fill:rgb(0,47,93);fill-opacity:0.38;"/>
                </g>
                <g transform="matrix(1.21444,0,0,1,2120.27,-653.72)">
                    <path d="M408.415,850.234C407.474,864.347 411.38,868.062 424.285,862.326C436.946,856.699 433.266,851.547 432.598,850.612C430.741,848.012 430.083,849.507 410.682,851.746" style="fill:rgb(0,47,93);fill-opacity:0.38;"/>
                </g>
                <g transform="matrix(1.21444,0,0,1,2942.68,-379.988)">
                    <path d="M408.415,850.234C407.474,864.347 411.38,868.062 424.285,862.326C436.946,856.699 433.266,851.547 432.598,850.612C430.741,848.012 430.083,849.507 410.682,851.746" style="fill:rgb(0,47,93);fill-opacity:0.38;"/>
                </g>
                <g transform="matrix(-1.21444,0,0,1,4052.88,-748.228)">
                    <path d="M408.415,850.234C407.474,864.347 411.38,868.062 424.285,862.326C436.946,856.699 433.266,851.547 432.598,850.612C430.741,848.012 430.083,849.507 410.682,851.746" style="fill:rgb(0,47,93);fill-opacity:0.38;"/>
                </g>
                <g transform="matrix(1.21444,0,0,1,1926.95,-735.681)">
                    <path d="M408.415,850.234C407.474,864.347 411.38,868.062 424.285,862.326C436.946,856.699 433.266,851.547 432.598,850.612C430.741,848.012 430.083,849.507 410.682,851.746" style="fill:rgb(0,47,93);fill-opacity:0.38;"/>
                </g>
                <g transform="matrix(1.21444,0,0,1,2749.36,-461.949)">
                    <path d="M408.415,850.234C407.474,864.347 411.38,868.062 424.285,862.326C436.946,856.699 433.266,851.547 432.598,850.612C430.741,848.012 430.083,849.507 410.682,851.746" style="fill:rgb(0,47,93);fill-opacity:0.38;"/>
                </g>
                <g transform="matrix(1.21444,0,0,1,2522.13,-501.666)">
                    <path d="M408.415,850.234C407.474,864.347 411.38,868.062 424.285,862.326C436.946,856.699 433.266,851.547 432.598,850.612C430.741,848.012 430.083,849.507 410.682,851.746" style="fill:rgb(0,47,93);fill-opacity:0.38;"/>
                </g>
                <g transform="matrix(-1.21444,0,0,1,3693.15,-672.752)">
                    <path d="M408.415,850.234C407.474,864.347 411.38,868.062 424.285,862.326C436.946,856.699 433.266,851.547 432.598,850.612C430.741,848.012 430.083,849.507 410.682,851.746" style="fill:rgb(0,47,93);fill-opacity:0.38;"/>
                </g>
                <g transform="matrix(-1.93962,0,0,1,3780.61,-540.436)">
                    <path d="M408.415,850.234C407.474,864.347 411.38,868.062 424.285,862.326C436.946,856.699 433.266,851.547 432.598,850.612C430.741,848.012 430.083,849.507 410.682,851.746" style="fill:rgb(0,47,93);fill-opacity:0.38;"/>
                </g>
                <g transform="matrix(1.93962,0,0,1,2434.67,-711.523)">
                    <path d="M408.415,850.234C407.474,864.347 411.38,868.062 424.285,862.326C436.946,856.699 433.266,851.547 432.598,850.612C430.741,848.012 430.083,849.507 410.682,851.746" style="fill:rgb(0,47,93);fill-opacity:0.38;"/>
                </g>
                <g transform="matrix(-1.21444,0,0,-1,2823.14,1052.34)">
                    <path d="M416.728,825.673C418.739,833.719 414.552,838.248 422.774,837.765C430.838,837.29 431.583,837.005 434.488,829.452C438.694,818.516 432.039,818.176 420.884,821.894" style="fill:rgb(0,47,93);fill-opacity:0.38;"/>
                </g>
                <g transform="matrix(1.21444,0,0,-1,3216.32,981.595)">
                    <path d="M416.728,825.673C418.739,833.719 414.552,838.248 422.774,837.765C430.838,837.29 431.583,837.005 434.488,829.452C438.694,818.516 432.039,818.176 420.884,821.894" style="fill:rgb(0,47,93);fill-opacity:0.38;"/>
                </g>
                <g transform="matrix(1.21444,0,0,1,2120.27,-653.72)">
                    <path d="M416.728,825.673C418.739,833.719 414.552,838.248 422.774,837.765C430.838,837.29 431.583,837.005 434.488,829.452C438.694,818.516 432.039,818.176 420.884,821.894" style="fill:rgb(0,47,93);fill-opacity:0.38;"/>
                </g>
                <g transform="matrix(1.21444,0,0,1,2942.68,-379.988)">
                    <path d="M416.728,825.673C418.739,833.719 414.552,838.248 422.774,837.765C430.838,837.29 431.583,837.005 434.488,829.452C438.694,818.516 432.039,818.176 420.884,821.894" style="fill:rgb(0,47,93);fill-opacity:0.38;"/>
                </g>
                <g transform="matrix(-1.21444,0,0,1,4052.88,-748.228)">
                    <path d="M416.728,825.673C418.739,833.719 414.552,838.248 422.774,837.765C430.838,837.29 431.583,837.005 434.488,829.452C438.694,818.516 432.039,818.176 420.884,821.894" style="fill:rgb(0,47,93);fill-opacity:0.38;"/>
                </g>
                <g transform="matrix(1.21444,0,0,1,1926.95,-735.681)">
                    <path d="M416.728,825.673C418.739,833.719 414.552,838.248 422.774,837.765C430.838,837.29 431.583,837.005 434.488,829.452C438.694,818.516 432.039,818.176 420.884,821.894" style="fill:rgb(0,47,93);fill-opacity:0.38;"/>
                </g>
                <g transform="matrix(1.21444,0,0,1,2749.36,-461.949)">
                    <path d="M416.728,825.673C418.739,833.719 414.552,838.248 422.774,837.765C430.838,837.29 431.583,837.005 434.488,829.452C438.694,818.516 432.039,818.176 420.884,821.894" style="fill:rgb(0,47,93);fill-opacity:0.38;"/>
                </g>
                <g transform="matrix(1.21444,0,0,1,2531.07,-499.252)">
                    <path d="M416.728,825.673C418.739,833.719 414.552,838.248 422.774,837.765C430.838,837.29 431.583,837.005 434.488,829.452C438.694,818.516 432.039,818.176 420.884,821.894" style="fill:rgb(0,47,93);fill-opacity:0.38;"/>
                </g>
                <g transform="matrix(-1.21444,0,0,1,3684.21,-670.339)">
                    <path d="M416.728,825.673C418.739,833.719 414.552,838.248 422.774,837.765C430.838,837.29 431.583,837.005 434.488,829.452C438.694,818.516 432.039,818.176 420.884,821.894" style="fill:rgb(0,47,93);fill-opacity:0.38;"/>
                </g>
                <g transform="matrix(-1.21444,0,0,1,3445.67,-531.991)">
                    <path d="M416.728,825.673C418.739,833.719 414.552,838.248 422.774,837.765C430.838,837.29 431.583,837.005 434.488,829.452C438.694,818.516 432.039,818.176 420.884,821.894" style="fill:rgb(0,47,93);fill-opacity:0.38;"/>
                </g>
                <g transform="matrix(-1.21444,0,0,1,4225.95,-334.838)">
                    <path d="M416.728,825.673C418.739,833.719 414.552,838.248 422.774,837.765C430.838,837.29 431.583,837.005 434.488,829.452C438.694,818.516 432.039,818.176 420.884,821.894" style="fill:rgb(0,47,93);fill-opacity:0.38;"/>
                </g>
                <g transform="matrix(1.21444,0,0,1,2769.6,-703.078)">
                    <path d="M416.728,825.673C418.739,833.719 414.552,838.248 422.774,837.765C430.838,837.29 431.583,837.005 434.488,829.452C438.694,818.516 432.039,818.176 420.884,821.894" style="fill:rgb(0,47,93);fill-opacity:0.38;"/>
                </g>
            </g>
        </g>
    </g>
</svg>
