<?xml version="1.0" encoding="UTF-8" standalone="no"?>
<!DOCTYPE svg PUBLIC "-//W3C//DTD SVG 1.1//EN" "http://www.w3.org/Graphics/SVG/1.1/DTD/svg11.dtd">
<svg width="100%" height="100%" viewBox="0 0 610 610" version="1.1" xmlns="http://www.w3.org/2000/svg" xmlns:xlink="http://www.w3.org/1999/xlink" xml:space="preserve" xmlns:serif="http://www.serif.com/" style="fill-rule:evenodd;clip-rule:evenodd;stroke-linejoin:round;stroke-miterlimit:2;">
    <g>
        <g transform="matrix(1.1263,0,0,1.10426,-8554.45,-1687.04)">
            <rect x="7548.65" y="1473.93" width="633.861" height="659.219" style="fill:rgb(0,24,56);"/>
        </g>
        <g transform="matrix(1.47331,0,0,1.47331,-42.0819,-103.319)">
            <path d="M145.985,161.26L150.286,296.871L207.987,273.867L265.268,304.546L324.557,276.093L321.281,133.34L263.375,161.968L211.548,132.034L145.985,161.26Z" style="fill:white;"/>
            <path d="M163.306,172.117L210.554,151.055L262.753,181.205L304.928,160.353L307.342,265.534L265.689,285.522L209.038,255.181L166.479,272.148L163.306,172.117Z" style="fill:rgb(0,24,56);"/>
            <g transform="matrix(1,0,0,1,7.04952,15.9899)">
                <g transform="matrix(-2.12715,1.06583,-0.447972,-0.894047,769.823,161.474)">
                    <path d="M212.33,187.421L213.312,226.337L211.348,226.337L212.33,187.421Z" style="fill:white;"/>
                </g>
                <circle cx="213.257" cy="178.999" r="10.131" style="fill:white;"/>
            </g>
        </g>
    </g>
    <g transform="matrix(1.308,0,0,1.39932,-10082.7,-2305.36)">
        <rect x="7698.45" y="1960.56" width="485.67" height="128.351" style="fill:rgb(0,41,97);"/>
    </g>
    <g transform="matrix(1.11154,0,0,1.11154,-3295.74,-198.507)">
        <g transform="matrix(60.1507,0,0,60.1507,3113.44,668.748)">
            <path d="M0.073,-0L0.073,-0.708L0.245,-0.708L0.245,-0.149L0.519,-0.149L0.519,-0L0.073,-0Z" style="fill:white;fill-rule:nonzero;"/>
        </g>
        <g transform="matrix(60.1507,0,0,60.1507,3144,668.748)">
            <path d="M0.592,-0.251C0.592,-0.21 0.585,-0.173 0.57,-0.141C0.555,-0.108 0.535,-0.08 0.51,-0.057C0.485,-0.034 0.455,-0.016 0.422,-0.003C0.389,0.01 0.353,0.016 0.315,0.016C0.278,0.016 0.242,0.01 0.209,-0.003C0.175,-0.016 0.146,-0.034 0.121,-0.057C0.095,-0.08 0.076,-0.108 0.061,-0.141C0.046,-0.173 0.039,-0.21 0.039,-0.251C0.039,-0.292 0.046,-0.328 0.061,-0.361C0.076,-0.394 0.095,-0.421 0.121,-0.444C0.146,-0.467 0.175,-0.484 0.209,-0.496C0.242,-0.508 0.278,-0.514 0.315,-0.514C0.353,-0.514 0.389,-0.508 0.422,-0.496C0.455,-0.484 0.485,-0.467 0.51,-0.444C0.535,-0.421 0.555,-0.394 0.57,-0.361C0.585,-0.328 0.592,-0.292 0.592,-0.251ZM0.434,-0.251C0.434,-0.267 0.431,-0.283 0.426,-0.298C0.421,-0.313 0.413,-0.327 0.403,-0.339C0.393,-0.35 0.381,-0.36 0.366,-0.367C0.351,-0.374 0.334,-0.378 0.315,-0.378C0.296,-0.378 0.279,-0.374 0.264,-0.367C0.249,-0.36 0.237,-0.35 0.228,-0.339C0.218,-0.327 0.211,-0.313 0.206,-0.298C0.201,-0.283 0.198,-0.267 0.198,-0.251C0.198,-0.235 0.201,-0.219 0.206,-0.204C0.211,-0.189 0.218,-0.175 0.228,-0.163C0.238,-0.15 0.25,-0.14 0.265,-0.133C0.28,-0.126 0.297,-0.122 0.316,-0.122C0.335,-0.122 0.352,-0.126 0.367,-0.133C0.382,-0.14 0.394,-0.15 0.404,-0.163C0.414,-0.175 0.422,-0.189 0.427,-0.204C0.432,-0.219 0.434,-0.235 0.434,-0.251Z" style="fill:white;fill-rule:nonzero;"/>
        </g>
        <g transform="matrix(60.1507,0,0,60.1507,3182.01,668.748)">
            <path d="M0.407,-0.337C0.398,-0.349 0.385,-0.359 0.369,-0.366C0.353,-0.373 0.337,-0.377 0.32,-0.377C0.303,-0.377 0.287,-0.374 0.273,-0.367C0.259,-0.36 0.247,-0.35 0.237,-0.339C0.227,-0.327 0.219,-0.313 0.214,-0.298C0.208,-0.283 0.205,-0.266 0.205,-0.249C0.205,-0.232 0.208,-0.215 0.213,-0.2C0.218,-0.185 0.226,-0.171 0.237,-0.16C0.247,-0.148 0.259,-0.139 0.274,-0.132C0.288,-0.125 0.304,-0.122 0.322,-0.122C0.339,-0.122 0.355,-0.125 0.372,-0.132C0.388,-0.138 0.401,-0.147 0.411,-0.159L0.502,-0.048C0.481,-0.028 0.455,-0.012 0.422,-0.001C0.389,0.01 0.355,0.016 0.318,0.016C0.279,0.016 0.242,0.01 0.208,-0.002C0.174,-0.014 0.145,-0.032 0.12,-0.055C0.095,-0.078 0.075,-0.105 0.061,-0.138C0.046,-0.171 0.039,-0.208 0.039,-0.249C0.039,-0.29 0.046,-0.326 0.061,-0.359C0.075,-0.392 0.095,-0.42 0.12,-0.443C0.145,-0.466 0.174,-0.483 0.208,-0.496C0.242,-0.508 0.278,-0.514 0.317,-0.514C0.335,-0.514 0.353,-0.512 0.371,-0.509C0.388,-0.506 0.405,-0.501 0.422,-0.496C0.438,-0.49 0.453,-0.483 0.467,-0.475C0.48,-0.466 0.492,-0.457 0.502,-0.447L0.407,-0.337Z" style="fill:white;fill-rule:nonzero;"/>
        </g>
        <g transform="matrix(60.1507,0,0,60.1507,3212.27,668.748)">
            <path d="M0.358,-0.217L0.337,-0.217C0.319,-0.217 0.301,-0.216 0.283,-0.215C0.264,-0.213 0.248,-0.21 0.234,-0.205C0.219,-0.2 0.207,-0.194 0.198,-0.185C0.189,-0.175 0.184,-0.164 0.184,-0.149C0.184,-0.14 0.186,-0.132 0.191,-0.125C0.195,-0.118 0.2,-0.113 0.207,-0.109C0.214,-0.105 0.221,-0.102 0.23,-0.101C0.239,-0.099 0.247,-0.098 0.255,-0.098C0.288,-0.098 0.314,-0.107 0.332,-0.126C0.349,-0.144 0.358,-0.169 0.358,-0.2L0.358,-0.217ZM0.057,-0.43C0.086,-0.458 0.121,-0.479 0.16,-0.493C0.199,-0.507 0.238,-0.514 0.279,-0.514C0.321,-0.514 0.357,-0.509 0.386,-0.499C0.415,-0.488 0.438,-0.472 0.456,-0.451C0.474,-0.429 0.487,-0.401 0.496,-0.369C0.504,-0.335 0.508,-0.296 0.508,-0.251L0.508,-0L0.358,-0L0.358,-0.053L0.355,-0.053C0.342,-0.032 0.323,-0.016 0.298,-0.005C0.272,0.006 0.244,0.012 0.214,0.012C0.194,0.012 0.173,0.009 0.152,0.004C0.131,-0.001 0.111,-0.01 0.094,-0.022C0.076,-0.034 0.061,-0.05 0.05,-0.07C0.039,-0.09 0.033,-0.115 0.033,-0.144C0.033,-0.18 0.043,-0.209 0.063,-0.231C0.082,-0.253 0.108,-0.27 0.139,-0.282C0.169,-0.294 0.204,-0.302 0.242,-0.306C0.28,-0.31 0.317,-0.312 0.353,-0.312L0.353,-0.32C0.353,-0.345 0.344,-0.363 0.327,-0.375C0.31,-0.386 0.288,-0.392 0.263,-0.392C0.24,-0.392 0.217,-0.387 0.196,-0.377C0.174,-0.367 0.155,-0.355 0.14,-0.341L0.057,-0.43Z" style="fill:white;fill-rule:nonzero;"/>
        </g>
        <g transform="matrix(60.1507,0,0,60.1507,3245.71,668.748)">
            <path d="M0.242,-0.375L0.242,-0.185C0.242,-0.162 0.247,-0.144 0.256,-0.133C0.265,-0.121 0.281,-0.115 0.304,-0.115C0.312,-0.115 0.321,-0.116 0.33,-0.117C0.339,-0.118 0.346,-0.12 0.352,-0.123L0.354,-0.003C0.343,0.001 0.328,0.005 0.311,0.008C0.294,0.011 0.276,0.012 0.259,0.012C0.226,0.012 0.198,0.008 0.175,-0.001C0.152,-0.009 0.134,-0.021 0.121,-0.037C0.107,-0.052 0.097,-0.071 0.091,-0.093C0.085,-0.114 0.082,-0.138 0.082,-0.165L0.082,-0.375L0.002,-0.375L0.002,-0.498L0.081,-0.498L0.081,-0.629L0.242,-0.629L0.242,-0.498L0.359,-0.498L0.359,-0.375L0.242,-0.375Z" style="fill:white;fill-rule:nonzero;"/>
        </g>
        <g transform="matrix(60.1507,0,0,60.1507,3268.09,668.748)">
            <path d="M0.242,-0.657C0.242,-0.644 0.24,-0.632 0.235,-0.622C0.23,-0.611 0.223,-0.601 0.215,-0.593C0.206,-0.585 0.196,-0.579 0.185,-0.574C0.173,-0.569 0.161,-0.567 0.148,-0.567C0.121,-0.567 0.099,-0.576 0.081,-0.594C0.063,-0.611 0.054,-0.632 0.054,-0.657C0.054,-0.669 0.056,-0.681 0.061,-0.692C0.066,-0.703 0.072,-0.712 0.081,-0.72C0.09,-0.728 0.1,-0.735 0.111,-0.74C0.122,-0.745 0.135,-0.747 0.148,-0.747C0.161,-0.747 0.173,-0.745 0.185,-0.74C0.196,-0.735 0.206,-0.729 0.215,-0.721C0.223,-0.713 0.23,-0.704 0.235,-0.693C0.24,-0.682 0.242,-0.67 0.242,-0.657ZM0.066,-0L0.066,-0.498L0.23,-0.498L0.23,-0L0.066,-0Z" style="fill:white;fill-rule:nonzero;"/>
        </g>
        <g transform="matrix(60.1507,0,0,60.1507,3285.9,668.748)">
            <path d="M0.592,-0.251C0.592,-0.21 0.585,-0.173 0.57,-0.141C0.555,-0.108 0.535,-0.08 0.51,-0.057C0.485,-0.034 0.455,-0.016 0.422,-0.003C0.389,0.01 0.353,0.016 0.315,0.016C0.278,0.016 0.242,0.01 0.209,-0.003C0.175,-0.016 0.146,-0.034 0.121,-0.057C0.095,-0.08 0.076,-0.108 0.061,-0.141C0.046,-0.173 0.039,-0.21 0.039,-0.251C0.039,-0.292 0.046,-0.328 0.061,-0.361C0.076,-0.394 0.095,-0.421 0.121,-0.444C0.146,-0.467 0.175,-0.484 0.209,-0.496C0.242,-0.508 0.278,-0.514 0.315,-0.514C0.353,-0.514 0.389,-0.508 0.422,-0.496C0.455,-0.484 0.485,-0.467 0.51,-0.444C0.535,-0.421 0.555,-0.394 0.57,-0.361C0.585,-0.328 0.592,-0.292 0.592,-0.251ZM0.434,-0.251C0.434,-0.267 0.431,-0.283 0.426,-0.298C0.421,-0.313 0.413,-0.327 0.403,-0.339C0.393,-0.35 0.381,-0.36 0.366,-0.367C0.351,-0.374 0.334,-0.378 0.315,-0.378C0.296,-0.378 0.279,-0.374 0.264,-0.367C0.249,-0.36 0.237,-0.35 0.228,-0.339C0.218,-0.327 0.211,-0.313 0.206,-0.298C0.201,-0.283 0.198,-0.267 0.198,-0.251C0.198,-0.235 0.201,-0.219 0.206,-0.204C0.211,-0.189 0.218,-0.175 0.228,-0.163C0.238,-0.15 0.25,-0.14 0.265,-0.133C0.28,-0.126 0.297,-0.122 0.316,-0.122C0.335,-0.122 0.352,-0.126 0.367,-0.133C0.382,-0.14 0.394,-0.15 0.404,-0.163C0.414,-0.175 0.422,-0.189 0.427,-0.204C0.432,-0.219 0.434,-0.235 0.434,-0.251Z" style="fill:white;fill-rule:nonzero;"/>
        </g>
        <g transform="matrix(60.1507,0,0,60.1507,3323.91,668.748)">
            <path d="M0.391,-0L0.391,-0.272C0.391,-0.286 0.39,-0.299 0.388,-0.312C0.385,-0.325 0.381,-0.336 0.376,-0.346C0.371,-0.355 0.363,-0.363 0.354,-0.369C0.344,-0.374 0.332,-0.377 0.317,-0.377C0.302,-0.377 0.29,-0.374 0.279,-0.369C0.268,-0.363 0.258,-0.355 0.251,-0.345C0.244,-0.335 0.238,-0.324 0.235,-0.311C0.231,-0.298 0.229,-0.284 0.229,-0.27L0.229,-0L0.064,-0L0.064,-0.498L0.223,-0.498L0.223,-0.429L0.225,-0.429C0.231,-0.44 0.239,-0.45 0.249,-0.461C0.258,-0.471 0.27,-0.48 0.283,-0.487C0.296,-0.494 0.31,-0.5 0.325,-0.505C0.34,-0.51 0.357,-0.512 0.374,-0.512C0.407,-0.512 0.436,-0.506 0.459,-0.494C0.482,-0.482 0.501,-0.467 0.516,-0.448C0.53,-0.428 0.54,-0.407 0.547,-0.382C0.553,-0.357 0.556,-0.333 0.556,-0.308L0.556,-0L0.391,-0Z" style="fill:white;fill-rule:nonzero;"/>
        </g>
    </g>
</svg>
