<?xml version="1.0" encoding="UTF-8" standalone="no"?>
<!DOCTYPE svg PUBLIC "-//W3C//DTD SVG 1.1//EN" "http://www.w3.org/Graphics/SVG/1.1/DTD/svg11.dtd">
<svg width="100%" height="100%" viewBox="0 0 456 132" version="1.1" xmlns="http://www.w3.org/2000/svg" xmlns:xlink="http://www.w3.org/1999/xlink" xml:space="preserve" xmlns:serif="http://www.serif.com/" style="fill-rule:evenodd;clip-rule:evenodd;stroke-linejoin:round;stroke-miterlimit:2;">
    <g transform="matrix(1,0,0,1,-2880.53,-426.493)">
        <g transform="matrix(1,0,0,1,-30.0738,-26.3146)">
            <rect x="2910.36" y="452.808" width="455.721" height="131.039" style="fill:rgb(139,222,255);"/>
            <clipPath id="_clip1">
                <rect x="2910.36" y="452.808" width="455.721" height="131.039"/>
            </clipPath>
            <g clip-path="url(#_clip1)">
                <g transform="matrix(1.31206,-0.757519,0.5,0.866025,-1180.38,2156.99)">
                    <rect x="2822.93" y="531.987" width="240.304" height="152.922" style="fill:rgb(110,208,255);"/>
                </g>
                <g transform="matrix(1.31206,-0.757519,0.5,0.866025,-889.492,2273.22)">
                    <rect x="2822.93" y="531.987" width="240.304" height="152.922" style="fill:rgb(110,208,255);"/>
                </g>
            </g>
        </g>
        <g transform="matrix(1.11154,0,0,1.11154,-486.489,-227.4)">
            <g transform="matrix(60.1507,0,0,60.1507,3141.14,668.748)">
                <path d="M0.073,-0L0.073,-0.708L0.245,-0.708L0.245,-0.149L0.519,-0.149L0.519,-0L0.073,-0Z" style="fill:rgb(0,10,33);fill-rule:nonzero;"/>
            </g>
            <g transform="matrix(60.1507,0,0,60.1507,3171.7,668.748)">
                <path d="M0.407,-0.306C0.407,-0.332 0.399,-0.354 0.383,-0.373C0.366,-0.392 0.342,-0.401 0.309,-0.401C0.293,-0.401 0.278,-0.399 0.265,-0.394C0.252,-0.389 0.24,-0.382 0.23,-0.373C0.22,-0.364 0.212,-0.354 0.206,-0.343C0.2,-0.331 0.197,-0.319 0.196,-0.306L0.407,-0.306ZM0.558,-0.243L0.558,-0.223C0.558,-0.216 0.558,-0.21 0.557,-0.204L0.196,-0.204C0.197,-0.19 0.202,-0.177 0.209,-0.166C0.216,-0.155 0.225,-0.145 0.236,-0.137C0.247,-0.128 0.259,-0.122 0.273,-0.117C0.286,-0.112 0.3,-0.11 0.315,-0.11C0.341,-0.11 0.363,-0.115 0.381,-0.125C0.399,-0.134 0.414,-0.147 0.425,-0.162L0.539,-0.09C0.516,-0.056 0.485,-0.03 0.447,-0.012C0.408,0.007 0.364,0.016 0.313,0.016C0.276,0.016 0.24,0.01 0.207,-0.002C0.174,-0.013 0.145,-0.03 0.12,-0.053C0.095,-0.075 0.075,-0.102 0.061,-0.135C0.046,-0.168 0.039,-0.205 0.039,-0.247C0.039,-0.288 0.046,-0.325 0.06,-0.358C0.074,-0.391 0.093,-0.419 0.117,-0.442C0.141,-0.464 0.169,-0.482 0.202,-0.495C0.235,-0.508 0.27,-0.514 0.308,-0.514C0.345,-0.514 0.378,-0.508 0.409,-0.496C0.44,-0.483 0.466,-0.465 0.488,-0.442C0.51,-0.419 0.527,-0.39 0.54,-0.357C0.552,-0.324 0.558,-0.286 0.558,-0.243Z" style="fill:rgb(0,10,33);fill-rule:nonzero;"/>
            </g>
            <g transform="matrix(60.1507,0,0,60.1507,3207.55,668.748)">
                <path d="M0.372,-0L0.195,-0L-0.001,-0.498L0.18,-0.498L0.285,-0.175L0.288,-0.175L0.393,-0.498L0.568,-0.498L0.372,-0Z" style="fill:rgb(0,10,33);fill-rule:nonzero;"/>
            </g>
            <g transform="matrix(60.1507,0,0,60.1507,3241.65,668.748)">
                <path d="M0.407,-0.306C0.407,-0.332 0.399,-0.354 0.383,-0.373C0.366,-0.392 0.342,-0.401 0.309,-0.401C0.293,-0.401 0.278,-0.399 0.265,-0.394C0.252,-0.389 0.24,-0.382 0.23,-0.373C0.22,-0.364 0.212,-0.354 0.206,-0.343C0.2,-0.331 0.197,-0.319 0.196,-0.306L0.407,-0.306ZM0.558,-0.243L0.558,-0.223C0.558,-0.216 0.558,-0.21 0.557,-0.204L0.196,-0.204C0.197,-0.19 0.202,-0.177 0.209,-0.166C0.216,-0.155 0.225,-0.145 0.236,-0.137C0.247,-0.128 0.259,-0.122 0.273,-0.117C0.286,-0.112 0.3,-0.11 0.315,-0.11C0.341,-0.11 0.363,-0.115 0.381,-0.125C0.399,-0.134 0.414,-0.147 0.425,-0.162L0.539,-0.09C0.516,-0.056 0.485,-0.03 0.447,-0.012C0.408,0.007 0.364,0.016 0.313,0.016C0.276,0.016 0.24,0.01 0.207,-0.002C0.174,-0.013 0.145,-0.03 0.12,-0.053C0.095,-0.075 0.075,-0.102 0.061,-0.135C0.046,-0.168 0.039,-0.205 0.039,-0.247C0.039,-0.288 0.046,-0.325 0.06,-0.358C0.074,-0.391 0.093,-0.419 0.117,-0.442C0.141,-0.464 0.169,-0.482 0.202,-0.495C0.235,-0.508 0.27,-0.514 0.308,-0.514C0.345,-0.514 0.378,-0.508 0.409,-0.496C0.44,-0.483 0.466,-0.465 0.488,-0.442C0.51,-0.419 0.527,-0.39 0.54,-0.357C0.552,-0.324 0.558,-0.286 0.558,-0.243Z" style="fill:rgb(0,10,33);fill-rule:nonzero;"/>
            </g>
            <g transform="matrix(60.1507,0,0,60.1507,3277.5,668.748)">
                <rect x="0.066" y="-0.756" width="0.166" height="0.756" style="fill:rgb(0,10,33);fill-rule:nonzero;"/>
            </g>
            <g transform="matrix(60.1507,0,0,60.1507,3295.43,668.748)">
                <path d="M0.357,-0.351C0.344,-0.364 0.328,-0.374 0.31,-0.383C0.292,-0.392 0.273,-0.396 0.253,-0.396C0.238,-0.396 0.224,-0.393 0.211,-0.387C0.198,-0.381 0.191,-0.371 0.191,-0.356C0.191,-0.342 0.198,-0.332 0.213,-0.326C0.227,-0.32 0.25,-0.313 0.282,-0.306C0.301,-0.302 0.32,-0.296 0.339,-0.289C0.358,-0.282 0.375,-0.272 0.39,-0.26C0.405,-0.248 0.418,-0.233 0.427,-0.216C0.436,-0.199 0.441,-0.178 0.441,-0.154C0.441,-0.123 0.435,-0.096 0.422,-0.075C0.409,-0.053 0.393,-0.035 0.373,-0.022C0.352,-0.009 0.329,0.001 0.304,0.007C0.279,0.013 0.253,0.016 0.228,0.016C0.187,0.016 0.148,0.01 0.109,-0.004C0.07,-0.017 0.037,-0.036 0.011,-0.061L0.103,-0.158C0.118,-0.142 0.136,-0.129 0.157,-0.118C0.178,-0.107 0.201,-0.102 0.225,-0.102C0.238,-0.102 0.252,-0.105 0.265,-0.112C0.278,-0.118 0.284,-0.129 0.284,-0.145C0.284,-0.16 0.276,-0.172 0.26,-0.179C0.244,-0.186 0.219,-0.194 0.185,-0.202C0.168,-0.206 0.15,-0.211 0.133,-0.218C0.116,-0.225 0.1,-0.234 0.087,-0.245C0.073,-0.256 0.062,-0.27 0.053,-0.287C0.044,-0.304 0.04,-0.324 0.04,-0.347C0.04,-0.377 0.046,-0.403 0.059,-0.424C0.072,-0.444 0.088,-0.462 0.108,-0.475C0.128,-0.488 0.15,-0.498 0.175,-0.505C0.199,-0.511 0.223,-0.514 0.247,-0.514C0.284,-0.514 0.321,-0.508 0.357,-0.497C0.392,-0.485 0.422,-0.467 0.447,-0.444L0.357,-0.351Z" style="fill:rgb(0,10,33);fill-rule:nonzero;"/>
            </g>
        </g>
    </g>
</svg>
