<?xml version="1.0" encoding="UTF-8" standalone="no"?>
<!DOCTYPE svg PUBLIC "-//W3C//DTD SVG 1.1//EN" "http://www.w3.org/Graphics/SVG/1.1/DTD/svg11.dtd">
<svg width="100%" height="100%" viewBox="0 0 342 149" version="1.1" xmlns="http://www.w3.org/2000/svg" xmlns:xlink="http://www.w3.org/1999/xlink" xml:space="preserve" xmlns:serif="http://www.serif.com/" style="fill-rule:evenodd;clip-rule:evenodd;stroke-linejoin:round;stroke-miterlimit:2;">
    <g transform="matrix(0.749665,0,0,1.13386,-2181.8,-513.42)">
        <rect x="2910.36" y="452.808" width="455.721" height="131.039" style="fill:rgb(139,222,255);"/>
        <clipPath id="_clip1">
            <rect x="2910.36" y="452.808" width="455.721" height="131.039"/>
        </clipPath>
        <g clip-path="url(#_clip1)">
            <g transform="matrix(1.31206,-0.757519,0.5,0.866025,-1180.38,2156.99)">
                <rect x="2822.93" y="531.987" width="240.304" height="152.922" style="fill:rgb(110,208,255);"/>
            </g>
            <g transform="matrix(1.31206,-0.757519,0.5,0.866025,-889.492,2273.22)">
                <rect x="2822.93" y="531.987" width="240.304" height="152.922" style="fill:rgb(110,208,255);"/>
            </g>
            <g transform="matrix(0.850675,0,0,0.562435,-4483.15,-1183.66)">
                <g transform="matrix(77.5027,0,0,77.5027,8778.39,3012.72)">
                    <path d="M0.523,-0L0.238,-0.463L0.235,-0.463L0.239,-0L0.073,-0L0.073,-0.708L0.268,-0.708L0.552,-0.246L0.555,-0.246L0.551,-0.708L0.717,-0.708L0.717,-0L0.523,-0Z" style="fill:rgb(0,10,33);fill-rule:nonzero;"/>
                </g>
                <g transform="matrix(77.5027,0,0,77.5027,8839.62,3012.72)">
                    <path d="M0.407,-0.306C0.407,-0.332 0.399,-0.354 0.383,-0.373C0.366,-0.392 0.342,-0.401 0.309,-0.401C0.293,-0.401 0.278,-0.399 0.265,-0.394C0.252,-0.389 0.24,-0.382 0.23,-0.373C0.22,-0.364 0.212,-0.354 0.206,-0.343C0.2,-0.331 0.197,-0.319 0.196,-0.306L0.407,-0.306ZM0.558,-0.243L0.558,-0.223C0.558,-0.216 0.558,-0.21 0.557,-0.204L0.196,-0.204C0.197,-0.19 0.202,-0.177 0.209,-0.166C0.216,-0.155 0.225,-0.145 0.236,-0.137C0.247,-0.128 0.259,-0.122 0.273,-0.117C0.286,-0.112 0.3,-0.11 0.315,-0.11C0.341,-0.11 0.363,-0.115 0.381,-0.125C0.399,-0.134 0.414,-0.147 0.425,-0.162L0.539,-0.09C0.516,-0.056 0.485,-0.03 0.447,-0.012C0.408,0.007 0.364,0.016 0.313,0.016C0.276,0.016 0.24,0.01 0.207,-0.002C0.174,-0.013 0.145,-0.03 0.12,-0.053C0.095,-0.075 0.075,-0.102 0.061,-0.135C0.046,-0.168 0.039,-0.205 0.039,-0.247C0.039,-0.288 0.046,-0.325 0.06,-0.358C0.074,-0.391 0.093,-0.419 0.117,-0.442C0.141,-0.464 0.169,-0.482 0.202,-0.495C0.235,-0.508 0.27,-0.514 0.308,-0.514C0.345,-0.514 0.378,-0.508 0.409,-0.496C0.44,-0.483 0.466,-0.465 0.488,-0.442C0.51,-0.419 0.527,-0.39 0.54,-0.357C0.552,-0.324 0.558,-0.286 0.558,-0.243Z" style="fill:rgb(0,10,33);fill-rule:nonzero;"/>
                </g>
                <g transform="matrix(77.5027,0,0,77.5027,8885.81,3012.72)">
                    <path d="M0.698,-0L0.533,-0L0.435,-0.31L0.433,-0.31L0.337,-0L0.172,-0L0,-0.498L0.177,-0.498L0.263,-0.183L0.266,-0.183L0.355,-0.498L0.52,-0.498L0.612,-0.183L0.614,-0.183L0.701,-0.498L0.871,-0.498L0.698,-0Z" style="fill:rgb(0,10,33);fill-rule:nonzero;"/>
                </g>
                <g transform="matrix(77.5027,0,0,77.5027,8972.69,3012.72)">
                    <path d="M0.619,-0.251C0.619,-0.216 0.614,-0.183 0.603,-0.151C0.592,-0.119 0.577,-0.091 0.557,-0.067C0.536,-0.042 0.511,-0.023 0.482,-0.008C0.453,0.007 0.419,0.014 0.382,0.014C0.349,0.014 0.317,0.007 0.288,-0.007C0.258,-0.02 0.235,-0.04 0.219,-0.065L0.217,-0.065L0.217,-0L0.066,-0L0.066,-0.756L0.23,-0.756L0.23,-0.445L0.232,-0.445C0.246,-0.462 0.266,-0.477 0.291,-0.491C0.316,-0.505 0.347,-0.512 0.384,-0.512C0.42,-0.512 0.452,-0.505 0.482,-0.491C0.511,-0.477 0.535,-0.458 0.556,-0.434C0.576,-0.41 0.592,-0.382 0.603,-0.351C0.614,-0.319 0.619,-0.286 0.619,-0.251ZM0.461,-0.251C0.461,-0.267 0.459,-0.283 0.454,-0.298C0.448,-0.313 0.441,-0.327 0.431,-0.339C0.421,-0.35 0.409,-0.36 0.394,-0.367C0.379,-0.374 0.362,-0.378 0.343,-0.378C0.324,-0.378 0.308,-0.374 0.293,-0.367C0.278,-0.36 0.266,-0.35 0.256,-0.338C0.245,-0.326 0.237,-0.312 0.232,-0.297C0.226,-0.282 0.223,-0.266 0.223,-0.25C0.223,-0.234 0.226,-0.218 0.232,-0.203C0.237,-0.188 0.245,-0.174 0.256,-0.162C0.266,-0.15 0.278,-0.14 0.293,-0.133C0.308,-0.126 0.324,-0.122 0.343,-0.122C0.362,-0.122 0.379,-0.126 0.394,-0.133C0.409,-0.14 0.421,-0.15 0.431,-0.162C0.441,-0.174 0.448,-0.188 0.454,-0.204C0.459,-0.219 0.461,-0.235 0.461,-0.251Z" style="fill:rgb(0,10,33);fill-rule:nonzero;"/>
                </g>
                <g transform="matrix(77.5027,0,0,77.5027,9023.77,3012.72)">
                    <path d="M0.407,-0.306C0.407,-0.332 0.399,-0.354 0.383,-0.373C0.366,-0.392 0.342,-0.401 0.309,-0.401C0.293,-0.401 0.278,-0.399 0.265,-0.394C0.252,-0.389 0.24,-0.382 0.23,-0.373C0.22,-0.364 0.212,-0.354 0.206,-0.343C0.2,-0.331 0.197,-0.319 0.196,-0.306L0.407,-0.306ZM0.558,-0.243L0.558,-0.223C0.558,-0.216 0.558,-0.21 0.557,-0.204L0.196,-0.204C0.197,-0.19 0.202,-0.177 0.209,-0.166C0.216,-0.155 0.225,-0.145 0.236,-0.137C0.247,-0.128 0.259,-0.122 0.273,-0.117C0.286,-0.112 0.3,-0.11 0.315,-0.11C0.341,-0.11 0.363,-0.115 0.381,-0.125C0.399,-0.134 0.414,-0.147 0.425,-0.162L0.539,-0.09C0.516,-0.056 0.485,-0.03 0.447,-0.012C0.408,0.007 0.364,0.016 0.313,0.016C0.276,0.016 0.24,0.01 0.207,-0.002C0.174,-0.013 0.145,-0.03 0.12,-0.053C0.095,-0.075 0.075,-0.102 0.061,-0.135C0.046,-0.168 0.039,-0.205 0.039,-0.247C0.039,-0.288 0.046,-0.325 0.06,-0.358C0.074,-0.391 0.093,-0.419 0.117,-0.442C0.141,-0.464 0.169,-0.482 0.202,-0.495C0.235,-0.508 0.27,-0.514 0.308,-0.514C0.345,-0.514 0.378,-0.508 0.409,-0.496C0.44,-0.483 0.466,-0.465 0.488,-0.442C0.51,-0.419 0.527,-0.39 0.54,-0.357C0.552,-0.324 0.558,-0.286 0.558,-0.243Z" style="fill:rgb(0,10,33);fill-rule:nonzero;"/>
                </g>
                <g transform="matrix(77.5027,0,0,77.5027,9069.96,3012.72)">
                    <path d="M0.357,-0.351C0.344,-0.364 0.328,-0.374 0.31,-0.383C0.292,-0.392 0.273,-0.396 0.253,-0.396C0.238,-0.396 0.224,-0.393 0.211,-0.387C0.198,-0.381 0.191,-0.371 0.191,-0.356C0.191,-0.342 0.198,-0.332 0.213,-0.326C0.227,-0.32 0.25,-0.313 0.282,-0.306C0.301,-0.302 0.32,-0.296 0.339,-0.289C0.358,-0.282 0.375,-0.272 0.39,-0.26C0.405,-0.248 0.418,-0.233 0.427,-0.216C0.436,-0.199 0.441,-0.178 0.441,-0.154C0.441,-0.123 0.435,-0.096 0.422,-0.075C0.409,-0.053 0.393,-0.035 0.373,-0.022C0.352,-0.009 0.329,0.001 0.304,0.007C0.279,0.013 0.253,0.016 0.228,0.016C0.187,0.016 0.148,0.01 0.109,-0.004C0.07,-0.017 0.037,-0.036 0.011,-0.061L0.103,-0.158C0.118,-0.142 0.136,-0.129 0.157,-0.118C0.178,-0.107 0.201,-0.102 0.225,-0.102C0.238,-0.102 0.252,-0.105 0.265,-0.112C0.278,-0.118 0.284,-0.129 0.284,-0.145C0.284,-0.16 0.276,-0.172 0.26,-0.179C0.244,-0.186 0.219,-0.194 0.185,-0.202C0.168,-0.206 0.15,-0.211 0.133,-0.218C0.116,-0.225 0.1,-0.234 0.087,-0.245C0.073,-0.256 0.062,-0.27 0.053,-0.287C0.044,-0.304 0.04,-0.324 0.04,-0.347C0.04,-0.377 0.046,-0.403 0.059,-0.424C0.072,-0.444 0.088,-0.462 0.108,-0.475C0.128,-0.488 0.15,-0.498 0.175,-0.505C0.199,-0.511 0.223,-0.514 0.247,-0.514C0.284,-0.514 0.321,-0.508 0.357,-0.497C0.392,-0.485 0.422,-0.467 0.447,-0.444L0.357,-0.351Z" style="fill:rgb(0,10,33);fill-rule:nonzero;"/>
                </g>
                <g transform="matrix(77.5027,0,0,77.5027,9106.54,3012.72)">
                    <path d="M0.242,-0.375L0.242,-0.185C0.242,-0.162 0.247,-0.144 0.256,-0.133C0.265,-0.121 0.281,-0.115 0.304,-0.115C0.312,-0.115 0.321,-0.116 0.33,-0.117C0.339,-0.118 0.346,-0.12 0.352,-0.123L0.354,-0.003C0.343,0.001 0.328,0.005 0.311,0.008C0.294,0.011 0.276,0.012 0.259,0.012C0.226,0.012 0.198,0.008 0.175,-0.001C0.152,-0.009 0.134,-0.021 0.121,-0.037C0.107,-0.052 0.097,-0.071 0.091,-0.093C0.085,-0.114 0.082,-0.138 0.082,-0.165L0.082,-0.375L0.002,-0.375L0.002,-0.498L0.081,-0.498L0.081,-0.629L0.242,-0.629L0.242,-0.498L0.359,-0.498L0.359,-0.375L0.242,-0.375Z" style="fill:rgb(0,10,33);fill-rule:nonzero;"/>
                </g>
                <g transform="matrix(77.5027,0,0,77.5027,8858.26,3090.22)">
                    <path d="M0.242,-0.375L0.242,-0.185C0.242,-0.162 0.247,-0.144 0.256,-0.133C0.265,-0.121 0.281,-0.115 0.304,-0.115C0.312,-0.115 0.321,-0.116 0.33,-0.117C0.339,-0.118 0.346,-0.12 0.352,-0.123L0.354,-0.003C0.343,0.001 0.328,0.005 0.311,0.008C0.294,0.011 0.276,0.012 0.259,0.012C0.226,0.012 0.198,0.008 0.175,-0.001C0.152,-0.009 0.134,-0.021 0.121,-0.037C0.107,-0.052 0.097,-0.071 0.091,-0.093C0.085,-0.114 0.082,-0.138 0.082,-0.165L0.082,-0.375L0.002,-0.375L0.002,-0.498L0.081,-0.498L0.081,-0.629L0.242,-0.629L0.242,-0.498L0.359,-0.498L0.359,-0.375L0.242,-0.375Z" style="fill:rgb(0,10,33);fill-rule:nonzero;"/>
                </g>
                <g transform="matrix(77.5027,0,0,77.5027,8887.09,3090.22)">
                    <path d="M0.242,-0.657C0.242,-0.644 0.24,-0.632 0.235,-0.622C0.23,-0.611 0.223,-0.601 0.215,-0.593C0.206,-0.585 0.196,-0.579 0.185,-0.574C0.173,-0.569 0.161,-0.567 0.148,-0.567C0.121,-0.567 0.099,-0.576 0.081,-0.594C0.063,-0.611 0.054,-0.632 0.054,-0.657C0.054,-0.669 0.056,-0.681 0.061,-0.692C0.066,-0.703 0.072,-0.712 0.081,-0.72C0.09,-0.728 0.1,-0.735 0.111,-0.74C0.122,-0.745 0.135,-0.747 0.148,-0.747C0.161,-0.747 0.173,-0.745 0.185,-0.74C0.196,-0.735 0.206,-0.729 0.215,-0.721C0.223,-0.713 0.23,-0.704 0.235,-0.693C0.24,-0.682 0.242,-0.67 0.242,-0.657ZM0.066,-0L0.066,-0.498L0.23,-0.498L0.23,-0L0.066,-0Z" style="fill:rgb(0,10,33);fill-rule:nonzero;"/>
                </g>
                <g transform="matrix(77.5027,0,0,77.5027,8910.03,3090.22)">
                    <path d="M0.7,-0L0.7,-0.272C0.7,-0.286 0.699,-0.3 0.697,-0.313C0.695,-0.326 0.691,-0.337 0.686,-0.346C0.681,-0.355 0.674,-0.363 0.665,-0.369C0.656,-0.374 0.644,-0.377 0.629,-0.377C0.615,-0.377 0.603,-0.374 0.593,-0.368C0.582,-0.362 0.574,-0.354 0.567,-0.344C0.56,-0.334 0.554,-0.323 0.551,-0.31C0.548,-0.297 0.546,-0.283 0.546,-0.269L0.546,-0L0.382,-0L0.382,-0.284C0.382,-0.313 0.376,-0.335 0.365,-0.352C0.354,-0.369 0.336,-0.377 0.311,-0.377C0.285,-0.377 0.265,-0.367 0.251,-0.346C0.236,-0.325 0.229,-0.3 0.229,-0.27L0.229,-0L0.064,-0L0.064,-0.498L0.223,-0.498L0.223,-0.429L0.225,-0.429C0.231,-0.44 0.239,-0.45 0.248,-0.46C0.257,-0.47 0.267,-0.479 0.28,-0.487C0.293,-0.494 0.307,-0.5 0.323,-0.505C0.338,-0.51 0.355,-0.512 0.374,-0.512C0.41,-0.512 0.44,-0.505 0.466,-0.49C0.491,-0.475 0.51,-0.454 0.524,-0.427C0.541,-0.453 0.562,-0.474 0.588,-0.489C0.614,-0.504 0.646,-0.512 0.683,-0.512C0.717,-0.512 0.745,-0.506 0.769,-0.494C0.792,-0.481 0.81,-0.465 0.824,-0.446C0.838,-0.426 0.848,-0.404 0.855,-0.38C0.861,-0.355 0.864,-0.331 0.864,-0.308L0.864,-0L0.7,-0Z" style="fill:rgb(0,10,33);fill-rule:nonzero;"/>
                </g>
                <g transform="matrix(77.5027,0,0,77.5027,8981.64,3090.22)">
                    <path d="M0.407,-0.306C0.407,-0.332 0.399,-0.354 0.383,-0.373C0.366,-0.392 0.342,-0.401 0.309,-0.401C0.293,-0.401 0.278,-0.399 0.265,-0.394C0.252,-0.389 0.24,-0.382 0.23,-0.373C0.22,-0.364 0.212,-0.354 0.206,-0.343C0.2,-0.331 0.197,-0.319 0.196,-0.306L0.407,-0.306ZM0.558,-0.243L0.558,-0.223C0.558,-0.216 0.558,-0.21 0.557,-0.204L0.196,-0.204C0.197,-0.19 0.202,-0.177 0.209,-0.166C0.216,-0.155 0.225,-0.145 0.236,-0.137C0.247,-0.128 0.259,-0.122 0.273,-0.117C0.286,-0.112 0.3,-0.11 0.315,-0.11C0.341,-0.11 0.363,-0.115 0.381,-0.125C0.399,-0.134 0.414,-0.147 0.425,-0.162L0.539,-0.09C0.516,-0.056 0.485,-0.03 0.447,-0.012C0.408,0.007 0.364,0.016 0.313,0.016C0.276,0.016 0.24,0.01 0.207,-0.002C0.174,-0.013 0.145,-0.03 0.12,-0.053C0.095,-0.075 0.075,-0.102 0.061,-0.135C0.046,-0.168 0.039,-0.205 0.039,-0.247C0.039,-0.288 0.046,-0.325 0.06,-0.358C0.074,-0.391 0.093,-0.419 0.117,-0.442C0.141,-0.464 0.169,-0.482 0.202,-0.495C0.235,-0.508 0.27,-0.514 0.308,-0.514C0.345,-0.514 0.378,-0.508 0.409,-0.496C0.44,-0.483 0.466,-0.465 0.488,-0.442C0.51,-0.419 0.527,-0.39 0.54,-0.357C0.552,-0.324 0.558,-0.286 0.558,-0.243Z" style="fill:rgb(0,10,33);fill-rule:nonzero;"/>
                </g>
                <g transform="matrix(77.5027,0,0,77.5027,9027.84,3090.22)">
                    <path d="M0.094,-0.237L0.094,-0.708L0.262,-0.708L0.262,-0.237L0.094,-0.237ZM0.276,-0.085C0.276,-0.072 0.274,-0.059 0.269,-0.048C0.264,-0.036 0.257,-0.026 0.248,-0.018C0.239,-0.009 0.228,-0.003 0.216,0.003C0.204,0.008 0.191,0.01 0.178,0.01C0.165,0.01 0.152,0.008 0.141,0.003C0.129,-0.002 0.119,-0.008 0.11,-0.017C0.101,-0.026 0.094,-0.036 0.089,-0.047C0.084,-0.058 0.081,-0.071 0.081,-0.084C0.081,-0.097 0.084,-0.109 0.089,-0.121C0.093,-0.132 0.1,-0.142 0.109,-0.151C0.118,-0.16 0.128,-0.167 0.14,-0.172C0.152,-0.177 0.165,-0.179 0.178,-0.179C0.191,-0.179 0.204,-0.177 0.216,-0.172C0.228,-0.167 0.239,-0.16 0.248,-0.152C0.257,-0.143 0.264,-0.133 0.269,-0.122C0.274,-0.11 0.276,-0.098 0.276,-0.085Z" style="fill:rgb(0,10,33);fill-rule:nonzero;"/>
                </g>
            </g>
        </g>
    </g>
</svg>
