<?xml version="1.0" encoding="UTF-8" standalone="no"?>
<!DOCTYPE svg PUBLIC "-//W3C//DTD SVG 1.1//EN" "http://www.w3.org/Graphics/SVG/1.1/DTD/svg11.dtd">
<svg width="100%" height="100%" viewBox="0 0 62 62" version="1.1" xmlns="http://www.w3.org/2000/svg" xmlns:xlink="http://www.w3.org/1999/xlink" xml:space="preserve" xmlns:serif="http://www.serif.com/" style="fill-rule:evenodd;clip-rule:evenodd;stroke-linejoin:round;stroke-miterlimit:2;">
    <path d="M31,8.741L56.091,53.145L5.909,53.145L31,8.741ZM33.547,42.632C33.547,42.301 33.482,41.983 33.351,41.678C33.22,41.374 33.038,41.112 32.802,40.895C32.567,40.677 32.293,40.503 31.98,40.372C31.666,40.242 31.335,40.176 30.987,40.176C30.639,40.176 30.308,40.242 29.994,40.372C29.681,40.503 29.411,40.681 29.185,40.908C28.958,41.134 28.78,41.4 28.649,41.704C28.518,42.009 28.453,42.327 28.453,42.658C28.453,43.006 28.523,43.328 28.662,43.624C28.801,43.921 28.984,44.182 29.211,44.408C29.437,44.635 29.703,44.809 30.007,44.931C30.312,45.052 30.639,45.113 30.987,45.113C31.335,45.113 31.666,45.048 31.98,44.917C32.293,44.787 32.567,44.613 32.802,44.395C33.038,44.177 33.22,43.916 33.351,43.611C33.482,43.307 33.547,42.98 33.547,42.632ZM28.793,38.661L33.181,38.661L33.181,26.358L28.793,26.358L28.793,38.661Z" style="fill:white;"/>
</svg>
