<?xml version="1.0" encoding="UTF-8" standalone="no"?>
<!DOCTYPE svg PUBLIC "-//W3C//DTD SVG 1.1//EN" "http://www.w3.org/Graphics/SVG/1.1/DTD/svg11.dtd">
<svg width="100%" height="100%" viewBox="0 0 1080 1080" version="1.1" xmlns="http://www.w3.org/2000/svg" xmlns:xlink="http://www.w3.org/1999/xlink" xml:space="preserve" xmlns:serif="http://www.serif.com/" style="fill-rule:evenodd;clip-rule:evenodd;stroke-linejoin:round;stroke-miterlimit:2;">
    <g transform="matrix(16.3494,4.09365,-4.09365,16.3494,788.242,-10372.6)">
        <g transform="matrix(0.691624,1.07942e-16,-7.05471e-17,0.695406,48.5915,186.176)">
            <path d="M119.448,658.033C118.12,657.689 116.43,657.016 114.153,655.371C115.843,653.913 118.164,650.711 120.216,646.193C121.886,642.518 123.072,639.406 123.838,636.207L124.658,631.458L144.84,631.458C147.301,636.65 149.946,640.939 149.865,648.796C149.659,651.587 149.309,653.215 148.847,654.35C146.498,648.845 141.033,644.982 134.673,644.982C126.971,644.982 120.582,650.647 119.448,658.033Z" style="fill:white;"/>
        </g>
        <g transform="matrix(0.691624,1.07942e-16,-7.05471e-17,0.695406,48.5915,186.176)">
            <path d="M147.194,622.062C146.665,623.709 145.872,625.336 144.84,626.943L125.43,627.161C125.913,614.152 131.899,607.004 143.699,606.046C144.826,607.532 145.717,608.998 146.387,610.448C144.802,611.075 143.623,613.401 143.623,616.172C143.623,619.396 145.219,622.018 147.194,622.062Z" style="fill:white;"/>
        </g>
        <g transform="matrix(0.267405,4.17341e-17,-3.06717e-17,0.302341,-814.876,441.565)">
            <rect x="3569.11" y="595.933" width="18.94" height="13.115" style="fill:white;"/>
        </g>
        <g transform="matrix(0.188165,2.9367e-17,-1.91932e-17,0.189194,-452.628,599.263)">
            <path d="M3158.75,197.917C3184.14,197.917 3204.76,218.533 3204.76,243.927C3204.76,269.321 3184.14,289.937 3158.75,289.937C3133.35,289.937 3112.74,269.321 3112.74,243.927C3112.74,218.533 3133.35,197.917 3158.75,197.917ZM3126.42,244.359C3126.42,249.805 3127.9,255.154 3130.7,259.871L3151.16,248.392C3150.43,247.166 3150.05,245.775 3150.05,244.359L3126.42,244.359ZM3174.31,216.71C3169.6,213.987 3164.22,212.589 3158.74,212.658L3158.45,236.117C3159.88,236.099 3161.27,236.462 3162.5,237.17L3174.31,216.71ZM3142.38,216.71C3137.67,219.432 3133.77,223.385 3131.09,228.17L3151.26,240.15C3151.96,238.906 3152.97,237.878 3154.2,237.17L3142.38,216.71ZM3190.28,244.359C3190.28,238.913 3188.8,233.564 3186,228.847L3165.54,240.326C3166.26,241.552 3166.65,242.943 3166.65,244.359L3190.28,244.359ZM3174.31,272.009C3179.03,269.286 3182.92,265.333 3185.61,260.548L3165.43,248.568C3164.74,249.812 3163.72,250.84 3162.5,251.548L3174.31,272.009ZM3142.38,272.009C3147.1,274.731 3152.47,276.129 3157.96,276.06L3158.25,252.601C3156.82,252.619 3155.42,252.256 3154.2,251.548L3142.38,272.009Z" style="fill:white;"/>
        </g>
    </g>
</svg>
