<?xml version="1.0" encoding="UTF-8" standalone="no"?>
<!DOCTYPE svg PUBLIC "-//W3C//DTD SVG 1.1//EN" "http://www.w3.org/Graphics/SVG/1.1/DTD/svg11.dtd">
<svg width="100%" height="100%" viewBox="0 0 62 62" version="1.1" xmlns="http://www.w3.org/2000/svg" xmlns:xlink="http://www.w3.org/1999/xlink" xml:space="preserve" xmlns:serif="http://www.serif.com/" style="fill-rule:evenodd;clip-rule:evenodd;stroke-linejoin:round;stroke-miterlimit:2;">
    <g transform="matrix(0.954369,0,0,0.951357,-5350.57,-1751)">
        <g transform="matrix(1,0,0,1,-2654.78,-1023.81)">
            <path d="M8310.87,2892.63L8314.47,2903.16L8326.14,2903.16L8316.7,2909.67L8320.31,2920.21L8310.87,2913.7L8301.43,2920.21L8305.03,2909.67L8295.59,2903.16L8307.26,2903.16L8310.87,2892.63Z" style="fill:white;"/>
        </g>
        <g transform="matrix(1,0,0,1,-2671.92,-1046.56)">
            <path d="M8310.87,2892.63L8314.47,2903.16L8326.14,2903.16L8316.7,2909.67L8320.31,2920.21L8310.87,2913.7L8301.43,2920.21L8305.03,2909.67L8295.59,2903.16L8307.26,2903.16L8310.87,2892.63Z" style="fill:white;"/>
        </g>
        <g transform="matrix(1,0,0,1,-2689.2,-1023.81)">
            <path d="M8310.87,2892.63L8314.47,2903.16L8326.14,2903.16L8316.7,2909.67L8320.31,2920.21L8310.87,2913.7L8301.43,2920.21L8305.03,2909.67L8295.59,2903.16L8307.26,2903.16L8310.87,2892.63Z" style="fill:white;"/>
        </g>
    </g>
</svg>
