<?xml version="1.0" encoding="UTF-8" standalone="no"?>
<!DOCTYPE svg PUBLIC "-//W3C//DTD SVG 1.1//EN" "http://www.w3.org/Graphics/SVG/1.1/DTD/svg11.dtd">
<svg width="100%" height="100%" viewBox="0 0 996 112" version="1.1" xmlns="http://www.w3.org/2000/svg" xmlns:xlink="http://www.w3.org/1999/xlink" xml:space="preserve" xmlns:serif="http://www.serif.com/" style="fill-rule:evenodd;clip-rule:evenodd;stroke-linejoin:round;stroke-miterlimit:2;">
    <g transform="matrix(1.37305,0,0,1.37305,-3884.12,-279.652)">
        <path d="M2964.53,278.282C2960.75,280.246 2956.33,281.846 2951.28,283.082C2946.22,284.318 2940.71,284.936 2934.75,284.936C2928.57,284.936 2922.88,283.955 2917.68,281.991C2912.48,280.028 2908.01,277.264 2904.26,273.701C2900.52,270.138 2897.59,265.866 2895.48,260.884C2893.37,255.903 2892.32,250.358 2892.32,244.25C2892.32,238.069 2893.39,232.469 2895.54,227.452C2897.68,222.434 2900.65,218.162 2904.43,214.635C2908.21,211.108 2912.64,208.399 2917.74,206.509C2922.83,204.618 2928.32,203.673 2934.21,203.673C2940.31,203.673 2945.99,204.6 2951.22,206.454C2956.46,208.309 2960.71,210.799 2963.98,213.926L2952.2,227.343C2950.39,225.234 2947.99,223.507 2945.01,222.162C2942.02,220.816 2938.64,220.144 2934.86,220.144C2931.59,220.144 2928.57,220.744 2925.81,221.943C2923.04,223.143 2920.64,224.816 2918.61,226.961C2916.57,229.106 2914.99,231.651 2913.86,234.597C2912.74,237.542 2912.17,240.759 2912.17,244.25C2912.17,247.813 2912.68,251.086 2913.7,254.067C2914.72,257.049 2916.23,259.612 2918.23,261.757C2920.23,263.902 2922.7,265.575 2925.64,266.775C2928.59,267.975 2931.95,268.574 2935.73,268.574C2937.91,268.574 2939.99,268.411 2941.95,268.084C2943.91,267.756 2945.73,267.229 2947.4,266.502L2947.4,252.431L2932.68,252.431L2932.68,237.378L2964.53,237.378L2964.53,278.282Z" style="fill:white;fill-rule:nonzero;"/>
        <path d="M3012.09,250.249L3012.09,282.973L2993.43,282.973L2993.43,250.249L2964.42,205.745L2987,205.745L3003.47,234.324L3019.94,205.745L3041.76,205.745L3012.09,250.249Z" style="fill:white;fill-rule:nonzero;"/>
        <path d="M3088.88,282.973L3072.19,252.322L3065.86,252.322L3065.86,282.973L3047.54,282.973L3047.54,205.745L3076.99,205.745C3080.7,205.745 3084.32,206.127 3087.84,206.891C3091.37,207.654 3094.53,208.945 3097.33,210.763C3100.13,212.581 3102.37,214.981 3104.04,217.962C3105.71,220.944 3106.55,224.652 3106.55,229.088C3106.55,234.324 3105.13,238.723 3102.3,242.287C3099.46,245.85 3095.53,248.395 3090.51,249.922L3110.7,282.973L3088.88,282.973ZM3088.12,229.415C3088.12,227.597 3087.73,226.125 3086.97,224.998C3086.21,223.87 3085.22,222.998 3084.03,222.38C3082.83,221.762 3081.48,221.343 3079.99,221.125C3078.5,220.907 3077.06,220.798 3075.68,220.798L3065.75,220.798L3065.75,238.796L3074.59,238.796C3076.12,238.796 3077.68,238.669 3079.28,238.414C3080.88,238.16 3082.33,237.705 3083.64,237.051C3084.95,236.396 3086.03,235.451 3086.86,234.215C3087.7,232.979 3088.12,231.379 3088.12,229.415Z" style="fill:white;fill-rule:nonzero;"/>
        <g>
            <path d="M3200.36,244.032C3200.36,250.14 3199.3,255.721 3197.19,260.775C3195.09,265.829 3192.16,270.156 3188.41,273.756C3184.67,277.355 3180.21,280.137 3175.05,282.1C3169.89,284.064 3164.29,285.045 3158.25,285.045C3152.22,285.045 3146.64,284.064 3141.51,282.1C3136.38,280.137 3131.95,277.355 3128.2,273.756C3124.46,270.156 3121.53,265.829 3119.42,260.775C3117.31,255.721 3116.26,250.14 3116.26,244.032C3116.26,237.851 3117.31,232.27 3119.42,227.288C3121.53,222.307 3124.46,218.071 3128.2,214.581C3131.95,211.09 3136.38,208.399 3141.51,206.509C3146.64,204.618 3152.22,203.673 3158.25,203.673C3164.29,203.673 3169.89,204.618 3175.05,206.509C3180.21,208.399 3184.67,211.09 3188.41,214.581C3192.16,218.071 3195.09,222.307 3197.19,227.288C3199.3,232.27 3200.36,237.851 3200.36,244.032ZM3142.38,216.71C3137.67,219.432 3133.77,223.385 3131.09,228.17L3151.26,240.15C3151.96,238.906 3152.97,237.878 3154.2,237.17L3142.38,216.71ZM3174.31,272.009C3179.03,269.286 3182.92,265.333 3185.61,260.548L3165.43,248.568C3164.74,249.812 3163.72,250.84 3162.5,251.548L3174.31,272.009ZM3126.42,244.359C3126.42,249.805 3127.9,255.154 3130.7,259.871L3151.16,248.392C3150.43,247.166 3150.05,245.775 3150.05,244.359L3126.42,244.359ZM3142.38,272.009C3147.1,274.731 3152.47,276.129 3157.96,276.06L3158.25,252.601C3156.82,252.619 3155.42,252.256 3154.2,251.548L3142.38,272.009ZM3190.28,244.359C3190.28,238.913 3188.8,233.564 3186,228.847L3165.54,240.326C3166.26,241.552 3166.65,242.943 3166.65,244.359L3190.28,244.359ZM3174.31,216.71C3169.6,213.987 3164.22,212.589 3158.74,212.658L3158.45,236.117C3159.88,236.099 3161.27,236.462 3162.5,237.17L3174.31,216.71Z" style="fill:white;"/>
        </g>
        <path d="M3272.89,260.503C3272.89,264.72 3272.06,268.265 3270.39,271.138C3268.71,274.01 3266.49,276.319 3263.73,278.064C3260.97,279.81 3257.82,281.064 3254.3,281.828C3250.77,282.591 3247.15,282.973 3243.44,282.973L3212.68,282.973L3212.68,205.745L3243.44,205.745C3246.43,205.745 3249.48,206.054 3252.61,206.672C3255.73,207.291 3258.57,208.345 3261.11,209.836C3263.66,211.326 3265.73,213.344 3267.33,215.89C3268.93,218.435 3269.73,221.671 3269.73,225.598C3269.73,229.888 3268.57,233.433 3266.24,236.233C3263.91,239.032 3260.86,241.05 3257.08,242.287L3257.08,242.505C3259.26,242.868 3261.31,243.541 3263.24,244.523C3265.17,245.504 3266.84,246.759 3268.26,248.286C3269.68,249.813 3270.8,251.595 3271.64,253.631C3272.48,255.667 3272.89,257.957 3272.89,260.503ZM3251.73,228.106C3251.73,225.488 3250.73,223.58 3248.73,222.38C3246.73,221.18 3243.77,220.58 3239.84,220.58L3230.68,220.58L3230.68,236.505L3240.72,236.505C3244.21,236.505 3246.92,235.796 3248.84,234.378C3250.77,232.96 3251.73,230.87 3251.73,228.106ZM3254.24,258.757C3254.24,255.558 3253.04,253.34 3250.64,252.104C3248.24,250.867 3245.04,250.249 3241.04,250.249L3230.68,250.249L3230.68,267.92L3241.15,267.92C3242.61,267.92 3244.12,267.793 3245.68,267.538C3247.24,267.284 3248.66,266.829 3249.93,266.175C3251.21,265.52 3252.24,264.593 3253.04,263.393C3253.84,262.193 3254.24,260.648 3254.24,258.757Z" style="fill:white;fill-rule:nonzero;"/>
        <path d="M3365.72,244.032C3365.72,250.14 3364.67,255.721 3362.56,260.775C3360.45,265.829 3357.52,270.156 3353.78,273.756C3350.03,277.355 3345.58,280.137 3340.41,282.1C3335.25,284.064 3329.65,285.045 3323.62,285.045C3317.58,285.045 3312,284.064 3306.87,282.1C3301.75,280.137 3297.31,277.355 3293.57,273.756C3289.82,270.156 3286.89,265.829 3284.78,260.775C3282.68,255.721 3281.62,250.14 3281.62,244.032C3281.62,237.851 3282.68,232.27 3284.78,227.288C3286.89,222.307 3289.82,218.071 3293.57,214.581C3297.31,211.09 3301.75,208.399 3306.87,206.509C3312,204.618 3317.58,203.673 3323.62,203.673C3329.65,203.673 3335.25,204.618 3340.41,206.509C3345.58,208.399 3350.03,211.09 3353.78,214.581C3357.52,218.071 3360.45,222.307 3362.56,227.288C3364.67,232.27 3365.72,237.851 3365.72,244.032ZM3345.76,244.032C3345.76,240.687 3345.21,237.56 3344.12,234.651C3343.03,231.742 3341.52,229.252 3339.6,227.179C3337.67,225.107 3335.34,223.471 3332.62,222.271C3329.89,221.071 3326.89,220.471 3323.62,220.471C3320.34,220.471 3317.36,221.071 3314.67,222.271C3311.98,223.471 3309.65,225.107 3307.69,227.179C3305.73,229.252 3304.22,231.742 3303.16,234.651C3302.11,237.56 3301.58,240.687 3301.58,244.032C3301.58,247.522 3302.13,250.74 3303.22,253.685C3304.31,256.63 3305.82,259.157 3307.74,261.266C3309.67,263.375 3311.98,265.029 3314.67,266.229C3317.36,267.429 3320.34,268.029 3323.62,268.029C3326.89,268.029 3329.87,267.429 3332.56,266.229C3335.25,265.029 3337.58,263.375 3339.54,261.266C3341.51,259.157 3343.03,256.63 3344.12,253.685C3345.21,250.74 3345.76,247.522 3345.76,244.032Z" style="fill:white;fill-rule:nonzero;"/>
        <path d="M3407.83,221.671L3407.83,282.973L3389.17,282.973L3389.17,221.671L3367.36,221.671L3367.36,205.745L3429.64,205.745L3429.64,221.671L3407.83,221.671Z" style="fill:white;fill-rule:nonzero;"/>
        <path d="M3478.94,225.816C3477.34,223.78 3475.25,222.162 3472.67,220.962C3470.09,219.762 3467.6,219.162 3465.2,219.162C3463.96,219.162 3462.71,219.271 3461.44,219.489C3460.16,219.707 3459.02,220.125 3458,220.744C3456.98,221.362 3456.13,222.162 3455.44,223.143C3454.75,224.125 3454.4,225.379 3454.4,226.906C3454.4,228.215 3454.67,229.306 3455.22,230.179C3455.76,231.051 3456.57,231.815 3457.62,232.469C3458.67,233.124 3459.93,233.724 3461.38,234.269C3462.84,234.815 3464.47,235.378 3466.29,235.96C3468.91,236.833 3471.64,237.796 3474.47,238.851C3477.31,239.905 3479.89,241.305 3482.22,243.05C3484.54,244.795 3486.47,246.959 3488,249.54C3489.53,252.122 3490.29,255.34 3490.29,259.194C3490.29,263.63 3489.47,267.466 3487.83,270.702C3486.2,273.938 3484,276.61 3481.24,278.719C3478.47,280.828 3475.31,282.391 3471.74,283.409C3468.18,284.427 3464.51,284.936 3460.73,284.936C3455.2,284.936 3449.86,283.973 3444.69,282.046C3439.53,280.119 3435.24,277.373 3431.82,273.81L3444.04,261.375C3445.93,263.702 3448.42,265.648 3451.51,267.211C3454.6,268.774 3457.67,269.556 3460.73,269.556C3462.11,269.556 3463.45,269.411 3464.76,269.12C3466.07,268.829 3467.22,268.356 3468.2,267.702C3469.18,267.047 3469.96,266.175 3470.55,265.084C3471.13,263.993 3471.42,262.684 3471.42,261.157C3471.42,259.703 3471.05,258.467 3470.33,257.448C3469.6,256.43 3468.56,255.503 3467.22,254.667C3465.87,253.831 3464.2,253.067 3462.2,252.376C3460.2,251.685 3457.93,250.94 3455.38,250.14C3452.91,249.34 3450.49,248.395 3448.13,247.304C3445.77,246.213 3443.66,244.814 3441.8,243.105C3439.95,241.396 3438.46,239.323 3437.33,236.887C3436.2,234.451 3435.64,231.488 3435.64,227.997C3435.64,223.707 3436.51,220.035 3438.26,216.98C3440,213.926 3442.29,211.417 3445.13,209.454C3447.97,207.49 3451.16,206.054 3454.73,205.145C3458.29,204.236 3461.89,203.782 3465.53,203.782C3469.89,203.782 3474.35,204.582 3478.89,206.182C3483.43,207.781 3487.42,210.145 3490.83,213.272L3478.94,225.816Z" style="fill:white;fill-rule:nonzero;"/>
        <g transform="matrix(0.728307,0,0,0.728307,941.18,61.553)">
            <path d="M2648.8,271.023L2648.8,301.49L2591.84,251.001L2648.8,200.512L2648.8,230.979L2626.21,251.001L2648.8,271.023Z" style="fill:white;"/>
        </g>
        <g transform="matrix(-0.728307,0,0,0.728307,5441.71,61.553)">
            <path d="M2648.8,271.023L2648.8,301.49L2591.84,251.001L2648.8,200.512L2648.8,230.979L2626.21,251.001L2648.8,271.023Z" style="fill:white;"/>
        </g>
    </g>
</svg>
